<?xml version="1.0" encoding="utf-8"?>
<!-- Generator: Adobe Illustrator 16.0.0, SVG Export Plug-In . SVG Version: 6.00 Build 0)  -->
<!DOCTYPE svg PUBLIC "-//W3C//DTD SVG 1.1//EN" "http://www.w3.org/Graphics/SVG/1.1/DTD/svg11.dtd">
<svg version="1.1" id="Layer_1" xmlns="http://www.w3.org/2000/svg" xmlns:xlink="http://www.w3.org/1999/xlink" x="0px" y="0px"
	 width="88px" height="59.25px" viewBox="0 0 88 59.25" enable-background="new 0 0 88 59.25" xml:space="preserve">
<linearGradient id="SVGID_1_" gradientUnits="userSpaceOnUse" x1="7.4663" y1="29.2529" x2="85.0693" y2="29.2529">
	<stop  offset="0" style="stop-color:#FFD3B2"/>
	<stop  offset="1" style="stop-color:#FF872B"/>
</linearGradient>
<path opacity="0.4" fill-rule="evenodd" clip-rule="evenodd" fill="url(#SVGID_1_)" d="M21.401,39.481h-6.864h-0.179
	c-3.791,0-6.892,3.101-6.892,6.891l0,0c0,3.791,3.101,6.893,6.892,6.893h20.12h3.465h35.966c6.138,0,11.16-5.022,11.16-11.159
	v-0.001c0-6.138-5.022-11.159-11.16-11.159h0c-2.595,0-4.718-2.123-4.718-4.719l0,0c0-2.595,2.123-4.719,4.718-4.719h5.679
	c2.698,0,4.906-2.207,4.906-4.905l0,0c0-2.698-2.208-4.905-4.906-4.905h-7.181c-1.05,0-1.909-0.859-1.909-1.91l0,0
	c0-1.05,0.859-1.91,1.909-1.91h1.266c0.725,0,1.318-0.594,1.318-1.318l0,0c0-0.725-0.593-1.317-1.318-1.317h-4.744
	c0,0-1.813,0-3.562,0c-1.75,0-1.944,2.066-6.363,2.066c-6.831,0-3.416,0-10.246,0c-0.946,0-1.72,0.774-1.72,1.72l0,0
	c0,0.946,0.774,1.72,1.72,1.72h1.651c1.371,0,2.492,1.122,2.492,2.492l0,0c0,1.371-1.121,2.492-2.492,2.492h-4.971
	c-6.713,0-7.661,1.755-8.837,5.244s-7.282,3.77-7.282,3.77h-8.349c-2.065,0-3.755,1.689-3.755,3.756l0,0
	c0,2.065,1.69,3.756,3.755,3.756h0.43c1.987,0,3.613,1.625,3.613,3.612l0,0C25.014,37.855,23.388,39.481,21.401,39.481
	L21.401,39.481z M77.372,7.877c-0.728,0-1.318-0.591-1.318-1.318s0.59-1.317,1.318-1.317s1.318,0.59,1.318,1.317
	S78.1,7.877,77.372,7.877z"/>
<path fill-rule="evenodd" clip-rule="evenodd" fill="#9FB2D9" d="M57.649,48.719c-0.066-0.904-0.096-1.782-0.093-2.634
	c0.003-0.864,0.042-1.698,0.113-2.502c0.268-3.005,0.998-5.597,2.085-7.812c1.178-2.396,2.773-4.35,4.658-5.904
	c1.746-1.44,3.737-2.538,5.87-3.326c2.288-0.847,4.739-1.338,7.226-1.521c0.839-0.062,1.686-0.088,2.534-0.08
	c0.858,0.008,1.715,0.05,2.565,0.126l0,0c0.097,0.008,0.18,0.055,0.238,0.124c0.058,0.068,0.089,0.159,0.08,0.255l-0.003,0.024
	c-0.035,0.332-0.799,7.43-4.257,13.844c-3.499,6.488-9.741,12.278-20.745,9.729c-0.078-0.019-0.145-0.062-0.192-0.12
	C57.681,48.865,57.653,48.794,57.649,48.719L57.649,48.719L57.649,48.719z M82.539,25.622c-0.412,0.161-2.103,0.849-4.478,2.189
	c0.926,0.165,3.025,0.555,3.967,0.856C82.34,27.16,82.487,26.056,82.539,25.622L82.539,25.622z M81.958,28.997l-0.004-0.002
	c-1.089-0.354-3.927-0.849-4.351-0.923c-1.181,0.684-2.511,1.521-3.924,2.523l7.366,1.936
	C81.438,31.236,81.735,30.032,81.958,28.997L81.958,28.997z M80.947,32.854l-7.622-2.004c-1.314,0.949-2.694,2.041-4.088,3.286
	c1.511,0.46,8.737,2.676,9.962,3.295C79.919,35.87,80.493,34.309,80.947,32.854L80.947,32.854z M79.056,37.732
	c-1.232-0.63-9.208-3.061-10.11-3.335c-1.114,1.011-2.235,2.12-3.336,3.333l11.352,3.623c0.014,0.004,0.027,0.011,0.039,0.019
	c0.488-0.726,0.936-1.473,1.344-2.23C78.596,38.675,78.833,38.205,79.056,37.732L79.056,37.732z M76.806,41.657l-11.443-3.653
	c-0.856,0.959-1.7,1.98-2.518,3.066c1.849,0.626,11.323,3.573,11.352,3.583c0.026,0.007,0.049,0.021,0.068,0.04
	C75.213,43.764,76.056,42.737,76.806,41.657L76.806,41.657z M74.002,44.943c-1.003-0.313-9.871-3.074-11.369-3.59
	c-0.701,0.946-1.382,1.942-2.036,2.988c2.238,1.105,9.762,3.059,9.785,3.064c0.045,0.012,0.081,0.041,0.103,0.078
	C71.791,46.789,72.959,45.925,74.002,44.943L74.002,44.943z M70.103,47.681c-1.206-0.317-7.642-2.034-9.682-3.052
	c-0.417,0.679-0.822,1.378-1.213,2.1c0.859,0.339,4.708,1.816,7.195,2.07c0.071,0.007,0.126,0.057,0.145,0.122
	C67.83,48.645,69.014,48.222,70.103,47.681L70.103,47.681z M65.812,49.061c-2.547-0.398-6.031-1.744-6.764-2.035
	c-0.295,0.556-0.583,1.122-0.861,1.702C61.046,49.368,63.575,49.433,65.812,49.061L65.812,49.061z M57.99,48.361
	c0.258-0.53,0.523-1.051,0.796-1.561c-0.343-0.952-0.599-2.603-0.723-3.528c-0.012,0.113-0.022,0.228-0.032,0.343
	c-0.071,0.792-0.109,1.616-0.112,2.47C57.917,46.818,57.939,47.576,57.99,48.361L57.99,48.361z M58.167,42.408
	c0.075,0.009,0.137,0.07,0.146,0.148c0.001,0.007,0.269,2.43,0.693,3.839c0.378-0.69,0.77-1.361,1.171-2.013
	c-0.135-0.461-0.864-3.045-1.109-5.952C58.666,39.659,58.361,40.983,58.167,42.408L58.167,42.408z M59.259,37.873
	c0.062,0.021,0.108,0.077,0.113,0.146c0.182,2.643,0.798,5.084,1.045,5.979c0.633-1.005,1.292-1.963,1.969-2.876
	c-0.198-0.583-1.344-4.063-1.504-6.648c-0.285,0.466-0.553,0.951-0.801,1.457C59.778,36.549,59.503,37.196,59.259,37.873
	L59.259,37.873z M61.127,34.086c0.045,0.028,0.077,0.078,0.079,0.136c0.09,2.34,1.098,5.58,1.425,6.575
	c0.807-1.068,1.638-2.072,2.482-3.016c-1.508-3.196-1.735-5.8-1.769-6.447C62.528,32.156,61.784,33.073,61.127,34.086L61.127,34.086
	z M63.625,31.057c0.029,0.029,0.048,0.069,0.049,0.114c0,0.009,0.031,2.775,1.683,6.339c1.105-1.216,2.229-2.329,3.346-3.344
	c-0.677-1.522-1.331-5.317-1.417-5.836c-0.93,0.529-1.815,1.134-2.642,1.817C64.293,30.437,63.953,30.739,63.625,31.057
	L63.625,31.057z M67.587,28.161c0.009,0.018,0.016,0.036,0.019,0.055c0.002,0.013,0.667,4.055,1.36,5.713
	c1.411-1.264,2.808-2.371,4.14-3.333c-0.49-1.953-0.479-4.07-0.474-4.411c-0.755,0.197-1.499,0.43-2.225,0.697
	C69.434,27.242,68.49,27.668,67.587,28.161L67.587,28.161z M72.965,26.1c0.003,0.014,0.005,0.029,0.005,0.044
	c0,0.007-0.059,2.194,0.43,4.241c1.438-1.025,2.793-1.88,3.996-2.578c-0.148-1.084-0.064-2.215-0.047-2.408
	C75.864,25.516,74.393,25.746,72.965,26.1L72.965,26.1z M77.686,25.372c0.001,0.01,0,0.019,0,0.027
	c-0.001,0.004-0.106,1.119,0.025,2.226c2.186-1.247,3.828-1.958,4.488-2.228c-0.716-0.056-1.438-0.087-2.161-0.094
	C79.257,25.297,78.472,25.319,77.686,25.372z"/>
<g>
	<path fill-rule="evenodd" clip-rule="evenodd" fill="#8F9DD0" d="M35.825,34.388c-0.313-0.683-0.957-1.745-2.241-2.871
		c-2.181-1.912-3.684-4.297-2.664-5.505c0.982-1.165,4.072,1.547,6.073,7.749l-1.164,0.624L35.825,34.388z"/>
	<path fill-rule="evenodd" clip-rule="evenodd" fill="#D2DBF0" d="M31.441,26.631c-0.045-0.03-0.058-0.091-0.028-0.137
		c0.03-0.045,0.091-0.058,0.136-0.027c0.004,0.002,0.272,0.176,0.688,0.536l-0.219-0.521c-0.014-0.033,0.002-0.072,0.035-0.086
		c0.034-0.015,0.072,0.002,0.085,0.035l0.327,0.773c0.19,0.175,0.402,0.379,0.628,0.618l-0.155-0.662
		c-0.008-0.035,0.014-0.07,0.049-0.079s0.07,0.013,0.079,0.05l0.208,0.887c0.231,0.254,0.473,0.54,0.719,0.86l-0.113-0.58
		c-0.007-0.035,0.016-0.07,0.051-0.077c0.036-0.007,0.07,0.016,0.077,0.053l0.166,0.846c0.251,0.343,0.505,0.72,0.752,1.134
		l-0.047-0.564c-0.003-0.036,0.023-0.067,0.06-0.07c0.036-0.004,0.068,0.023,0.071,0.06l0.07,0.839
		c0.226,0.396,0.445,0.825,0.651,1.285l0.047-0.333c0.005-0.036,0.038-0.061,0.075-0.056c0.035,0.006,0.06,0.038,0.055,0.074
		l-0.076,0.543c0.152,0.355,0.296,0.729,0.43,1.121l0.059-0.331c0.007-0.035,0.041-0.059,0.077-0.052
		c0.035,0.006,0.059,0.04,0.053,0.076l-0.103,0.567c0.063,0.195,0.122,0.395,0.179,0.598l-0.178,0.096
		c-0.057-0.204-0.116-0.403-0.178-0.599c-0.142-0.08-0.485-0.265-0.669-0.282c-0.037-0.003-0.063-0.036-0.06-0.071
		c0.003-0.036,0.035-0.063,0.072-0.06c0.162,0.016,0.421,0.138,0.598,0.231c-0.051-0.152-0.103-0.302-0.156-0.448
		c-0.148-0.064-0.518-0.214-0.816-0.232c-0.036-0.003-0.064-0.034-0.062-0.07c0.002-0.036,0.034-0.063,0.069-0.062
		c0.257,0.016,0.558,0.12,0.747,0.196c-0.113-0.3-0.232-0.586-0.357-0.861c-0.232-0.044-0.973-0.175-1.321-0.137
		c-0.037,0.004-0.069-0.021-0.073-0.059c-0.004-0.036,0.022-0.068,0.058-0.071c0.328-0.036,0.969,0.067,1.27,0.121
		c-0.135-0.292-0.275-0.57-0.419-0.836c-0.229-0.048-0.981-0.195-1.576-0.141c-0.036,0.003-0.068-0.022-0.072-0.059
		c-0.003-0.037,0.023-0.069,0.06-0.072c0.536-0.049,1.193,0.06,1.505,0.121c-0.072-0.13-0.146-0.255-0.219-0.378
		c-0.229-0.064-1.017-0.26-1.892-0.217c-0.036,0.002-0.067-0.026-0.069-0.063c-0.001-0.036,0.026-0.066,0.062-0.068
		c0.767-0.038,1.467,0.104,1.8,0.186c-0.271-0.438-0.549-0.835-0.821-1.189c-0.295-0.006-1.441-0.026-2.018,0.08
		c-0.035,0.006-0.069-0.017-0.076-0.053c-0.006-0.035,0.017-0.07,0.052-0.076c0.534-0.099,1.532-0.092,1.938-0.084
		c-0.207-0.262-0.409-0.499-0.604-0.712c-0.282,0.021-1.327,0.1-1.58,0.134c-0.036,0.005-0.068-0.021-0.074-0.057
		c-0.004-0.035,0.021-0.067,0.056-0.073c0.231-0.031,1.107-0.099,1.484-0.127c-0.257-0.275-0.497-0.508-0.708-0.698
		c-0.265,0.036-0.905,0.126-1.063,0.159c-0.035,0.008-0.071-0.016-0.078-0.051c-0.008-0.035,0.015-0.07,0.05-0.077
		c0.141-0.03,0.658-0.104,0.961-0.146C31.731,26.819,31.444,26.633,31.441,26.631z"/>
</g>
<g>
	<path fill-rule="evenodd" clip-rule="evenodd" fill="#D2DBF0" d="M38.88,41.395c-0.921-1.102-2.804-2.899-6.236-4.544
		c-5.429-2.6-9.706-6.32-8.219-8.896c1.458-2.527,9.416,1.348,16.737,12.21C40.288,40.732,39.532,41.13,38.88,41.395z"/>
	<path fill-rule="evenodd" clip-rule="evenodd" fill="#FFFFFF" d="M39.787,40.254c-0.143,0.006-0.52,0.042-1.001,0.233
		c-0.033,0.014-0.072-0.003-0.085-0.037c-0.013-0.033,0.003-0.071,0.037-0.084c0.421-0.169,0.77-0.221,0.96-0.237
		c-0.129-0.179-0.257-0.354-0.385-0.527c-0.228,0.017-0.961,0.07-1.234,0.111c-0.036,0.006-0.069-0.02-0.074-0.056
		c-0.006-0.035,0.019-0.069,0.055-0.073c0.251-0.039,0.873-0.086,1.161-0.106c-0.241-0.323-0.48-0.636-0.719-0.938
		c-0.219,0.024-0.899,0.107-1.643,0.28c-0.035,0.008-0.07-0.015-0.079-0.05s0.014-0.07,0.049-0.079
		c0.674-0.155,1.297-0.239,1.577-0.272c-0.241-0.305-0.48-0.601-0.72-0.887c-0.3,0.033-1.277,0.152-2.346,0.399
		c-0.035,0.007-0.07-0.015-0.079-0.05s0.014-0.07,0.049-0.079c0.988-0.228,1.897-0.347,2.274-0.392
		c-0.314-0.374-0.625-0.731-0.934-1.075c-0.316,0.016-1.625,0.104-2.576,0.509c-0.033,0.015-0.072,0-0.086-0.033
		c-0.015-0.033,0.001-0.072,0.034-0.087c0.886-0.378,2.071-0.486,2.516-0.514c-0.38-0.42-0.755-0.815-1.125-1.189
		c-0.427,0.063-2.143,0.356-2.898,1.004c-0.027,0.023-0.068,0.021-0.093-0.008c-0.023-0.027-0.02-0.069,0.007-0.092
		c0.733-0.629,2.316-0.931,2.869-1.021c-0.393-0.394-0.78-0.765-1.159-1.11c-0.306,0.1-1.588,0.54-2.764,1.275
		c-0.031,0.019-0.071,0.01-0.09-0.021c-0.019-0.03-0.01-0.07,0.021-0.09c1.113-0.696,2.32-1.131,2.723-1.266
		c-0.225-0.205-0.447-0.4-0.666-0.588c-0.294,0.089-1.544,0.5-3.159,1.477c-0.031,0.019-0.071,0.009-0.09-0.022
		c-0.019-0.03-0.009-0.071,0.022-0.09c1.506-0.91,2.702-1.334,3.108-1.465c-0.521-0.441-1.025-0.84-1.51-1.198
		c-0.368,0.161-2.229,0.991-3.179,1.729c-0.029,0.022-0.07,0.017-0.092-0.013c-0.022-0.028-0.017-0.069,0.011-0.092
		c0.913-0.708,2.643-1.495,3.137-1.713c-0.283-0.207-0.559-0.4-0.828-0.58c-0.315,0.141-1.755,0.804-3.04,1.718
		c-0.029,0.021-0.07,0.015-0.092-0.015c-0.021-0.029-0.014-0.07,0.015-0.092c1.211-0.862,2.558-1.502,2.988-1.697
		c-0.629-0.416-1.217-0.763-1.757-1.051c-0.314,0.105-1.731,0.604-2.762,1.338c-0.029,0.021-0.07,0.015-0.091-0.016
		c-0.021-0.029-0.014-0.07,0.016-0.091c0.947-0.675,2.212-1.152,2.679-1.315c-0.223-0.117-0.437-0.223-0.642-0.32
		c-0.257,0.051-1.21,0.266-2.413,0.86c-0.032,0.016-0.072,0.003-0.088-0.03c-0.016-0.032-0.003-0.071,0.029-0.087
		c1.027-0.509,1.877-0.742,2.275-0.834c-1.648-0.758-2.642-0.896-2.65-0.898c-0.054-0.009-0.09-0.059-0.082-0.112
		s0.058-0.092,0.112-0.083c0.005,0.002,0.443,0.063,1.215,0.322c-0.228-0.238-0.549-0.565-0.629-0.604
		c-0.033-0.017-0.046-0.056-0.03-0.087c0.016-0.032,0.055-0.047,0.087-0.03c0.125,0.061,0.659,0.621,0.842,0.815
		c0.314,0.113,0.672,0.256,1.072,0.435l-0.765-1.222c-0.019-0.03-0.01-0.071,0.021-0.09c0.031-0.021,0.071-0.01,0.09,0.02
		l0.87,1.392c0.274,0.127,0.566,0.271,0.873,0.435l-0.837-1.454c-0.019-0.031-0.007-0.071,0.024-0.09s0.071-0.007,0.089,0.024
		l0.943,1.638c0.461,0.252,0.955,0.544,1.477,0.884l-0.749-1.518c-0.017-0.032-0.003-0.072,0.029-0.089
		c0.032-0.016,0.072-0.002,0.088,0.03l0.85,1.721c0.239,0.159,0.483,0.328,0.732,0.508l-0.643-1.371
		c-0.016-0.033-0.002-0.073,0.031-0.088c0.033-0.016,0.072-0.002,0.087,0.031l0.745,1.587c0.463,0.342,0.944,0.717,1.44,1.132
		l-0.514-1.349c-0.013-0.034,0.004-0.072,0.038-0.085c0.034-0.014,0.072,0.004,0.085,0.037l0.598,1.572
		c0.197,0.167,0.396,0.342,0.597,0.521l-0.314-1.037c-0.01-0.035,0.009-0.071,0.044-0.082c0.034-0.011,0.071,0.009,0.081,0.044
		l0.378,1.246c0.374,0.341,0.756,0.704,1.143,1.092l-0.312-1.161c-0.009-0.035,0.012-0.071,0.047-0.08
		c0.035-0.01,0.071,0.011,0.08,0.046l0.37,1.38c0.339,0.344,0.684,0.707,1.032,1.087l-0.229-1.035
		c-0.008-0.035,0.014-0.07,0.049-0.078c0.036-0.008,0.07,0.015,0.079,0.05l0.278,1.261c0.304,0.337,0.611,0.688,0.92,1.056
		L37.59,36.28c-0.003-0.035,0.023-0.068,0.059-0.072s0.068,0.022,0.072,0.06l0.114,1.137c0.224,0.269,0.448,0.545,0.675,0.829
		l0.026-0.816c0.001-0.035,0.032-0.063,0.068-0.063s0.064,0.031,0.063,0.067l-0.031,0.972c0.208,0.265,0.417,0.535,0.626,0.813
		l0.046-0.529c0.003-0.037,0.035-0.063,0.071-0.06c0.036,0.003,0.063,0.034,0.06,0.07l-0.059,0.676
		c0.157,0.21,0.314,0.425,0.471,0.643l0.176-0.448c0.013-0.034,0.051-0.051,0.085-0.037c0.034,0.014,0.05,0.052,0.037,0.085
		l-0.207,0.525c0.128,0.18,0.257,0.36,0.385,0.545c-0.058,0.033-0.115,0.065-0.172,0.097C40.032,40.598,39.909,40.425,39.787,40.254
		z"/>
</g>
<g>
	<path fill-rule="evenodd" clip-rule="evenodd" fill="#D2DBF0" d="M39.864,53.932c0.042-1.107,0.016-2.156-0.072-3.147
		c-0.451-5.052-2.515-8.656-5.439-11.07c-2.921-2.41-6.698-3.629-10.582-3.913c-1.376-0.102-2.764-0.085-4.129,0.037
		c-0.075,0.006-0.131,0.073-0.124,0.148c0,0.004,0,0.008,0.001,0.012c0.031,0.293,1.396,13.282,9.639,17.934H39.864z"/>
	<path fill-rule="evenodd" clip-rule="evenodd" fill="#FFFFFF" d="M20.386,36.527c-0.065-0.025-0.139,0.008-0.165,0.074
		c-0.025,0.065,0.008,0.139,0.074,0.163c0.012,0.005,1.399,0.52,3.472,1.689c-0.71,0.126-2.33,0.427-3.033,0.656
		c-0.066,0.021-0.103,0.094-0.081,0.161c0.021,0.065,0.093,0.103,0.16,0.081c0.826-0.269,2.979-0.646,3.301-0.7
		c0.896,0.518,1.905,1.153,2.978,1.914L21.5,42.037c-0.068,0.018-0.109,0.088-0.09,0.156c0.017,0.067,0.087,0.107,0.155,0.09
		l5.796-1.524c0.997,0.721,2.044,1.55,3.102,2.494c-1.151,0.351-6.665,2.041-7.568,2.505c-0.062,0.031-0.087,0.107-0.055,0.17
		c0.032,0.063,0.108,0.087,0.17,0.056c0.932-0.478,6.988-2.323,7.673-2.532c0.845,0.768,1.695,1.608,2.531,2.529l-8.613,2.749
		c-0.067,0.022-0.104,0.093-0.083,0.16s0.094,0.104,0.16,0.083l8.723-2.785c0.65,0.728,1.29,1.503,1.911,2.327
		c-1.403,0.475-8.592,2.712-8.613,2.718c-0.067,0.021-0.105,0.092-0.084,0.159c0.021,0.066,0.092,0.104,0.159,0.084
		c0.022-0.007,7.494-2.331,8.698-2.746c0.532,0.718,1.048,1.474,1.544,2.268c-1.698,0.839-7.407,2.319-7.424,2.324
		c-0.068,0.019-0.109,0.088-0.092,0.156c0.018,0.067,0.087,0.108,0.156,0.092c0.017-0.005,5.787-1.503,7.495-2.354
		c0.316,0.515,0.624,1.045,0.92,1.593c-0.431,0.17-1.851,0.718-3.31,1.124h0.893c1.185-0.371,2.215-0.771,2.538-0.898
		c0.157,0.295,0.311,0.594,0.462,0.898h0.284c-0.178-0.363-0.361-0.719-0.548-1.068c0.375-1.043,0.611-3.187,0.612-3.192
		c0.008-0.07-0.042-0.134-0.112-0.142c-0.07-0.008-0.133,0.043-0.141,0.113c-0.001,0.006-0.204,1.844-0.526,2.912
		c-0.287-0.523-0.583-1.032-0.889-1.526c0.107-0.366,0.706-2.487,0.865-4.81c0.005-0.071-0.048-0.131-0.118-0.137
		c-0.07-0.005-0.131,0.048-0.136,0.117c-0.138,2.006-0.606,3.858-0.793,4.537c-0.481-0.762-0.98-1.488-1.494-2.181
		c0.154-0.458,1.075-3.25,1.15-5.228c0.002-0.071-0.052-0.129-0.123-0.133c-0.07-0.002-0.13,0.053-0.133,0.123
		c-0.068,1.775-0.833,4.233-1.081,4.988c-0.612-0.811-1.243-1.571-1.883-2.288c1.322-2.802,1.347-5.004,1.347-5.01
		c0.001-0.07-0.054-0.128-0.125-0.13s-0.129,0.054-0.13,0.125c0,0.006-0.024,2.105-1.277,4.809
		c-0.838-0.922-1.691-1.766-2.539-2.536c0.551-1.24,1.082-4.465,1.083-4.475c0.012-0.069-0.035-0.134-0.104-0.146
		c-0.07-0.011-0.134,0.035-0.146,0.105c-0.001,0.009-0.507,3.076-1.032,4.334c-1.071-0.959-2.131-1.799-3.141-2.529
		c0.405-1.614,0.358-3.378,0.358-3.384c-0.002-0.07-0.06-0.126-0.13-0.124c-0.071,0.001-0.126,0.06-0.124,0.13
		c0,0.004,0.043,1.666-0.327,3.218c-1.091-0.777-2.119-1.426-3.032-1.955c0.124-0.903,0.034-1.848,0.034-1.85
		c-0.006-0.071-0.068-0.122-0.138-0.116s-0.122,0.068-0.115,0.139c0,0.003,0.08,0.85-0.02,1.688
		C21.861,37.074,20.397,36.531,20.386,36.527z"/>
</g>
<g>
	<path fill-rule="evenodd" clip-rule="evenodd" fill="#0E2D34" d="M42.038,31.951c-1.789-1.229-4.158-3.294-5.925-6.445
		c-2.504-4.464,4.997,0.188,10.434,5.402l-3.542,1.043H42.038z"/>
	<g>
		<path fill-rule="evenodd" clip-rule="evenodd" fill="#1B7154" d="M34.8,42.358c1.164,1.566,4.349,4.837,7.394,8.262l3.608,2.176
			l1.166-2.237c-1.958-4.821-4.806-9.904-7.568-12.723C34.553,32.892,30.715,36.861,34.8,42.358z"/>
		<path fill-rule="evenodd" clip-rule="evenodd" fill="#0E2D34" d="M45.859,52.686c-3.225-7.875-10.642-15.079-10.669-15.106
			c-0.053-0.051-0.135-0.047-0.183,0.011c-0.048,0.057-0.044,0.145,0.009,0.195c0.026,0.027,7.324,7.115,10.55,14.869l0.235,0.142
			L45.859,52.686z"/>
	</g>
	<path fill-rule="evenodd" clip-rule="evenodd" fill="#0E2D34" d="M40.662,54.005c-2.046-1.404-4.757-3.77-6.779-7.374
		c-2.866-5.107,5.718,0.216,11.938,6.18l-4.053,1.194H40.662z"/>
	<g>
		<path fill-rule="evenodd" clip-rule="evenodd" fill="#A6C86B" d="M42.232,16.325c0.72,1.911,1.813,6.409,3.104,11.062
			c-0.555,1.904-1.753,3.542-3.34,4.66c-2.887-4.371-5.429-9.404-6.362-13.374C33.808,10.903,39.49,9.053,42.232,16.325z"/>
		<path fill-rule="evenodd" clip-rule="evenodd" fill="#5F9850" d="M43.666,30.51c-4.068-7.381-5.959-16.344-5.968-16.381
			c-0.018-0.084,0.031-0.168,0.108-0.187c0.077-0.021,0.155,0.032,0.173,0.116c0.008,0.037,1.878,8.897,5.883,16.206
			C43.799,30.348,43.733,30.43,43.666,30.51z"/>
	</g>
	<g>
		<path fill-rule="evenodd" clip-rule="evenodd" fill="#A6C86B" d="M44.752,53.146c-0.292-1.065-0.748-2.331-1.454-3.508
			c-1.652-2.754-4.465-2.896-5.1-2.095c-0.457,0.574-1.068,2.947-0.117,5.721h5.378C43.9,53.265,44.332,53.224,44.752,53.146z"/>
		<path fill-rule="evenodd" clip-rule="evenodd" fill="#5F9850" d="M43.199,53.265c-0.107-0.187-0.219-0.373-0.335-0.562
			c0.026-0.501,0.088-1.909-0.02-2.672c-0.008-0.054-0.044-0.089-0.081-0.078c-0.037,0.012-0.061,0.066-0.053,0.119
			c0.094,0.66,0.055,1.834,0.026,2.428c-0.471-0.746-1.017-1.506-1.643-2.242c-0.028-1.442-0.25-2.422-0.25-2.425
			c-0.011-0.054-0.05-0.082-0.086-0.065c-0.036,0.018-0.056,0.075-0.044,0.129c0.001,0.002,0.199,0.882,0.239,2.198
			c-0.706-0.812-1.512-1.589-2.429-2.282c-0.067-0.051-0.149-0.011-0.184,0.089c-0.034,0.1-0.007,0.222,0.06,0.272
			c0.446,0.338,0.866,0.695,1.26,1.067c-0.28,0.042-0.702,0.142-1.093,0.374c-0.035,0.021-0.052,0.08-0.038,0.131
			c0.014,0.053,0.054,0.078,0.089,0.057c0.472-0.28,0.989-0.358,1.229-0.382c0.61,0.595,1.158,1.223,1.646,1.857
			c-0.482,0.134-1.656,0.517-2.715,1.301c-0.033,0.024-0.047,0.086-0.03,0.136s0.058,0.07,0.092,0.044
			c1.131-0.837,2.399-1.21,2.783-1.31c0.456,0.606,0.86,1.219,1.215,1.815H43.199z"/>
	</g>
</g>
<g>
	<path fill-rule="evenodd" clip-rule="evenodd" fill="#F18A00" d="M73.109,26.221c-1.719,0.259-4.705,0.617-5.075,0.489
		c-0.502-0.176-3.331-3.11-3.577-3.871c0,0-0.023-0.085,0.078-0.1c0.1-0.016,0.452,0.029,0.562-0.102
		c0.109-0.128,0.188-0.024,0.266,0.141c0.078,0.164,2.337,2.074,2.924,2.455c0.587,0.379,4.05-1.216,4.505-1.354
		C74.896,23.237,75.653,25.839,73.109,26.221z"/>
	<path fill-rule="evenodd" clip-rule="evenodd" fill="#00000F" d="M46.51,9.195h18.341c1.681,0,3.056,1.375,3.056,3.057v37.956
		c0,1.681-1.375,3.057-3.056,3.057H46.51c-1.682,0-3.057-1.376-3.057-3.057V12.252C43.453,10.57,44.829,9.195,46.51,9.195z"/>
	<path fill-rule="evenodd" clip-rule="evenodd" fill="#00000F" d="M45.504,9.195h18.341c1.682,0,3.057,1.375,3.057,3.057v37.956
		c0,1.681-1.375,3.057-3.057,3.057H45.504c-1.681,0-3.057-1.376-3.057-3.057V12.252C42.448,10.57,43.823,9.195,45.504,9.195z"/>
	<path fill-rule="evenodd" clip-rule="evenodd" fill="#101537" d="M45.504,9.681c-1.413,0-2.571,1.159-2.571,2.571v37.956
		c0,1.412,1.158,2.57,2.571,2.57h18.341c1.413,0,2.57-1.158,2.57-2.57V12.252c0-1.412-1.158-2.571-2.57-2.571H45.504z"/>
	<path fill-rule="evenodd" clip-rule="evenodd" fill="#FFFFFF" d="M45.504,10.652c-0.876,0-1.599,0.723-1.599,1.6v37.956
		c0,0.876,0.723,1.6,1.599,1.6h18.341c0.876,0,1.599-0.724,1.599-1.6V12.252c0-0.877-0.722-1.6-1.599-1.6H45.504z"/>
	<path fill-rule="evenodd" clip-rule="evenodd" fill="#101537" d="M54.675,12.111h-5.482c-0.387,0-0.703-0.316-0.703-0.703v-0.27
		c-0.092-0.281-0.357-0.486-0.668-0.486l0.668-0.244v-0.254h6.185h6.185v0.254l0.668,0.244c-0.311,0-0.576,0.205-0.668,0.486v0.27
		c0,0.387-0.316,0.703-0.703,0.703H54.675z"/>
	<path fill-rule="evenodd" clip-rule="evenodd" fill="#00000F" d="M53.294,11.146c-0.107,0-0.193-0.086-0.193-0.193
		c0-0.106,0.086-0.192,0.193-0.192h3.57c0.107,0,0.193,0.086,0.193,0.192c0,0.107-0.086,0.193-0.193,0.193H53.294L53.294,11.146z
		 M52.65,10.76c0.106,0,0.192,0.086,0.192,0.192c0,0.107-0.086,0.193-0.192,0.193h-0.165c-0.106,0-0.192-0.086-0.192-0.193
		c0-0.106,0.086-0.192,0.192-0.192H52.65z"/>
	<g>
		<g>
			<path fill-rule="evenodd" clip-rule="evenodd" fill="#C0CDEA" d="M63.163,49.076h-1.285c-0.063,0-0.119,0.026-0.16,0.066l0,0.001
				c-0.042,0.041-0.067,0.098-0.067,0.161v1.313c-0.001,0.038,0.004,0.059,0.047,0.073c0.068,0.03,0.07,0.006,0.092-0.036
				l0.002-0.005c0.02-0.033,0.095-0.158,0.211-0.243c0.061-0.046,0.135-0.079,0.215-0.079h0.1v0.084c0,0.052,0.021,0.1,0.055,0.133
				c0.033,0.034,0.081,0.055,0.132,0.055h0.702c0.056,0,0.106,0.023,0.149,0.055c0.079,0.059,0.132,0.142,0.149,0.171l0.003,0.007
				c0.021,0.043,0.039,0.061,0.095,0.036c0.043-0.019,0.046-0.036,0.044-0.071c0.009-0.318,0-0.659,0-0.977
				c0-0.052-0.021-0.1-0.055-0.133c-0.034-0.033-0.081-0.055-0.132-0.055h-0.07v-0.328c0-0.063-0.026-0.12-0.067-0.161
				S63.226,49.076,63.163,49.076L63.163,49.076z M62.058,49.892h-0.077c-0.024,0-0.043-0.019-0.043-0.044
				c0-0.023,0.02-0.043,0.043-0.043h0.077c0.024,0,0.044,0.02,0.044,0.043C62.102,49.873,62.083,49.892,62.058,49.892L62.058,49.892
				z M62.224,49.805h0.71c0.024,0,0.044,0.02,0.044,0.043c0,0.025-0.02,0.044-0.044,0.044h-0.71c-0.024,0-0.044-0.019-0.044-0.044
				C62.18,49.824,62.2,49.805,62.224,49.805L62.224,49.805z M62.982,49.467h0.077c0.024,0,0.043,0.019,0.043,0.044
				c0,0.023-0.019,0.044-0.043,0.044h-0.077c-0.024,0-0.043-0.021-0.043-0.044C62.939,49.485,62.958,49.467,62.982,49.467
				L62.982,49.467z M62.817,49.555h-0.836c-0.024,0-0.043-0.021-0.043-0.044c0-0.025,0.02-0.044,0.043-0.044h0.836
				c0.024,0,0.043,0.019,0.043,0.044C62.86,49.534,62.841,49.555,62.817,49.555L62.817,49.555z M62.464,50.328h0.699
				c0.063,0,0.12-0.026,0.161-0.067c0.041-0.04,0.067-0.097,0.067-0.16v-0.322h0.07c0.012,0,0.022,0.005,0.03,0.013
				c0.007,0.008,0.012,0.018,0.012,0.029v0.768c-0.019-0.018-0.038-0.035-0.06-0.051c-0.065-0.047-0.144-0.083-0.235-0.083h-0.702
				c-0.011,0-0.022-0.005-0.029-0.013c-0.008-0.007-0.013-0.018-0.013-0.029V50.328L62.464,50.328z M61.878,49.223h1.285
				c0.022,0,0.043,0.01,0.058,0.024s0.024,0.034,0.024,0.058v0.4v0.396c0,0.022-0.009,0.043-0.024,0.059
				c-0.015,0.015-0.035,0.022-0.058,0.022h-0.772h-0.173c-0.117,0-0.218,0.046-0.302,0.108c-0.046,0.033-0.086,0.071-0.12,0.109
				v-1.095c0-0.023,0.009-0.043,0.024-0.058C61.835,49.231,61.855,49.223,61.878,49.223z"/>
			<path fill-rule="evenodd" clip-rule="evenodd" fill="#C0CDEA" d="M57.24,48.431c-0.146,0-0.278,0.06-0.375,0.155
				c-0.096,0.096-0.155,0.228-0.155,0.374s0.059,0.278,0.155,0.374l0.004,0.005c0.096,0.093,0.227,0.151,0.37,0.151
				c0.146,0,0.278-0.061,0.374-0.156l0,0c0.096-0.097,0.155-0.228,0.155-0.374s-0.06-0.278-0.155-0.374S57.386,48.431,57.24,48.431
				L57.24,48.431z M56.651,50.327v-0.003v-0.002v-0.046c0-0.16,0.065-0.306,0.17-0.413l0.003-0.003
				c0.107-0.106,0.254-0.173,0.416-0.173c0.162,0,0.309,0.066,0.416,0.173c0.107,0.107,0.173,0.254,0.173,0.416v0.046v0.004v0.001
				v0.375c0,0.009-0.003,0.017-0.008,0.022H57.82c-0.005,0.006-0.013,0.01-0.021,0.01h-1.117c-0.008,0-0.016-0.004-0.021-0.01
				c-0.006-0.006-0.009-0.014-0.009-0.022V50.327L56.651,50.327z M56.505,50.324v0.003v0.375c0,0.05,0.021,0.093,0.052,0.125h0
				c0.031,0.032,0.076,0.052,0.124,0.052h1.117c0.048,0,0.092-0.02,0.124-0.052h0c0.032-0.032,0.052-0.075,0.052-0.125v-0.375
				l-0.001-0.003l0.001-0.002v-0.046c0-0.202-0.083-0.386-0.216-0.52c-0.133-0.133-0.317-0.216-0.519-0.216
				s-0.386,0.083-0.519,0.216l-0.004,0.005c-0.13,0.133-0.212,0.314-0.212,0.515v0.046V50.324L56.505,50.324z M56.969,48.689
				c0.07-0.07,0.166-0.113,0.271-0.113s0.202,0.043,0.271,0.113c0.069,0.068,0.113,0.164,0.113,0.271s-0.043,0.202-0.112,0.271
				l0,0.001c-0.069,0.069-0.165,0.111-0.271,0.111c-0.104,0-0.199-0.041-0.268-0.108l-0.003-0.004
				c-0.069-0.068-0.112-0.164-0.112-0.271C56.856,48.854,56.899,48.758,56.969,48.689z"/>
			<path fill-rule="evenodd" clip-rule="evenodd" fill="#C0CDEA" d="M51.58,49.151c-0.046,0.017-0.091,0.036-0.132,0.062
				c-0.042,0.023-0.083,0.053-0.119,0.084l-0.15-0.086l-0.007-0.004c-0.025-0.013-0.053-0.015-0.078-0.009
				c-0.027,0.009-0.052,0.026-0.068,0.053l-0.136,0.237c-0.016,0.027-0.019,0.058-0.012,0.085c0.007,0.028,0.025,0.053,0.052,0.067
				l0.15,0.088c-0.003,0.014-0.005,0.028-0.008,0.044c-0.004,0.032-0.007,0.067-0.007,0.101c0,0.032,0.002,0.066,0.007,0.102
				c0.002,0.014,0.004,0.029,0.008,0.044l-0.15,0.086c-0.027,0.016-0.045,0.04-0.052,0.068c-0.007,0.027-0.004,0.058,0.011,0.085
				l0.137,0.236c0.016,0.027,0.041,0.045,0.068,0.053c0.028,0.008,0.058,0.004,0.085-0.012l0.15-0.086
				c0.036,0.032,0.076,0.06,0.119,0.084c0.042,0.025,0.086,0.045,0.132,0.061v0.174c0,0.03,0.012,0.059,0.033,0.078
				c0.02,0.021,0.048,0.033,0.079,0.033h0.274c0.031,0,0.059-0.013,0.079-0.032l0.006-0.007c0.017-0.02,0.027-0.046,0.027-0.072
				v-0.174c0.046-0.016,0.09-0.035,0.132-0.061c0.042-0.024,0.083-0.052,0.119-0.084l0.15,0.086l0.006,0.004
				c0.025,0.012,0.053,0.015,0.078,0.008c0.028-0.008,0.053-0.025,0.068-0.053l0.137-0.236c0.016-0.027,0.019-0.058,0.011-0.085
				c-0.007-0.028-0.025-0.053-0.052-0.068l-0.15-0.086c0.003-0.015,0.005-0.03,0.007-0.044c0.004-0.035,0.007-0.069,0.007-0.102
				c0-0.033-0.003-0.068-0.007-0.102c-0.002-0.015-0.004-0.029-0.007-0.043l0.15-0.088c0.026-0.015,0.044-0.039,0.052-0.067
				c0.007-0.027,0.004-0.058-0.011-0.085l-0.137-0.237c-0.016-0.026-0.041-0.044-0.068-0.052c-0.027-0.008-0.058-0.004-0.084,0.012
				l-0.15,0.086c-0.037-0.031-0.077-0.061-0.119-0.084c-0.042-0.025-0.086-0.045-0.132-0.062v-0.173
				c0-0.031-0.013-0.059-0.033-0.079c-0.02-0.02-0.048-0.033-0.079-0.033h-0.274c-0.031,0-0.059,0.014-0.079,0.032l-0.006,0.008
				c-0.017,0.02-0.026,0.045-0.026,0.072V49.151L51.58,49.151z M51.521,49.339c0.045-0.027,0.095-0.048,0.146-0.062
				c0.034-0.007,0.059-0.037,0.059-0.071v-0.193h0.207v0.193c0,0.031,0.021,0.062,0.054,0.069c0.054,0.015,0.104,0.035,0.151,0.063
				c0.047,0.026,0.09,0.06,0.129,0.098c0.022,0.024,0.06,0.03,0.089,0.014l0.167-0.097l0.104,0.179l-0.163,0.094
				c-0.03,0.016-0.047,0.051-0.038,0.085c0.008,0.027,0.013,0.054,0.016,0.08c0.003,0.025,0.005,0.053,0.005,0.082
				s-0.002,0.057-0.005,0.082s-0.009,0.054-0.016,0.08l0,0c-0.008,0.031,0.005,0.065,0.034,0.082l0.167,0.096l-0.104,0.18
				l-0.167-0.096c-0.028-0.018-0.064-0.014-0.088,0.011c-0.039,0.039-0.083,0.072-0.13,0.101c-0.045,0.025-0.094,0.047-0.146,0.061
				c-0.034,0.007-0.059,0.036-0.059,0.072v0.193h-0.207v-0.193c0-0.033-0.022-0.063-0.054-0.071
				c-0.054-0.014-0.104-0.035-0.151-0.062c-0.047-0.028-0.09-0.061-0.128-0.099c-0.023-0.024-0.06-0.03-0.089-0.013l-0.168,0.096
				l-0.103-0.18l0.161-0.093c0.032-0.015,0.05-0.05,0.041-0.085c-0.008-0.026-0.013-0.055-0.017-0.08
				c-0.004-0.025-0.005-0.053-0.005-0.082s0.001-0.057,0.005-0.082c0.003-0.026,0.009-0.053,0.017-0.081h0
				c0.008-0.03-0.005-0.064-0.034-0.08l-0.167-0.098l0.103-0.179l0.168,0.097c0.028,0.016,0.064,0.012,0.088-0.012
				C51.429,49.399,51.473,49.365,51.521,49.339L51.521,49.339z M51.829,49.483c0.105,0,0.201,0.042,0.271,0.11l0.004,0.004
				c0.07,0.07,0.114,0.168,0.114,0.275s-0.044,0.204-0.114,0.274l0,0.001c-0.071,0.069-0.168,0.113-0.275,0.113
				c-0.107,0-0.205-0.044-0.275-0.114s-0.114-0.167-0.114-0.274s0.044-0.205,0.114-0.275S51.722,49.483,51.829,49.483L51.829,49.483
				z M51.657,49.701c0.044-0.045,0.105-0.071,0.172-0.071c0.066,0,0.126,0.024,0.169,0.067l0.003,0.004
				c0.044,0.043,0.071,0.104,0.071,0.172c0,0.067-0.027,0.128-0.071,0.171l0,0.001c-0.044,0.044-0.104,0.072-0.172,0.072
				c-0.067,0-0.128-0.028-0.172-0.073c-0.044-0.043-0.071-0.104-0.071-0.171C51.585,49.805,51.612,49.744,51.657,49.701z"/>
			<path fill-rule="evenodd" clip-rule="evenodd" fill="#C0CDEA" d="M45.886,49.628c-0.126,0.126-0.189,0.292-0.189,0.456
				c0,0.165,0.063,0.33,0.189,0.456l0.004,0.004c0.125,0.123,0.288,0.185,0.452,0.185c0.142,0,0.285-0.047,0.402-0.141l0.269,0.271
				c0.029,0.028,0.075,0.028,0.104,0c0.028-0.028,0.028-0.075,0-0.104l-0.27-0.269c0.093-0.117,0.14-0.259,0.14-0.401
				c0-0.164-0.063-0.33-0.189-0.456c-0.125-0.126-0.291-0.189-0.456-0.189S46.012,49.502,45.886,49.628L45.886,49.628L45.886,49.628
				z M46.697,50.436l-0.001,0.001l-0.001,0.001c-0.097,0.097-0.225,0.146-0.352,0.146c-0.126,0-0.253-0.048-0.35-0.142l-0.003-0.005
				c-0.097-0.098-0.146-0.226-0.146-0.353c0-0.128,0.049-0.256,0.146-0.354c0.097-0.097,0.225-0.146,0.353-0.146
				c0.127,0,0.256,0.049,0.353,0.146c0.098,0.098,0.146,0.226,0.146,0.354C46.842,50.211,46.793,50.338,46.697,50.436z"/>
		</g>
		<circle fill-rule="evenodd" clip-rule="evenodd" fill="#D64C47" cx="61.7" cy="49.115" r="0.383"/>
		<path fill-rule="evenodd" clip-rule="evenodd" fill="#FFFFFF" d="M61.745,49.298H61.67v-0.284
			c-0.027,0.025-0.06,0.045-0.097,0.058v-0.069c0.02-0.006,0.041-0.018,0.063-0.036c0.023-0.018,0.039-0.038,0.047-0.063h0.061
			V49.298z"/>
		<g>
			<path fill-rule="evenodd" clip-rule="evenodd" fill="#9FB2D9" d="M45.351,11.467c-0.036,0-0.065-0.028-0.065-0.063
				c0-0.036,0.029-0.064,0.065-0.064h1.413c0.035,0,0.064,0.028,0.064,0.064c0,0.035-0.029,0.063-0.064,0.063H45.351L45.351,11.467z
				 M45.351,12.396c-0.036,0-0.065-0.028-0.065-0.064c0-0.035,0.029-0.064,0.065-0.064h1.413c0.035,0,0.064,0.029,0.064,0.064
				c0,0.036-0.029,0.064-0.064,0.064H45.351L45.351,12.396z M45.351,11.932c-0.036,0-0.065-0.028-0.065-0.065
				c0-0.035,0.029-0.063,0.065-0.063h1.413c0.035,0,0.064,0.028,0.064,0.063c0,0.037-0.029,0.065-0.064,0.065H45.351z"/>
			<path fill-rule="evenodd" clip-rule="evenodd" fill="#9FB2D9" d="M64.006,11.462L64.006,11.462L64.006,11.462z M62.308,11.533
				h0.83V12.2h-0.83c-0.019,0-0.035-0.007-0.047-0.019c-0.012-0.013-0.02-0.029-0.02-0.047V11.6c0-0.018,0.007-0.034,0.02-0.047
				C62.272,11.541,62.289,11.533,62.308,11.533L62.308,11.533z M63.868,11.404h-1.561c-0.054,0-0.103,0.021-0.139,0.058
				c-0.035,0.036-0.058,0.085-0.058,0.138v0.535c0,0.054,0.022,0.103,0.058,0.138c0.036,0.036,0.084,0.058,0.138,0.058h1.561
				c0.052,0,0.1-0.02,0.134-0.053l0.004-0.005c0.036-0.035,0.058-0.084,0.058-0.138V11.6c0-0.053-0.022-0.102-0.058-0.138
				S63.922,11.404,63.868,11.404z"/>
		</g>
	</g>
</g>
<path fill-rule="evenodd" clip-rule="evenodd" fill="#00000F" d="M7.464,54.234H6.825c-0.268,0-0.486-0.218-0.486-0.484l0,0
	c0-0.267,0.218-0.485,0.486-0.485h0.639c0.266,0,0.485,0.219,0.485,0.485l0,0C7.949,54.017,7.73,54.234,7.464,54.234z"/>
<path fill-rule="evenodd" clip-rule="evenodd" fill="#00000F" d="M80.102,54.234h-0.639c-0.266,0-0.485-0.218-0.485-0.484l0,0
	c0-0.267,0.219-0.485,0.485-0.485h0.639c0.267,0,0.485,0.219,0.485,0.485l0,0C80.587,54.017,80.369,54.234,80.102,54.234z"/>
<g>
	<path fill-rule="evenodd" clip-rule="evenodd" fill="#DB4A46" d="M62.083,47.345c1.736,0,3.153-1.417,3.153-3.153
		s-1.417-3.153-3.153-3.153s-3.153,1.417-3.153,3.153S60.347,47.345,62.083,47.345z"/>
	<path fill-rule="evenodd" clip-rule="evenodd" fill="#FFFFFF" d="M62.083,45.872l1.336-1.597c1.038-1.242-0.711-2.044-1.336-1.105
		c-0.626-0.938-2.375-0.137-1.336,1.105L62.083,45.872z"/>
</g>
<g>
	<path fill-rule="evenodd" clip-rule="evenodd" fill="#DB4A46" d="M79.001,9.848h-6.9c-0.501,0-0.911,0.41-0.911,0.911v3.759v0.277
		v2.393c0,0.042,0.024,0.078,0.063,0.094c0.039,0.017,0.082,0.008,0.111-0.021l1.553-1.553h6.085c0.501,0,0.911-0.41,0.911-0.912
		v-4.036C79.912,10.258,79.502,9.848,79.001,9.848z"/>
	<g>
		<circle fill-rule="evenodd" clip-rule="evenodd" fill="#FFFFFF" cx="77.703" cy="12.777" r="0.65"/>
		<circle fill-rule="evenodd" clip-rule="evenodd" fill="#FFFFFF" cx="75.551" cy="12.777" r="0.65"/>
		<circle fill-rule="evenodd" clip-rule="evenodd" fill="#FFFFFF" cx="73.399" cy="12.777" r="0.65"/>
	</g>
</g>
<path fill-rule="evenodd" clip-rule="evenodd" fill="#00000F" d="M9.022,54.234h70.335c0.268,0,0.485-0.218,0.485-0.484l0,0
	c0-0.267-0.217-0.485-0.485-0.485H9.022c-0.267,0-0.485,0.219-0.485,0.485l0,0C8.537,54.017,8.755,54.234,9.022,54.234z"/>
<g>
	<path fill-rule="evenodd" clip-rule="evenodd" fill="#294D3C" d="M16.899,37.714c1.898-1.01,2.381,1.187,1.643,3.005
		c-0.738,1.817-4.526,7.934-4.725,10.359c-0.077,0.939-0.251,0.838-0.401,0.18C12.667,47.968,14.286,39.103,16.899,37.714z"/>
	<g>
		<path fill-rule="evenodd" clip-rule="evenodd" fill="#4A9075" d="M12.879,29.383c-2.177-1.96-3.539,0.783-3.162,3.431
			c0.376,2.647,3.367,11.98,2.828,15.253c-0.208,1.268,0.057,1.189,0.473,0.367C15.091,44.334,15.876,32.081,12.879,29.383z"/>
		<path fill-rule="evenodd" clip-rule="evenodd" fill="#1B7154" d="M12.499,48.975c0.047,0.121,0.15,0.062,0.29-0.141
			c2.269-7.56-1.266-18.853-1.277-18.889c-0.019-0.062-0.085-0.098-0.147-0.078c-0.062,0.02-0.097,0.086-0.078,0.147
			C11.297,30.051,14.88,41.498,12.499,48.975z"/>
	</g>
	<g>
		<path fill-rule="evenodd" clip-rule="evenodd" fill="#A6C86B" d="M8.124,35.662c-2.11-0.917-2.441,1.465-1.502,3.344
			c0.939,1.877,5.49,8.086,5.903,10.656c0.16,0.996,0.339,0.873,0.444,0.157C13.492,46.25,11.027,36.928,8.124,35.662z"/>
		<path fill-rule="evenodd" clip-rule="evenodd" fill="#5F9850" d="M12.717,50.352c0.065,0.079,0.127,0.009,0.18-0.178
			c-0.191-6.194-5.635-13.727-5.652-13.752c-0.03-0.041-0.088-0.051-0.13-0.021c-0.042,0.029-0.051,0.088-0.021,0.129
			C7.112,36.555,12.63,44.19,12.717,50.352z"/>
	</g>
	<g>
		<polygon fill-rule="evenodd" clip-rule="evenodd" fill="#3B405F" points="11.094,48.98 15.147,48.98 16.205,49.935 15.341,53.265 
			13.121,53.265 10.9,53.265 10.036,49.935 		"/>
		<path fill-rule="evenodd" clip-rule="evenodd" fill="#3B405F" d="M10.036,47.74h6.169c0.185,0,0.335,0.151,0.335,0.336V49.6
			c0,0.185-0.151,0.335-0.335,0.335h-6.169c-0.185,0-0.335-0.15-0.335-0.335v-1.523C9.7,47.892,9.851,47.74,10.036,47.74z"/>
		<polygon fill-rule="evenodd" clip-rule="evenodd" fill="#101537" points="16.205,49.935 16.027,50.618 10.214,50.618 
			10.036,49.935 		"/>
	</g>
</g>
<path fill-rule="evenodd" clip-rule="evenodd" fill="#9FB2D9" d="M30,21.234c0-0.074-0.06-0.134-0.134-0.134
	c-0.074,0-0.134,0.06-0.134,0.134v0.315h-0.315c-0.074,0-0.134,0.06-0.134,0.134s0.06,0.134,0.134,0.134h0.315v0.315
	c0,0.073,0.06,0.134,0.134,0.134c0.074,0,0.134-0.061,0.134-0.134v-0.315h0.314c0.075,0,0.134-0.06,0.134-0.134
	s-0.06-0.134-0.134-0.134H30V21.234z"/>
<path fill-rule="evenodd" clip-rule="evenodd" fill="#C0CDEA" d="M12.072,27.406L12.072,27.406L12.072,27.406z M12.478,25.86
	c0.141-0.142,0.337-0.229,0.553-0.229c0.215,0,0.411,0.088,0.552,0.229c0.141,0.141,0.229,0.336,0.229,0.552
	s-0.088,0.411-0.229,0.553c-0.141,0.141-0.336,0.229-0.552,0.229c-0.216,0-0.412-0.088-0.553-0.229
	c-0.141-0.142-0.228-0.337-0.228-0.553S12.337,26.001,12.478,25.86L12.478,25.86z M12.647,25.086
	c-0.108,0.031-0.211,0.075-0.306,0.13c-0.098,0.056-0.188,0.125-0.269,0.202c-0.016,0.016-0.039,0.018-0.057,0.008l-0.364-0.21
	l-0.002-0.001c-0.021-0.012-0.044-0.014-0.066-0.008c-0.022,0.006-0.042,0.02-0.055,0.042l-0.001,0.002l-0.255,0.442
	c-0.012,0.021-0.015,0.046-0.009,0.068c0.006,0.022,0.021,0.042,0.042,0.055l0.002,0.001l0.36,0.208
	c0.019,0.012,0.027,0.034,0.022,0.053l0,0c-0.013,0.054-0.023,0.11-0.03,0.165c-0.006,0.056-0.01,0.112-0.01,0.169
	c0,0.058,0.004,0.113,0.01,0.169c0.007,0.056,0.017,0.11,0.03,0.165c0.005,0.021-0.006,0.044-0.025,0.054l-0.359,0.208l0,0
	c-0.021,0.013-0.036,0.032-0.042,0.055c-0.006,0.022-0.003,0.047,0.009,0.068l0.257,0.445l0,0c0.012,0.02,0.033,0.035,0.055,0.041
	s0.047,0.003,0.068-0.009l0.003-0.002l0.36-0.208c0.019-0.01,0.042-0.006,0.057,0.008c0.081,0.078,0.171,0.146,0.269,0.202
	c0.095,0.055,0.199,0.1,0.308,0.131c0.021,0.006,0.035,0.025,0.035,0.046v0.419c0,0.024,0.01,0.048,0.026,0.063
	c0.016,0.017,0.039,0.026,0.063,0.026h0.514c0.024,0,0.046-0.01,0.063-0.026c0.017-0.016,0.027-0.039,0.027-0.063v-0.419
	c0-0.022,0.016-0.041,0.037-0.047c0.108-0.03,0.21-0.075,0.306-0.13c0.098-0.057,0.188-0.124,0.269-0.202
	c0.017-0.017,0.041-0.018,0.059-0.006l0.361,0.208c0.021,0.012,0.045,0.015,0.068,0.009s0.042-0.02,0.055-0.041l0.001-0.003
	l0.255-0.442l0,0c0.012-0.021,0.015-0.046,0.009-0.068s-0.021-0.042-0.042-0.055l-0.362-0.209c-0.019-0.012-0.027-0.033-0.022-0.053
	l0,0c0.014-0.055,0.023-0.109,0.03-0.165c0.007-0.056,0.01-0.111,0.01-0.169c0-0.057-0.003-0.113-0.01-0.169
	c-0.007-0.055-0.016-0.111-0.03-0.165c-0.006-0.021,0.005-0.044,0.025-0.054l0.36-0.208c0.021-0.013,0.036-0.032,0.042-0.055
	s0.003-0.047-0.009-0.068l-0.001-0.002l-0.255-0.442l0,0c-0.012-0.022-0.032-0.036-0.055-0.042s-0.047-0.004-0.068,0.009l0,0
	l-0.363,0.21c-0.019,0.011-0.043,0.007-0.059-0.009c-0.08-0.077-0.17-0.146-0.267-0.201c-0.096-0.056-0.199-0.101-0.308-0.131
	c-0.021-0.007-0.035-0.025-0.035-0.047V24.62c0-0.024-0.01-0.047-0.027-0.063c-0.016-0.017-0.039-0.026-0.063-0.026h-0.514
	c-0.025,0-0.047,0.01-0.063,0.026c-0.017,0.017-0.026,0.039-0.026,0.063v0.418C12.684,25.063,12.668,25.08,12.647,25.086z"/>
<path fill-rule="evenodd" clip-rule="evenodd" fill="#C0CDEA" d="M19.004,23.822c0.169-0.169,0.372-0.306,0.599-0.399
	c0.217-0.09,0.454-0.14,0.703-0.14s0.487,0.05,0.704,0.14c0.226,0.094,0.429,0.23,0.598,0.399s0.306,0.372,0.399,0.598
	c0.09,0.219,0.14,0.455,0.14,0.703c0,0.249-0.049,0.487-0.14,0.705c-0.093,0.225-0.23,0.428-0.399,0.597
	c-0.169,0.17-0.372,0.307-0.597,0.399c-0.217,0.091-0.455,0.141-0.704,0.141c-0.249,0-0.486-0.05-0.703-0.141
	c-0.227-0.093-0.429-0.229-0.599-0.399c-0.169-0.169-0.306-0.372-0.399-0.597c-0.09-0.218-0.14-0.456-0.14-0.705
	c0-0.248,0.05-0.484,0.14-0.703C18.698,24.194,18.834,23.991,19.004,23.822L19.004,23.822z M19.667,23.58
	c-0.204,0.084-0.388,0.209-0.542,0.363c-0.154,0.155-0.279,0.338-0.363,0.541c-0.081,0.197-0.126,0.413-0.126,0.639
	c0,0.228,0.045,0.443,0.126,0.64c0.084,0.204,0.208,0.389,0.363,0.542c0.154,0.154,0.338,0.278,0.542,0.362
	c0.197,0.083,0.412,0.127,0.639,0.127s0.442-0.044,0.638-0.127c0.205-0.084,0.388-0.208,0.543-0.362
	c0.154-0.153,0.278-0.338,0.362-0.542c0.082-0.196,0.127-0.412,0.127-0.64c0-0.226-0.045-0.441-0.127-0.639
	c-0.084-0.203-0.208-0.386-0.362-0.541c-0.155-0.154-0.338-0.279-0.542-0.363c-0.196-0.081-0.412-0.126-0.639-0.126
	C20.079,23.454,19.863,23.499,19.667,23.58L19.667,23.58z M19.463,22.227c-0.115,0.032-0.229,0.073-0.339,0.12
	c-0.112,0.048-0.222,0.102-0.326,0.163c-0.106,0.061-0.208,0.13-0.307,0.203c-0.099,0.074-0.192,0.154-0.28,0.239
	c-0.031,0.03-0.07,0.048-0.11,0.053c-0.041,0.005-0.083-0.003-0.12-0.024c-0.27-0.156-0.554-0.311-0.819-0.473
	c-0.013-0.008-0.026-0.012-0.04-0.013c-0.016-0.002-0.031,0-0.045,0.003c-0.016,0.005-0.03,0.012-0.042,0.021
	c-0.012,0.01-0.022,0.021-0.03,0.034c-0.197,0.298-0.395,0.683-0.577,0.998c-0.008,0.014-0.013,0.029-0.014,0.044
	c-0.002,0.015-0.001,0.031,0.003,0.046c0.004,0.016,0.011,0.029,0.02,0.042c0.009,0.011,0.021,0.022,0.034,0.029
	c0.244,0.161,0.556,0.321,0.814,0.471c0.038,0.021,0.065,0.055,0.082,0.091c0.005,0.013,0.009,0.026,0.012,0.041l0.017,0.004
	l-0.019,0.077c-0.015,0.06-0.028,0.119-0.039,0.179c-0.011,0.058-0.02,0.119-0.027,0.182c-0.007,0.062-0.013,0.123-0.017,0.184
	c-0.003,0.058-0.005,0.12-0.005,0.184c0,0.065,0.002,0.127,0.005,0.186c0.004,0.061,0.01,0.122,0.017,0.184
	c0.008,0.063,0.017,0.123,0.028,0.181c0.011,0.06,0.023,0.12,0.039,0.18c0.011,0.045,0.005,0.089-0.012,0.127
	s-0.048,0.07-0.087,0.091l-0.721,0.416l0,0l-0.085,0.049c-0.013,0.009-0.025,0.019-0.034,0.03c-0.009,0.012-0.016,0.026-0.02,0.041
	c-0.004,0.016-0.005,0.032-0.003,0.048c0.001,0.014,0.006,0.028,0.014,0.042l0.534,0.924l0,0l0.043,0.075
	c0.008,0.013,0.018,0.025,0.03,0.035c0.012,0.008,0.026,0.015,0.042,0.019c0.015,0.005,0.031,0.006,0.046,0.004
	c0.015-0.002,0.028-0.006,0.042-0.015c0.259-0.162,0.55-0.316,0.816-0.471c0.038-0.021,0.08-0.029,0.119-0.024
	c0.041,0.005,0.08,0.022,0.11,0.052l0,0.001c0.088,0.085,0.182,0.165,0.28,0.239c0.098,0.074,0.2,0.142,0.307,0.203
	c0.105,0.061,0.215,0.115,0.329,0.164c0.11,0.047,0.226,0.087,0.345,0.121c0.042,0.013,0.077,0.038,0.101,0.069
	c0.025,0.034,0.039,0.074,0.039,0.117v0.94c0,0.016,0.003,0.03,0.009,0.044c0.005,0.014,0.014,0.027,0.025,0.038
	c0.01,0.012,0.023,0.02,0.038,0.026c0.014,0.005,0.028,0.008,0.045,0.008h1.154c0.016,0,0.031-0.003,0.044-0.008
	c0.015-0.007,0.027-0.015,0.038-0.026c0.011-0.011,0.02-0.024,0.025-0.038c0.006-0.014,0.009-0.028,0.009-0.044v-0.94
	c0-0.046,0.016-0.087,0.042-0.119c0.027-0.034,0.064-0.059,0.106-0.069c0.115-0.033,0.229-0.074,0.339-0.121
	c0.113-0.048,0.221-0.102,0.326-0.162c0.106-0.062,0.209-0.129,0.307-0.203c0.099-0.074,0.192-0.154,0.28-0.239
	c0.033-0.032,0.074-0.05,0.116-0.054c0.043-0.003,0.087,0.008,0.124,0.031l0.805,0.465c0.013,0.009,0.028,0.013,0.043,0.015
	s0.031,0.001,0.046-0.004c0.015-0.004,0.03-0.011,0.042-0.019c0.012-0.01,0.022-0.022,0.03-0.035c0.191-0.334,0.386-0.666,0.578-1
	c0.007-0.013,0.012-0.027,0.014-0.042s0-0.031-0.003-0.047c-0.004-0.015-0.011-0.029-0.02-0.041c-0.009-0.012-0.02-0.022-0.034-0.03
	l-0.815-0.47c-0.038-0.021-0.065-0.054-0.081-0.091c-0.004-0.01-0.008-0.021-0.011-0.031l-0.021-0.005l0.021-0.086
	c0.015-0.06,0.028-0.12,0.039-0.179c0.011-0.059,0.02-0.119,0.027-0.182c0.008-0.062,0.014-0.123,0.017-0.184
	c0.003-0.059,0.005-0.12,0.005-0.186c0-0.063-0.002-0.125-0.005-0.184c-0.003-0.061-0.009-0.122-0.017-0.184
	c-0.008-0.063-0.017-0.125-0.027-0.183c-0.011-0.059-0.024-0.118-0.039-0.178c-0.011-0.045-0.005-0.089,0.013-0.128
	c0.018-0.037,0.048-0.069,0.086-0.09l0.807-0.466c0.013-0.007,0.024-0.019,0.034-0.029c0.009-0.012,0.016-0.026,0.02-0.042
	c0.004-0.015,0.005-0.031,0.003-0.046s-0.007-0.03-0.014-0.043c-0.197-0.292-0.395-0.685-0.578-0.999
	c-0.007-0.014-0.018-0.024-0.03-0.034c-0.012-0.009-0.026-0.016-0.042-0.021c-0.015-0.004-0.031-0.005-0.046-0.003
	c-0.014,0.001-0.029,0.007-0.043,0.015L22.63,22.98c-0.038,0.022-0.082,0.03-0.122,0.023c-0.041-0.005-0.08-0.023-0.11-0.054
	c-0.088-0.086-0.182-0.165-0.279-0.238c-0.097-0.073-0.199-0.142-0.306-0.202c-0.105-0.062-0.215-0.116-0.328-0.163
	c-0.111-0.048-0.226-0.089-0.345-0.122c-0.042-0.013-0.076-0.037-0.101-0.069C21.014,22.122,21,22.081,21,22.038l0-0.94
	c0-0.016-0.003-0.03-0.008-0.045c-0.006-0.014-0.015-0.026-0.026-0.037c-0.011-0.012-0.023-0.021-0.038-0.025
	c-0.013-0.006-0.028-0.009-0.044-0.009h-1.154c-0.017,0-0.031,0.003-0.045,0.009c-0.014,0.005-0.027,0.014-0.038,0.024
	c-0.021,0.022-0.034,0.051-0.034,0.083v0.94c0,0.045-0.015,0.087-0.041,0.119C19.543,22.191,19.506,22.217,19.463,22.227
	L19.463,22.227z M19.058,22.19c-0.119,0.05-0.234,0.107-0.345,0.173c-0.113,0.064-0.221,0.137-0.324,0.214
	c-0.104,0.077-0.203,0.162-0.296,0.252c-0.003,0.005-0.008,0.007-0.013,0.007c-0.004,0-0.009,0-0.014-0.002
	c-0.274-0.159-0.549-0.316-0.822-0.476c-0.033-0.018-0.067-0.028-0.103-0.032c-0.036-0.005-0.073-0.002-0.108,0.008
	s-0.07,0.027-0.101,0.049c-0.029,0.023-0.054,0.051-0.073,0.084c-0.198,0.322-0.387,0.671-0.577,1
	c-0.02,0.033-0.031,0.069-0.036,0.106c-0.004,0.037-0.002,0.075,0.007,0.112c0.01,0.036,0.027,0.069,0.05,0.1
	c0.022,0.03,0.05,0.055,0.084,0.074c0.262,0.162,0.546,0.315,0.814,0.471c0.004,0.003,0.008,0.006,0.009,0.011
	c0.002,0.004,0.003,0.01,0.001,0.015l-0.019,0.075h0.001c-0.008,0.037-0.015,0.075-0.022,0.112c-0.012,0.065-0.022,0.13-0.029,0.193
	c-0.007,0.062-0.014,0.126-0.018,0.192s-0.006,0.131-0.006,0.194c0,0.064,0.002,0.129,0.006,0.195
	c0.004,0.067,0.01,0.131,0.018,0.193c0.007,0.063,0.018,0.127,0.029,0.191c0.012,0.065,0.025,0.129,0.041,0.19
	c0.001,0.004,0.001,0.01-0.001,0.015c-0.002,0.005-0.006,0.009-0.01,0.012c-0.299,0.158-0.604,0.347-0.9,0.518l0.011,0.014
	l-0.009,0.011c-0.023,0.03-0.04,0.064-0.05,0.101c-0.009,0.037-0.012,0.074-0.007,0.112c0.005,0.037,0.017,0.073,0.036,0.106
	l0.62,1.074l0.012-0.008c0.006,0.007,0.012,0.012,0.019,0.017c0.03,0.022,0.065,0.039,0.101,0.05
	c0.036,0.01,0.074,0.012,0.112,0.008c0.036-0.005,0.07-0.017,0.104-0.035c0.271-0.143,0.551-0.317,0.818-0.472
	c0.004-0.003,0.009-0.004,0.013-0.003c0.005,0.001,0.01,0.003,0.014,0.007c0.093,0.09,0.192,0.174,0.295,0.253
	c0.104,0.077,0.211,0.148,0.324,0.213c0.111,0.065,0.228,0.123,0.347,0.174c0.119,0.051,0.24,0.094,0.365,0.129
	c0.005,0.002,0.009,0.005,0.012,0.009s0.005,0.008,0.004,0.014v0.94c0,0.039,0.007,0.075,0.022,0.109
	c0.015,0.035,0.036,0.067,0.063,0.094c0.026,0.026,0.058,0.047,0.093,0.063c0.033,0.014,0.07,0.021,0.109,0.021h1.154
	c0.038,0,0.075-0.008,0.109-0.021c0.035-0.016,0.066-0.036,0.093-0.063c0.026-0.026,0.047-0.059,0.062-0.094
	c0.014-0.034,0.022-0.07,0.022-0.109v-0.94c0-0.006,0.002-0.011,0.005-0.015c0.002-0.004,0.007-0.007,0.013-0.008l0.003-0.001
	c0.125-0.036,0.247-0.079,0.363-0.129c0.118-0.051,0.233-0.108,0.344-0.173c0.113-0.064,0.221-0.136,0.324-0.213
	c0.104-0.079,0.203-0.163,0.296-0.253c0.004-0.004,0.009-0.007,0.014-0.008c0.004,0,0.01,0.001,0.015,0.004l0.814,0.471
	c0.034,0.02,0.069,0.031,0.106,0.036c0.038,0.004,0.076,0.002,0.112-0.008c0.036-0.011,0.07-0.027,0.101-0.05
	c0.028-0.021,0.053-0.049,0.073-0.081c0.214-0.344,0.416-0.721,0.62-1.075l-0.011-0.006c0.002-0.01,0.004-0.019,0.005-0.028
	c0.005-0.037,0.002-0.074-0.007-0.111c-0.01-0.036-0.026-0.07-0.049-0.101c-0.022-0.028-0.051-0.054-0.084-0.073l-0.815-0.471
	c-0.004-0.002-0.007-0.007-0.009-0.01c-0.002-0.005-0.002-0.011-0.001-0.016l0.021-0.086h-0.001c0.007-0.033,0.014-0.068,0.02-0.103
	c0.012-0.064,0.021-0.129,0.03-0.192c0.007-0.063,0.013-0.126,0.017-0.193c0.004-0.066,0.006-0.131,0.006-0.195
	c0-0.063-0.002-0.128-0.006-0.193c-0.004-0.067-0.01-0.132-0.017-0.194c-0.008-0.063-0.018-0.127-0.03-0.192
	c-0.012-0.064-0.025-0.128-0.041-0.188c0-0.006,0-0.011,0.001-0.016s0.006-0.009,0.011-0.011l0.814-0.47
	c0.034-0.02,0.062-0.045,0.083-0.074c0.023-0.03,0.04-0.065,0.049-0.1c0.01-0.036,0.012-0.075,0.007-0.112
	c-0.005-0.036-0.016-0.071-0.034-0.104c-0.194-0.359-0.417-0.722-0.622-1.077l-0.012,0.007c-0.006-0.006-0.013-0.012-0.019-0.017
	c-0.03-0.021-0.064-0.039-0.101-0.049s-0.074-0.013-0.112-0.008c-0.037,0.005-0.073,0.017-0.106,0.035l-0.06,0.034v0.002
	l-0.755,0.437c-0.005,0.002-0.01,0.003-0.015,0.002c-0.005,0-0.01-0.002-0.013-0.007l-0.002-0.002
	c-0.092-0.089-0.191-0.173-0.295-0.25c-0.103-0.079-0.211-0.15-0.322-0.214c-0.111-0.065-0.228-0.123-0.347-0.174
	c-0.118-0.051-0.24-0.094-0.365-0.13c-0.005,0-0.009-0.004-0.012-0.008c-0.003-0.004-0.005-0.009-0.005-0.014v-0.94
	c0-0.038-0.008-0.075-0.022-0.109c-0.015-0.035-0.036-0.067-0.063-0.094s-0.058-0.047-0.093-0.063
	c-0.034-0.015-0.071-0.021-0.109-0.021h-1.154c-0.039,0-0.076,0.007-0.109,0.021c-0.035,0.016-0.067,0.036-0.094,0.063
	c-0.052,0.052-0.084,0.124-0.084,0.203v0.94c0,0.006-0.001,0.01-0.004,0.015c-0.003,0.003-0.008,0.007-0.013,0.007l-0.004,0.002
	C19.295,22.098,19.174,22.141,19.058,22.19z"/>
<path fill-rule="evenodd" clip-rule="evenodd" fill="#9FB2D9" d="M40.128,5.762c0-0.073-0.06-0.135-0.134-0.135
	S39.86,5.688,39.86,5.762v0.315h-0.315c-0.074,0-0.133,0.06-0.133,0.134s0.06,0.134,0.133,0.134h0.315V6.66
	c0,0.073,0.06,0.134,0.134,0.134s0.134-0.061,0.134-0.134V6.345h0.315c0.074,0,0.134-0.06,0.134-0.134s-0.06-0.134-0.134-0.134
	h-0.315V5.762z"/>
<path fill-rule="evenodd" clip-rule="evenodd" fill="#9FB2D9" d="M81.087,7.733c0-0.073-0.06-0.134-0.134-0.134
	c-0.074,0-0.135,0.061-0.135,0.134v0.315h-0.314c-0.074,0-0.134,0.06-0.134,0.134c0,0.073,0.06,0.134,0.134,0.134h0.314v0.315
	c0,0.073,0.061,0.134,0.135,0.134c0.074,0,0.134-0.061,0.134-0.134V8.316h0.315c0.074,0,0.134-0.061,0.134-0.134
	c0-0.074-0.06-0.134-0.134-0.134h-0.315V7.733z"/>
<path fill-rule="evenodd" clip-rule="evenodd" fill="#9FB2D9" d="M83.362,22.297c0-0.074-0.06-0.134-0.134-0.134
	c-0.074,0-0.134,0.06-0.134,0.134v0.315h-0.314c-0.074,0-0.134,0.06-0.134,0.134c0,0.073,0.06,0.134,0.134,0.134h0.314v0.314
	c0,0.074,0.061,0.134,0.134,0.134c0.074,0,0.134-0.06,0.134-0.134V22.88h0.316c0.073,0,0.134-0.061,0.134-0.134
	c0-0.074-0.061-0.134-0.134-0.134h-0.316V22.297z"/>
<path fill-rule="evenodd" clip-rule="evenodd" fill="#9FB2D9" d="M83.211,43.989c0-0.073-0.061-0.134-0.134-0.134
	c-0.075,0-0.134,0.061-0.134,0.134v0.315h-0.315c-0.074,0-0.134,0.06-0.134,0.134s0.061,0.134,0.134,0.134h0.315v0.315
	c0,0.073,0.059,0.134,0.134,0.134c0.074,0,0.134-0.061,0.134-0.134v-0.315h0.315c0.074,0,0.133-0.06,0.133-0.134
	s-0.06-0.134-0.133-0.134h-0.315V43.989z"/>
<path fill-rule="evenodd" clip-rule="evenodd" fill="#9FB2D9" d="M20.256,50.21c0-0.075-0.06-0.135-0.134-0.135
	c-0.074,0-0.133,0.06-0.133,0.135v0.314h-0.315c-0.074,0-0.134,0.06-0.134,0.134s0.06,0.135,0.134,0.135h0.315v0.314
	c0,0.074,0.06,0.134,0.133,0.134c0.074,0,0.134-0.06,0.134-0.134v-0.314h0.315c0.074,0,0.134-0.061,0.134-0.135
	s-0.06-0.134-0.134-0.134h-0.315V50.21z"/>
<path fill-rule="evenodd" clip-rule="evenodd" fill="#9FB2D9" d="M5.845,47.479c0-0.074-0.061-0.134-0.134-0.134
	c-0.074,0-0.134,0.06-0.134,0.134v0.315H5.262c-0.074,0-0.134,0.06-0.134,0.134s0.06,0.134,0.134,0.134h0.315v0.315
	c0,0.074,0.06,0.134,0.134,0.134c0.074,0,0.134-0.06,0.134-0.134v-0.315h0.314c0.074,0,0.134-0.06,0.134-0.134
	s-0.06-0.134-0.134-0.134H5.845V47.479z"/>
<path fill-rule="evenodd" clip-rule="evenodd" fill="#9FB2D9" d="M17.98,33.978c0-0.074-0.061-0.134-0.134-0.134
	c-0.074,0-0.134,0.06-0.134,0.134v0.314h-0.315c-0.074,0-0.134,0.061-0.134,0.134c0,0.074,0.06,0.135,0.134,0.135h0.315v0.314
	c0,0.074,0.06,0.134,0.134,0.134c0.073,0,0.134-0.06,0.134-0.134v-0.314h0.315c0.074,0,0.133-0.061,0.133-0.135
	c0-0.073-0.06-0.134-0.133-0.134H17.98V33.978z"/>
<path fill-rule="evenodd" clip-rule="evenodd" fill="#9FB2D9" d="M4.328,32.764c0-0.074-0.06-0.134-0.134-0.134
	s-0.134,0.06-0.134,0.134v0.315H3.744c-0.074,0-0.134,0.06-0.134,0.134s0.06,0.134,0.134,0.134h0.315v0.315
	c0,0.073,0.06,0.134,0.134,0.134s0.134-0.061,0.134-0.134v-0.315h0.315c0.074,0,0.134-0.06,0.134-0.134s-0.06-0.134-0.134-0.134
	H4.328V32.764z"/>
<path fill-rule="evenodd" clip-rule="evenodd" fill="#C0CDEA" d="M33.364,11.253L33.364,11.253L33.364,11.253z M33.771,9.707
	c0.142-0.142,0.337-0.229,0.553-0.229c0.215,0,0.411,0.087,0.552,0.229c0.141,0.141,0.229,0.336,0.229,0.552
	s-0.088,0.411-0.229,0.553c-0.142,0.142-0.337,0.229-0.552,0.229c-0.216,0-0.411-0.087-0.553-0.229
	c-0.141-0.142-0.229-0.337-0.229-0.553S33.63,9.848,33.771,9.707L33.771,9.707z M33.939,8.933c-0.108,0.031-0.211,0.075-0.306,0.13
	c-0.099,0.057-0.188,0.125-0.27,0.203c-0.016,0.015-0.039,0.018-0.057,0.007l-0.363-0.21l-0.002-0.001
	c-0.021-0.012-0.044-0.013-0.066-0.007c-0.023,0.005-0.042,0.02-0.055,0.041L32.82,9.098L32.564,9.54
	c-0.012,0.022-0.015,0.046-0.009,0.069c0.006,0.022,0.021,0.042,0.042,0.054L32.6,9.665l0.36,0.207
	c0.019,0.012,0.027,0.033,0.022,0.054h0c-0.014,0.053-0.023,0.108-0.031,0.165c-0.007,0.056-0.01,0.111-0.01,0.168
	c0,0.058,0.003,0.114,0.01,0.168c0.007,0.057,0.017,0.112,0.031,0.165c0.005,0.023-0.006,0.046-0.025,0.055l-0.36,0.208v0.001
	c-0.021,0.012-0.037,0.031-0.042,0.054s-0.003,0.047,0.009,0.068l0.257,0.444l0,0c0.012,0.022,0.032,0.037,0.055,0.043
	c0.022,0.006,0.047,0.003,0.068-0.01h0.002l0.361-0.209c0.019-0.012,0.042-0.008,0.057,0.007c0.081,0.078,0.171,0.146,0.269,0.202
	c0.096,0.056,0.199,0.1,0.308,0.132c0.021,0.006,0.035,0.024,0.035,0.045v0.42c0,0.024,0.01,0.047,0.026,0.063
	c0.016,0.016,0.038,0.026,0.063,0.026h0.514c0.024,0,0.047-0.011,0.063-0.026c0.016-0.017,0.026-0.039,0.026-0.063v-0.42
	c0-0.022,0.016-0.041,0.037-0.046c0.108-0.031,0.211-0.076,0.306-0.131c0.098-0.057,0.188-0.124,0.269-0.202
	c0.017-0.016,0.042-0.018,0.06-0.006l0.361,0.208c0.021,0.013,0.045,0.016,0.068,0.01s0.042-0.021,0.055-0.043l0.001-0.002
	l0.255-0.442l0,0c0.013-0.021,0.015-0.046,0.009-0.068c-0.006-0.022-0.02-0.042-0.042-0.054l-0.362-0.21
	c-0.019-0.011-0.028-0.032-0.023-0.054l0,0c0.013-0.053,0.023-0.108,0.03-0.165c0.006-0.054,0.01-0.11,0.01-0.168
	c0-0.057-0.004-0.112-0.01-0.168c-0.007-0.057-0.017-0.112-0.03-0.165c-0.005-0.022,0.006-0.045,0.025-0.054l0.36-0.209
	c0.021-0.012,0.036-0.031,0.042-0.054c0.006-0.023,0.004-0.047-0.009-0.068L36.08,9.538l-0.255-0.442l0,0
	c-0.013-0.021-0.033-0.036-0.055-0.041c-0.022-0.006-0.047-0.004-0.068,0.008l0,0l-0.363,0.21c-0.019,0.011-0.043,0.007-0.058-0.008
	c-0.081-0.078-0.17-0.146-0.268-0.202c-0.096-0.055-0.199-0.1-0.308-0.131c-0.021-0.006-0.035-0.025-0.035-0.045V8.468
	c0-0.025-0.01-0.048-0.026-0.064c-0.017-0.016-0.039-0.026-0.063-0.026h-0.514c-0.025,0-0.047,0.011-0.063,0.026
	c-0.017,0.017-0.026,0.039-0.026,0.064v0.419C33.977,8.909,33.96,8.928,33.939,8.933z"/>
<path fill-rule="evenodd" clip-rule="evenodd" fill="#C0CDEA" d="M75.992,20.354L75.992,20.354L75.992,20.354z M76.397,18.809
	c0.142-0.141,0.337-0.229,0.553-0.229c0.216,0,0.411,0.088,0.553,0.229c0.141,0.142,0.229,0.338,0.229,0.553
	s-0.087,0.41-0.229,0.553c-0.142,0.141-0.337,0.229-0.553,0.229c-0.215,0-0.411-0.088-0.553-0.229
	c-0.141-0.143-0.228-0.338-0.228-0.553S76.256,18.95,76.397,18.809L76.397,18.809z M76.566,18.034
	c-0.108,0.032-0.211,0.075-0.306,0.131c-0.098,0.057-0.188,0.124-0.269,0.202c-0.016,0.016-0.039,0.018-0.057,0.008l-0.363-0.21
	l-0.002-0.002c-0.021-0.012-0.044-0.013-0.066-0.007s-0.042,0.021-0.055,0.041L75.447,18.2l-0.255,0.442
	c-0.012,0.021-0.015,0.046-0.008,0.068c0.005,0.022,0.021,0.043,0.042,0.055l0.002,0.001l0.36,0.208
	c0.019,0.011,0.027,0.032,0.022,0.054l0,0c-0.014,0.053-0.023,0.108-0.031,0.165c-0.006,0.055-0.01,0.111-0.01,0.168
	s0.004,0.113,0.01,0.168c0.007,0.057,0.017,0.111,0.031,0.165c0.005,0.022-0.005,0.044-0.025,0.055l-0.36,0.208l0,0
	c-0.021,0.013-0.036,0.032-0.042,0.056c-0.006,0.021-0.004,0.046,0.008,0.067l0.257,0.444l0,0c0.012,0.021,0.033,0.036,0.055,0.042
	c0.022,0.006,0.047,0.003,0.068-0.009l0.003-0.001l0.36-0.209c0.019-0.011,0.042-0.008,0.057,0.007
	c0.081,0.078,0.17,0.146,0.268,0.202c0.096,0.056,0.2,0.101,0.308,0.132c0.021,0.005,0.035,0.024,0.035,0.046v0.419
	c0,0.024,0.01,0.047,0.026,0.063c0.016,0.017,0.039,0.027,0.063,0.027h0.514c0.024,0,0.046-0.011,0.063-0.027
	c0.016-0.016,0.026-0.038,0.026-0.063v-0.419c0-0.023,0.016-0.042,0.037-0.046c0.108-0.032,0.211-0.076,0.306-0.132
	c0.098-0.056,0.188-0.124,0.27-0.202c0.016-0.016,0.041-0.018,0.059-0.005l0.36,0.208c0.021,0.013,0.046,0.015,0.068,0.009
	s0.042-0.021,0.055-0.042l0.001-0.003l0.255-0.441l0,0c0.013-0.021,0.015-0.046,0.009-0.067c-0.006-0.023-0.02-0.043-0.042-0.056
	l-0.362-0.21c-0.02-0.011-0.028-0.032-0.023-0.053l0,0c0.013-0.054,0.023-0.108,0.03-0.165c0.007-0.055,0.01-0.111,0.01-0.168
	s-0.003-0.114-0.01-0.168c-0.006-0.057-0.017-0.112-0.03-0.165c-0.006-0.022,0.005-0.045,0.025-0.055l0.36-0.208
	c0.021-0.012,0.036-0.032,0.042-0.055c0.006-0.022,0.004-0.047-0.009-0.067l-0.001-0.004l-0.255-0.442l0,0
	c-0.012-0.021-0.032-0.035-0.055-0.041s-0.047-0.004-0.068,0.009l0,0l-0.363,0.21c-0.02,0.011-0.043,0.007-0.058-0.009
	c-0.081-0.077-0.17-0.145-0.268-0.201c-0.096-0.056-0.199-0.1-0.308-0.131c-0.021-0.006-0.035-0.025-0.035-0.047v-0.418
	c0-0.025-0.01-0.047-0.026-0.063c-0.017-0.016-0.039-0.027-0.063-0.027h-0.514c-0.025,0-0.047,0.012-0.063,0.027
	c-0.016,0.017-0.026,0.038-0.026,0.063v0.418C76.604,18.01,76.588,18.029,76.566,18.034z"/>
<path fill-rule="evenodd" clip-rule="evenodd" fill="#C0CDEA" d="M58.281,7.521L58.281,7.521L58.281,7.521z M58.687,5.976
	c0.141-0.141,0.337-0.229,0.553-0.229c0.215,0,0.411,0.088,0.552,0.229c0.142,0.143,0.229,0.337,0.229,0.554
	c0,0.215-0.087,0.41-0.229,0.551C59.65,7.223,59.455,7.31,59.24,7.31c-0.216,0-0.412-0.087-0.553-0.229
	c-0.142-0.141-0.229-0.336-0.229-0.551C58.458,6.313,58.545,6.118,58.687,5.976L58.687,5.976z M58.856,5.202
	c-0.108,0.03-0.211,0.075-0.306,0.13c-0.098,0.057-0.188,0.125-0.269,0.202c-0.016,0.016-0.04,0.018-0.057,0.007l-0.363-0.209
	l-0.002-0.001c-0.021-0.012-0.044-0.014-0.066-0.008c-0.022,0.006-0.042,0.021-0.055,0.041l-0.002,0.003L57.481,5.81
	c-0.012,0.021-0.014,0.046-0.008,0.069c0.006,0.021,0.02,0.041,0.042,0.054l0.002,0.002l0.359,0.208
	c0.02,0.011,0.028,0.032,0.023,0.053l0,0c-0.013,0.053-0.023,0.108-0.03,0.165c-0.006,0.055-0.01,0.11-0.01,0.169
	c0,0.056,0.004,0.112,0.01,0.167c0.007,0.057,0.017,0.112,0.03,0.165c0.005,0.022-0.006,0.045-0.025,0.055l-0.36,0.208l0,0
	c-0.021,0.012-0.036,0.033-0.042,0.055c-0.006,0.022-0.004,0.048,0.008,0.068l0.257,0.444l0,0c0.013,0.021,0.032,0.036,0.055,0.042
	c0.022,0.006,0.046,0.004,0.068-0.009l0.003-0.002l0.36-0.207c0.019-0.012,0.042-0.008,0.057,0.006
	c0.081,0.078,0.171,0.146,0.269,0.203c0.096,0.056,0.199,0.101,0.308,0.131c0.021,0.006,0.035,0.025,0.035,0.046V8.32
	c0,0.024,0.01,0.047,0.026,0.063c0.017,0.016,0.039,0.026,0.063,0.026h0.514c0.024,0,0.047-0.011,0.063-0.026
	c0.017-0.017,0.026-0.039,0.026-0.063V7.901c0-0.022,0.016-0.042,0.037-0.046c0.108-0.031,0.211-0.075,0.307-0.131
	c0.098-0.057,0.188-0.125,0.268-0.203c0.017-0.016,0.042-0.017,0.06-0.004l0.361,0.207c0.021,0.013,0.046,0.015,0.068,0.009
	c0.022-0.006,0.042-0.021,0.055-0.042l0.001-0.002l0.256-0.443l0,0c0.012-0.021,0.015-0.045,0.008-0.067
	C61,7.157,60.986,7.136,60.965,7.124l-0.362-0.209c-0.02-0.011-0.027-0.033-0.023-0.054l0,0c0.013-0.053,0.023-0.108,0.03-0.165
	c0.008-0.055,0.011-0.11,0.011-0.167c0-0.059-0.003-0.114-0.011-0.169c-0.006-0.057-0.017-0.112-0.03-0.165
	c-0.005-0.022,0.005-0.045,0.026-0.055l0.359-0.208C60.986,5.92,61,5.9,61.006,5.879c0.006-0.023,0.003-0.048-0.008-0.069
	l-0.002-0.002l-0.255-0.443l0,0c-0.013-0.021-0.033-0.035-0.055-0.041c-0.022-0.006-0.046-0.004-0.068,0.009l0,0l-0.363,0.209
	c-0.02,0.012-0.043,0.008-0.059-0.008c-0.08-0.076-0.17-0.145-0.267-0.201c-0.096-0.055-0.2-0.1-0.309-0.131
	c-0.021-0.006-0.035-0.025-0.035-0.046V4.736c0-0.025-0.01-0.048-0.026-0.063c-0.016-0.018-0.039-0.027-0.063-0.027h-0.514
	c-0.024,0-0.047,0.01-0.063,0.027c-0.016,0.015-0.026,0.037-0.026,0.063v0.419C58.893,5.178,58.877,5.197,58.856,5.202z"/>
<g>
	<path fill-rule="evenodd" clip-rule="evenodd" fill="#D64C47" d="M77.269,52.293c0,0-0.142-0.249-0.351-0.137
		c-0.209,0.111-0.247,0.098-0.443-0.033c-0.196-0.132-0.607,0.02-0.607,0.02s-1.194,0.412-1.348,0.479
		c-0.154,0.064-0.277,0.189-0.277,0.549l0.166,0.178h2.817c0,0,0.141-0.125,0.147-0.23C77.379,53.014,77.379,52.45,77.269,52.293z"
		/>
	<path fill-rule="evenodd" clip-rule="evenodd" fill="#FFFFFF" d="M74.236,53.125h3.134c0.054,0,0.099,0.044,0.099,0.098v0.144
		c0,0.055-0.044,0.1-0.099,0.1h-3.134c-0.054,0-0.098-0.045-0.098-0.1v-0.144C74.138,53.169,74.182,53.125,74.236,53.125z"/>
	<path fill-rule="evenodd" clip-rule="evenodd" fill="#D64C47" d="M70.346,52.23c0,0-0.149-0.264-0.37-0.146
		c-0.22,0.118-0.259,0.104-0.466-0.034c-0.208-0.138-0.641,0.021-0.641,0.021s-1.259,0.435-1.421,0.505
		c-0.162,0.069-0.292,0.2-0.292,0.579l0.175,0.188h2.969c0,0,0.149-0.132,0.156-0.242C70.463,52.988,70.463,52.396,70.346,52.23z"/>
	<path fill-rule="evenodd" clip-rule="evenodd" fill="#FFFFFF" d="M67.15,53.106h3.303c0.057,0,0.104,0.047,0.104,0.104v0.151
		c0,0.058-0.047,0.104-0.104,0.104H67.15c-0.057,0-0.104-0.047-0.104-0.104V53.21C67.047,53.153,67.093,53.106,67.15,53.106z"/>
	<path fill-rule="evenodd" clip-rule="evenodd" fill="#F5AC83" d="M64.583,24.752c-0.176-0.199-0.216-0.416-0.216-0.559
		c0-0.142,0.051-0.38-0.04-0.693c-0.091-0.313-0.193-0.21-0.221-0.022c-0.029,0.187-0.114,0.426-0.114,0.426s-0.478-0.397-0.66-0.58
		c-0.182-0.183-0.375-0.164-0.364-0.017c0.011,0.148,0.068,0.148,0.011,0.171c-0.056,0.022-0.107,0.057-0.085,0.158
		c0.023,0.103,0.023,0.103,0.023,0.103s-0.125,0.018-0.131,0.114c-0.005,0.098,0.08,0.222,0.08,0.222s-0.142,0.075-0.114,0.142
		c0.029,0.069,0.358,0.438,0.592,0.592c0.233,0.154,0.614,0.342,0.728,0.489C64.185,25.445,64.583,24.752,64.583,24.752z"/>
	<path fill-rule="evenodd" clip-rule="evenodd" fill="#00000F" d="M71.869,33.211c-0.226-0.057-0.434-0.117-0.509,0.168
		c-0.789,3-1.274,5.674-1.516,8.704c-0.083,1.257,0.993,1.559,1.413,1.334c1.259-0.67,3.789-8.627,3.795-8.673
		C75.235,33.479,71.869,33.211,71.869,33.211z"/>
	<path fill-rule="evenodd" clip-rule="evenodd" fill="#0D1431" d="M72.796,33.689c-0.232,0.016-0.448,0.023-0.431,0.318
		c0.186,3.097,0.558,5.788,1.272,8.742c0.313,1.221,1.429,1.172,1.759,0.828c0.987-1.028,0.912-9.378,0.903-9.423
		C76.079,32.895,72.796,33.689,72.796,33.689z"/>
	<path fill-rule="evenodd" clip-rule="evenodd" fill="#00000F" d="M69.763,42.751c-0.071,2.146,0.041,6.771-0.57,9.352
		c0.185,0.225,0.775,0.389,1.035,0.154c0.229-0.206,1.436-6.119,1.672-9.408c0,0,0.079-1.174-0.353-1.585
		C71.125,40.863,69.847,40.896,69.763,42.751z"/>
	<path fill-rule="evenodd" clip-rule="evenodd" fill="#0D1431" d="M73.769,43.411c0.57,1.956,1.992,5.98,2.328,8.644
		c0.1,0.788,0.999,0.238,1.026,0.191c0.153-0.268-0.492-6.209-1.293-9.408c0,0-0.291-1.14-0.829-1.396
		C74.475,41.192,73.27,41.622,73.769,43.411z"/>
	<path fill-rule="evenodd" clip-rule="evenodd" fill="#E5C25E" d="M76.317,34.253c-0.725,1.728-4.928,1.5-5.295,0.784l0,0l0,0
		c-0.123-0.24-0.052-0.596,0.004-0.914c0.709-4.076-1.047-9.028,1.804-10.434l0.391-0.193c0.028-0.155,0.002-0.319-0.062-0.485
		c0.32-0.056,0.598,0.401,0.941,0.415l0.329-0.124c2.295,1.211,1.081,4.396,1.437,7.309C76.02,31.874,76.646,33.469,76.317,34.253z"
		/>
	<path fill-rule="evenodd" clip-rule="evenodd" fill="#E5C25E" d="M73.482,27.373c-1.906,0.448-4.132,1.041-4.558,0.948
		c-0.549-0.12-4.34-2.128-5.016-2.979c-0.011-0.014,0.435-0.574,0.493-0.649c0.112-0.146,0.028-0.239,0.129-0.078
		c0.101,0.159,3.722,1.466,4.413,1.795c0.691,0.328,3.254-1.314,3.751-1.505C75.001,24.022,76.303,26.71,73.482,27.373z"/>
	<path fill-rule="evenodd" clip-rule="evenodd" fill="#F5AC83" d="M70.36,19.683l-0.137,0.825c0,0,0.676,2.073,1.021,2.426
		c0.344,0.353,0.627,0.475,1.113,0.288c0.485-0.187,0.334-0.978,0.332-1.217C72.686,21.766,71.991,19.683,70.36,19.683z"/>
	<path fill-rule="evenodd" clip-rule="evenodd" fill="#F5AC83" d="M72.229,22.197l-0.474,0.293c0,0,0.818,1.533,0.919,1.576
		c0.1,0.043,1.772-0.722,1.612-0.935c-0.161-0.212-0.363-0.387-0.481-0.629c-0.119-0.241-0.236-0.58-0.236-0.58L72.229,22.197z"/>
	<path fill-rule="evenodd" clip-rule="evenodd" fill="#FFFFFF" d="M72.512,23.84c0,0-0.07,0.086-0.048,0.175
		c0.014,0.06,0.047,0.223,0.068,0.326c0.011,0.053,0.019,0.09,0.019,0.09s0.136,0.11,0.586-0.116
		c0.449-0.228,1.261-0.746,1.308-0.835s-0.18-0.465-0.18-0.465S73.136,23.657,72.512,23.84z"/>
	<path fill-rule="evenodd" clip-rule="evenodd" fill="#070725" d="M70.223,20.508c0,0,0.22-0.497,0.6-0.146
		c0.381,0.353,0.275,1.071,0.324,1.153c0.049,0.083,0.092-0.471,0.371-0.448c0.279,0.021,0.153,0.724,0.117,0.987
		c-0.035,0.264,0.367,0.528,0.649,0.681s1.392-0.104,1.521-0.232c0.128-0.13,0.564-2.004,0.058-3.289
		c-0.506-1.285-1.837-1.358-2.636-0.811c-0.705,0.484-0.725-0.169-1.286,0.381C69.455,19.262,69.831,20.225,70.223,20.508z"/>
	<path fill-rule="evenodd" clip-rule="evenodd" fill="#070725" d="M70.232,20.369c0.014,0.005,0.021,0.02,0.017,0.034
		c-0.005,0.015-0.021,0.021-0.035,0.017c-0.002-0.001-0.737-0.264-0.669-1.223c0.001-0.015,0.014-0.025,0.028-0.024
		c0.016,0.001,0.026,0.015,0.025,0.028C69.534,20.12,70.23,20.369,70.232,20.369z"/>
	<path fill-rule="evenodd" clip-rule="evenodd" fill="#070725" d="M71.846,18.365c0.01-0.011,0.027-0.011,0.038-0.001
		c0.011,0.011,0.011,0.027,0.001,0.038c-0.001,0.002-0.54,0.567-1.389,0.116c-0.013-0.007-0.018-0.023-0.011-0.036
		c0.006-0.013,0.023-0.019,0.036-0.012C71.334,18.903,71.845,18.367,71.846,18.365z"/>
	<path fill-rule="evenodd" clip-rule="evenodd" fill="#F5AC83" d="M70.238,20.161c0,0-0.037,0.848-0.03,1.005
		c0.006,0.155,0.139,0.262,0.173,0.478c0.035,0.216-0.015,0.667-0.005,0.779c0.01,0.113,0.265,0.05,0.331,0.111
		c0.008,0.006,0.548,0.698,0.555,0.713c0.196,0.475,0.666,0.102,0.92-0.042l-0.744-0.893l-0.656-2.577
		C70.516,19.831,70.302,19.97,70.238,20.161z"/>
</g>
<path fill-rule="evenodd" clip-rule="evenodd" fill="#ED7C67" d="M41.365,35.228c0.018,0.437,0.064,0.584,0.245,0.753
	c0.252,0.236-0.122,0.455-0.075,0.706c0.018,0.1,0.15,0.014,0.238-0.058c0.089-0.07-0.099,0.217,0.024,0.17
	c0.122-0.047,0.221-0.165,0.221-0.165s-0.04,0.216,0.042,0.188c0.384-0.136,0.232-1.135,0.068-1.377
	c-0.013-0.022-0.444-0.574-0.66-0.716c-0.13-0.084-0.093,0.212-0.093,0.212L41.365,35.228z"/>
<path fill-rule="evenodd" clip-rule="evenodd" fill="#FCB187" d="M41.454,34.439c0.653,0.863,0.817,0.771,0.792,1.378
	c-0.005,0.159-0.005,0.271-0.002,0.351c0.008,0.373-0.32,0.109-0.3-0.397c0,0-0.397-0.209-0.422-0.713
	C41.5,34.557,41.454,34.439,41.454,34.439L41.454,34.439z"/>
<path fill-rule="evenodd" clip-rule="evenodd" fill="#E1E8F6" d="M45.149,25.881h4.048c-0.421,0.554-1.022,0.898-1.662,1.011
	c-0.671,0.115-1.384-0.026-1.984-0.447c-0.217-0.154-0.404-0.336-0.561-0.535C45.039,25.892,45.094,25.881,45.149,25.881
	L45.149,25.881z"/>
<path fill-rule="evenodd" clip-rule="evenodd" fill="#070725" d="M39.941,23.933c0,0-0.523,0.873,0.236,1.701
	c1.27,1.384,1.636,3.777-0.673,3.184c-2.307-0.592-2-2.938-1.795-3.325c0.206-0.386,0.058-1.834,0.541-1.911
	C38.731,23.504,39.941,23.933,39.941,23.933L39.941,23.933z"/>
<path fill-rule="evenodd" clip-rule="evenodd" fill="#070725" d="M34.458,51.723l-0.121,0.105c0,0,0.149,1.216,0.062,1.669h0.254
	l0.186-1.298L34.458,51.723z"/>
<path fill-rule="evenodd" clip-rule="evenodd" fill="#070725" d="M29.43,50.998l-0.122,0.147c0,0,0.15,1.714,0.063,2.352h0.252
	l0.186-1.828L29.43,50.998z"/>
<path fill-rule="evenodd" clip-rule="evenodd" fill="#ED7C67" d="M37.257,38.86c0,0-1.578,3.604-1.85,4.109
	c-0.273,0.505-2.667,4.128-3.485,5.918c-0.817,1.79-0.856,1.762-0.848,2.258c0.011,0.497,0.194,1.224,0.206,1.283
	c0.009,0.058,0.117,0.64,0.04,0.66c-0.08,0.02-0.779-0.695-0.779-0.695s-0.371-0.483-0.439-0.61
	c-0.066-0.126-0.481-0.449-0.481-0.449l-0.307-0.683c0,0,0.563-0.185,0.923-0.788c0.359-0.604,3-6.914,3.293-7.362
	c0.292-0.448,1.236-1.761,1.519-2.315c0.282-0.557,0.242-2.504,0.242-2.504L37.257,38.86z"/>
<path fill-rule="evenodd" clip-rule="evenodd" fill="#FCB187" d="M36.498,38.082c0,0-0.429,3.367-0.468,3.739
	c-0.038,0.369-0.682,8.254-0.603,8.683c0.077,0.428,0.662,1.858,1.042,2.221c0.379,0.359-0.197,0.437-0.331,0.445
	c-0.137,0.011-1.627-1.585-1.685-1.664c-0.06-0.077-0.06-0.175-0.06-0.175s0.262-0.925,0.253-1.079
	c-0.008-0.157-0.388-6.152-0.311-6.758c0.077-0.603,0.194-1.652,0.214-1.966c0.02-0.313-0.157-4.089-0.117-4.322
	C34.473,36.975,36.498,38.082,36.498,38.082L36.498,38.082z"/>
<path fill-rule="evenodd" clip-rule="evenodd" fill="#0D1431" d="M38.553,30.922l-0.363,0.955c0,0,0.128,0.351,0.049,1.091
	c-0.077,0.739-0.563,5.08-0.291,7.417c0,0-3.426,1.713-6.698-1.382c0,0,1.13-1.364,1.596-3.135c0.468-1.772,1.772-5.103,3.154-5.579
	C37.383,29.813,38.553,30.922,38.553,30.922L38.553,30.922z"/>
<path fill-rule="evenodd" clip-rule="evenodd" fill="#B72E2E" d="M38.844,26.396c0,0-0.621,0.643-0.729,1.301
	c-0.108,0.655,0.601,4.214,0.629,4.416c0.031,0.201,2.432,3.374,2.432,3.374l0.526-0.802c0,0-1.949-2.739-2.022-3.112
	c-0.073-0.373,0.031-2.797,0.031-2.797l-0.088-1.681L38.844,26.396z"/>
<path fill-rule="evenodd" clip-rule="evenodd" fill="#FFFFFF" stroke="#1E1F31" stroke-width="0.5669" stroke-miterlimit="10" d="
	M38.716,23.404l0.13,0.809c0,0-0.513,0.778-0.305,1.414c0.208,0.637-1.281-0.361-1.689-0.823c-0.408-0.461-0.241-0.699-0.241-0.699
	s0.711-0.619,0.876-1.287C37.657,22.151,38.716,23.404,38.716,23.404L38.716,23.404z"/>
<path fill-rule="evenodd" clip-rule="evenodd" fill="#ED7C67" d="M39.188,25.382c-0.009-0.077-0.018-0.574-0.018-0.574
	s0.078-0.544,0.312-0.642s-0.618-0.546-0.618-0.546s-0.852-0.154-0.947-0.041c-0.095,0.11-0.205,0.648-0.205,0.648
	s0.08,0.865,0.216,0.884C38.067,25.129,39.188,25.382,39.188,25.382L39.188,25.382z"/>
<path fill-rule="evenodd" clip-rule="evenodd" fill="#FCB187" d="M40.027,20.802c0.161,0.119,0.378,0.261,0.453,0.618
	c0.081,0.401,0.006,1.037,0.081,1.322c0.104,0.391,0.212,0.448,0.19,0.525c-0.02,0.068-0.13,0.055-0.251,0.126
	c-0.068,0.041-0.07,0.22-0.093,0.296c-0.095,0.309,0.031,0.702-0.816,0.606c-0.649-0.072-1.217-0.342-1.674-0.717
	c-0.457-0.376-0.55-1.654-0.163-2.009C38.138,21.214,38.994,20.23,40.027,20.802L40.027,20.802z"/>
<path fill-rule="evenodd" clip-rule="evenodd" fill="#DB4A46" d="M37.712,24.228c0,0-1.563,1.186-1.768,2.207
	c-0.208,1.022,0.417,2.783-0.38,3.952c0,0-0.161,0.186-0.166,0.234c-0.005,0.048,1.293,1.801,2.872,1.704
	c0,0,0.057-0.04,0.062-0.104c0.007-0.062,1.062-2.251,1.373-2.643c0.312-0.388,0.574-0.992,0.614-1.304
	c0.04-0.312-0.88-1.69-0.977-2.101c-0.098-0.408-0.171-1.366-0.171-1.366S38.392,24.926,37.712,24.228L37.712,24.228z"/>
<path fill-rule="evenodd" clip-rule="evenodd" fill="#FFFFFF" d="M39.171,24.808c0,0-0.578,0.089-1.172-0.332
	c-0.106,0.022-0.179,0.034-0.192,0.032c-0.059-0.006-0.847,0.598,0.394,0.934c0.821,0.221,0.967,0.278,1.033,0.133L39.171,24.808z"
	/>
<path fill-rule="evenodd" clip-rule="evenodd" fill="#B72E2E" d="M40.333,30.813c0,0-1.817-3.583-2.075-4.039
	c-0.261-0.455-0.929-0.63-1.278-0.397c-0.351,0.231-0.152,1.381,0.466,2.293c0.618,0.913,2.228,2.91,2.393,2.976
	c0.165,0.066,0.41,0.022,0.485-0.117C40.398,31.391,40.409,30.945,40.333,30.813L40.333,30.813z"/>
<path fill-rule="evenodd" clip-rule="evenodd" fill="#B72E2E" d="M43.782,28.402c-0.792,0.474-3.623,2.117-3.834,2.249
	c-0.245,0.152-0.519,0.681-0.148,0.967c0.371,0.288,1.06-0.086,1.395-0.335c0.292-0.214,2.205-1.841,2.772-2.318
	C43.807,28.793,43.776,28.565,43.782,28.402L43.782,28.402z"/>
<path fill-rule="evenodd" clip-rule="evenodd" fill="#070725" d="M40.478,21.401c0,0,0.346-0.979-0.139-1.336
	c-0.535-0.394-2.73-1.162-2.795,0.12c0,0-0.706-0.014-0.905,0.567c-0.199,0.58,0.113,1.231-0.772,1.784
	c-0.885,0.551-2.357,2.011-1.744,3.515c0.611,1.503,2.563,1.918,3.733,1.063c1.17-0.856,0.962-1.607,0.92-2.053
	c-0.044-0.444,0.335-0.863,0.759-1.184c0.424-0.322,0.481-0.748,0.192-1.175C39.436,22.276,39.889,21.574,40.478,21.401
	L40.478,21.401z"/>
<path fill-rule="evenodd" clip-rule="evenodd" fill="#1F223F" d="M31.279,52.429c0,0,0.166,0.028,0.254,0.07
	c0.086,0.042,0.607,0.487,0.667,0.534c0.057,0.045,0.227,0.464-0.226,0.464c-0.453,0-0.651,0-0.816,0
	c-0.166,0-0.658-0.622-0.837-0.872c-0.181-0.252-1.042-1.34-1.091-1.412c-0.048-0.073-0.124-0.578,0.082-0.562
	c0,0,1.556,1.934,1.589,1.972c0.036,0.035,0.098,0.074,0.239,0.104C31.283,52.755,31.279,52.609,31.279,52.429L31.279,52.429z"/>
<path fill-rule="evenodd" clip-rule="evenodd" fill="#1F223F" d="M36.383,52.632c0,0,0.167-0.007,0.256,0.017
	c0.086,0.025,0.607,0.367,0.667,0.4c0.058,0.035,0.238,0.448-0.225,0.448c-0.461,0-0.881,0-1.104,0c-0.226,0-0.371-0.263-0.55-0.478
	c-0.181-0.214-1.042-1.131-1.09-1.191c-0.049-0.063-0.124-0.555,0.081-0.578c0,0,1.557,1.622,1.59,1.651
	c0.033,0.028,0.097,0.055,0.238,0.055C36.39,52.956,36.383,52.813,36.383,52.632L36.383,52.632z"/>
<g>
	<path fill="#E1E8F6" d="M47.708,23.379c-0.454-0.319-0.996-0.427-1.504-0.338c-0.509,0.087-0.985,0.368-1.305,0.824
		c-0.322,0.453-0.427,0.997-0.34,1.504c0.087,0.509,0.37,0.982,0.824,1.305c0.456,0.319,0.997,0.427,1.506,0.34
		c0.507-0.089,0.983-0.37,1.303-0.824c0.321-0.455,0.427-0.996,0.34-1.505C48.445,24.177,48.165,23.701,47.708,23.379L47.708,23.379
		z"/>
	<path fill-rule="evenodd" clip-rule="evenodd" fill="#E1E8F6" d="M46.866,24.423l0.745-0.003c0.048,0,0.091,0.031,0.106,0.077
		c0.015,0.046-0.002,0.097-0.041,0.124l-0.605,0.438l0.231,0.707c0.015,0.048,0,0.097-0.038,0.125c-0.041,0.027-0.092,0.027-0.133,0
		l-0.6-0.44l-0.603,0.44c-0.041,0.027-0.091,0.027-0.132,0c-0.038-0.028-0.053-0.077-0.038-0.125l0.231-0.707l-0.605-0.438
		c-0.038-0.027-0.053-0.078-0.04-0.124c0.015-0.046,0.058-0.077,0.106-0.077l0.745,0.003l0.229-0.709
		c0.015-0.049,0.056-0.076,0.107-0.076c0.048,0,0.089,0.027,0.104,0.076L46.866,24.423z"/>
	<path fill="#1E1F31" d="M45.635,26.769l-0.921,1.705c-0.035,0.063-0.012,0.143,0.052,0.178c0.063,0.034,0.144,0.012,0.178-0.052
		l0.929-1.72C45.791,26.856,45.71,26.821,45.635,26.769L45.635,26.769z"/>
	<path fill-rule="evenodd" clip-rule="evenodd" fill="#1E1F31" d="M47.814,23.23c-0.496-0.35-1.087-0.466-1.641-0.37
		s-1.072,0.403-1.422,0.899s-0.466,1.087-0.37,1.641c0.095,0.555,0.402,1.073,0.897,1.423c0.496,0.35,1.087,0.465,1.642,0.369
		c0.555-0.095,1.072-0.403,1.421-0.898c0.35-0.497,0.467-1.087,0.371-1.64C48.616,24.099,48.31,23.58,47.814,23.23L47.814,23.23z
		 M46.221,23.14c0.482-0.083,0.999,0.018,1.429,0.322c0.432,0.305,0.7,0.757,0.784,1.239c0.083,0.483-0.019,0.998-0.323,1.43
		s-0.755,0.7-1.239,0.783c-0.482,0.083-0.997-0.017-1.428-0.322c-0.432-0.305-0.7-0.757-0.784-1.238
		c-0.083-0.483,0.018-0.999,0.323-1.432S45.737,23.222,46.221,23.14L46.221,23.14z"/>
</g>
<g>
	<g>
		<path fill="#E59013" d="M59.05,28.537h-1.177v-2.919c0-1.506-1.226-2.731-2.731-2.731s-2.731,1.226-2.731,2.731v2.919h-1.177
			v-2.919c0-2.156,1.753-3.909,3.908-3.909c2.155,0,3.909,1.753,3.909,3.909V28.537z"/>
	</g>
	<g opacity="0.2">
		<path fill="#FFFFFF" d="M59.05,28.537h-1.177v-2.919c0-1.506-1.226-2.731-2.731-2.731s-2.731,1.226-2.731,2.731v2.919h-1.177
			v-2.919c0-2.156,1.753-3.909,3.908-3.909c2.155,0,3.909,1.753,3.909,3.909V28.537z"/>
	</g>
	
		<path fill="none" stroke="#FFFFFF" stroke-width="1.3111" stroke-linecap="round" stroke-linejoin="round" stroke-miterlimit="10" d="
		M56.728,22.628c0.619,0.329,1.123,0.845,1.439,1.471"/>
	<path fill="#EDB70A" d="M51.233,25.618v2.919h1.177v-2.919c0-1.506,1.225-2.731,2.731-2.731v-1.178
		C52.987,21.709,51.233,23.462,51.233,25.618z"/>
	<path opacity="0.4" fill="#FFFFFF" d="M51.233,25.618v2.919h1.177v-2.919c0-1.506,1.225-2.731,2.731-2.731v-1.178
		C52.987,21.709,51.233,23.462,51.233,25.618z"/>
	<path fill="#FFC800" d="M60.165,27.576c-1.897,1.33-4.489-0.261-4.951-0.564c-0.043-0.029-0.099-0.029-0.144,0
		c-0.461,0.304-3.053,1.895-4.951,0.564c-0.087-0.062-0.208,0.003-0.206,0.11c0.029,1.281,0.436,6.776,5.229,8.301
		c4.793-1.524,5.2-7.02,5.229-8.301C60.373,27.579,60.252,27.515,60.165,27.576z"/>
	<path opacity="0.3" fill="#B7AF97" d="M60.165,27.576c-1.897,1.33-4.489-0.261-4.951-0.564c-0.043-0.029-0.099-0.029-0.144,0
		c-0.461,0.304-3.053,1.895-4.951,0.564c-0.087-0.062-0.208,0.003-0.206,0.11c0.029,1.281,0.436,6.776,5.229,8.301
		c4.793-1.524,5.2-7.02,5.229-8.301C60.373,27.579,60.252,27.515,60.165,27.576z"/>
	<path opacity="0.3" fill="#FFFFFF" d="M60.37,27.687c0.003-0.107-0.118-0.172-0.206-0.11c-1.897,1.33-4.489-0.261-4.951-0.564
		c-0.022-0.015-0.046-0.022-0.072-0.022v8.998C59.935,34.463,60.342,28.968,60.37,27.687z"/>
	<path fill="#F1F2F2" d="M56.177,30.813c0-0.572-0.463-1.035-1.036-1.035c-0.572,0-1.035,0.463-1.035,1.035
		c0,0.438,0.272,0.813,0.656,0.963v1.41c0,0.209,0.171,0.379,0.379,0.379c0.208,0,0.38-0.17,0.38-0.379v-1.41
		C55.905,31.625,56.177,31.25,56.177,30.813z"/>
	<path fill="#F1F2F2" d="M55.521,33.186v-1.41c0.384-0.15,0.656-0.525,0.656-0.963c0-0.572-0.463-1.035-1.036-1.035v3.787
		C55.35,33.564,55.521,33.395,55.521,33.186z"/>
</g>
<path fill-rule="evenodd" clip-rule="evenodd" fill="#FCB187" d="M45.809,27.797c0.012-0.025-0.125-0.368-0.189-0.448
	c-0.062-0.077-0.128-0.191-0.389-0.154c-0.258,0.037-0.329,0.04-0.441,0.11s-0.702,0.889-0.803,0.972
	c-0.013,0.011-0.086,0.055-0.204,0.126c-0.006,0.163,0.024,0.391,0.186,0.563c0.091-0.075,0.148-0.122,0.157-0.131
	c0.075-0.053,0.492-0.076,0.574-0.111c0.079-0.036,0.265-0.422,0.346-0.478c0.084-0.052,0.263,0.086,0.243,0.148
	c0,0,0.122-0.046,0.152-0.1c0.031-0.053,0.044-0.147,0.044-0.147s0.108-0.023,0.132-0.047c0.021-0.023,0.037-0.11,0.037-0.11
	C45.734,27.923,45.762,27.895,45.809,27.797L45.809,27.797z"/>
</svg>
