<?xml version="1.0" encoding="utf-8"?>
<!-- Generator: Adobe Illustrator 16.0.0, SVG Export Plug-In . SVG Version: 6.00 Build 0)  -->
<!DOCTYPE svg PUBLIC "-//W3C//DTD SVG 1.1//EN" "http://www.w3.org/Graphics/SVG/1.1/DTD/svg11.dtd">
<svg version="1.1" id="Layer_1" xmlns="http://www.w3.org/2000/svg" xmlns:xlink="http://www.w3.org/1999/xlink" x="0px" y="0px"
	 width="199.922px" height="167.87px" viewBox="0 -33.13 199.922 167.87" enable-background="new 0 -33.13 199.922 167.87"
	 xml:space="preserve">
<path opacity="0.1" fill="#FFCB57" d="M23.532,130.638c-3.726-4.649-8.759-11.641-9.653-17.56
	c-0.993-6.576,0.258-12.558,2.947-18.511c2.667-5.905,5.414-11.603,10.046-16.106c3.846-3.74,8.942-7.384,11.133-12.389
	c4.688-10.711,3.809-24.796,14.226-32.43c5.257-3.853,11.827-5.106,18.08-5.064c7.647,0.054,14.392,7.96,21.597,9.825
	c6.849,1.771,17.538,0.375,24.681-1.338c3.568-0.856,6.938-2.37,10.656-3.104c5.607-1.107,12.678-1.399,18.593-0.638
	c6.872,0.886,13.919,6.684,16.573,13.001c2.371,5.648-0.006,12.124,0.31,18.146c0.241,4.588,1.85,7.504,4.039,11.501
	c3.133,5.723,5.987,10.281,8.186,16.548c2.288,6.519,2.717,12.087,2.716,18.993c0,6.779-0.887,11.992-3.779,17.57
	c-12.568,4.83-26.465,0.341-39.627,1.322c-8.521,0.636-19.229-0.607-27.68-0.941c-7.054-0.278-13.073,0.43-20.075,0
	c-8.784-0.538-17.972,1.944-26.766,1.286c-6.857-0.514-13.419-2.749-20.265-2.801c-2.971-0.023-9.233-1.259-8.058,1.515
	c0.64,1.51-1.52,0.773-3.501,0"/>
<g>
	<g>
		<g>
			<path fill="#EBEBEB" d="M158.127,63.063c0,0-3.895-2.251-7.783,4.778c-3.889,7.03-5.235,11.14-5.235,11.14
				s-1.063,1.457-2.431,0.377s-3.369-4.029-5.5-3.652c-2.208,0.391-2.77,2.414-2.072,5.483c0.697,3.067,1.93,9.8,2.037,10.408
				c0.107,0.598-0.229,1.447-1.284,0.818c-1.054-0.629-7.298-6.279-9.976-4.053c-2.679,2.226,0.942,10.717,1.318,11.648
				c0.374,0.932,0.191,1.309-0.316,1.502c-0.508,0.194-2.416-1.843-4.262-3.399c-1.848-1.557-4.275-3.133-5.668-1.726
				c-1.395,1.408-1.335,7.615,6.773,18.192l4.115,4.743l6.622,0.109c14.063-0.484,19.466-4.203,19.837-6.077
				c0.373-1.872-2.463-2.692-4.928-3.099c-2.463-0.406-5.383-0.566-5.522-1.055c-0.142-0.488,0.073-0.852,1.106-1.143
				c1.033-0.29,10.571-2.79,10.873-6.099c0.302-3.308-8.371-4.449-9.555-4.839c-1.184-0.389-0.652-1.15-0.07-1.435
				c0.592-0.29,7.16-3.471,10.236-4.821s4.486-2.987,3.484-4.84c-0.965-1.787-4.729-1.462-6.492-1.807
				c-1.764-0.346-1.147-2.007-1.147-2.007s2.737-3.477,6.458-10.583c3.721-7.105-0.701-8.608-0.701-8.608"/>
		</g>
	</g>
	<g>
		<g>
			<g>
				<path fill="#E0E0E0" d="M126.87,120.241c2.76-5.207,7.867-14.37,12.199-22.263c4.33-7.889,8.242-15.036,11.036-20.227
					c1.391-2.592,2.517-4.692,3.3-6.15c0.389-0.722,0.69-1.284,0.898-1.672c0.104-0.186,0.184-0.33,0.24-0.434
					c0.055-0.097,0.087-0.144,0.087-0.144s-0.021,0.053-0.067,0.152c-0.054,0.105-0.126,0.253-0.221,0.442
					c-0.201,0.392-0.49,0.959-0.863,1.688c-0.751,1.465-1.859,3.576-3.239,6.18c-2.759,5.206-6.651,12.362-10.981,20.252
					c-4.331,7.892-9.46,17.045-12.254,22.235"/>
			</g>
		</g>
	</g>
	<g>
		<g>
			<g>
				<path fill="#E0E0E0" d="M139.792,79.9c0.014-0.003,0.085,0.133,0.2,0.38c0.117,0.247,0.274,0.606,0.463,1.051
					c0.378,0.891,0.861,2.127,1.366,3.495c0.493,1.349,0.938,2.569,1.278,3.504c0.157,0.42,0.289,0.775,0.396,1.06
					c0.094,0.251,0.141,0.391,0.127,0.393c-0.013,0.003-0.084-0.132-0.203-0.38c-0.117-0.246-0.273-0.605-0.457-1.052
					c-0.366-0.893-0.832-2.13-1.338-3.498c-0.503-1.349-0.959-2.567-1.307-3.499c-0.159-0.421-0.293-0.775-0.4-1.061
					C139.825,80.041,139.778,79.902,139.792,79.9z"/>
			</g>
		</g>
	</g>
	<g>
		<g>
			<g>
				<path fill="#E0E0E0" d="M144.239,89.918c-0.02-0.047,2.921-0.61,6.566-1.259c3.646-0.649,6.618-1.14,6.638-1.094
					s-2.921,0.61-6.566,1.259C147.231,89.474,144.258,89.963,144.239,89.918z"/>
			</g>
		</g>
	</g>
	<g>
		<g>
			<g>
				<path fill="#E0E0E0" d="M136.872,101.703c0-0.011,0.173-0.006,0.487,0.013c0.356,0.022,0.803,0.052,1.331,0.086
					c1.124,0.071,2.676,0.165,4.381,0.217c1.707,0.055,3.246,0.059,4.36,0.055c0.523-0.001,0.966-0.003,1.317-0.004
					c0.313,0.001,0.486,0.007,0.489,0.019s-0.166,0.029-0.473,0.049c-0.308,0.02-0.755,0.041-1.31,0.057
					c-1.109,0.035-2.65,0.05-4.362-0.006c-1.712-0.051-3.268-0.163-4.396-0.267c-0.564-0.053-1.02-0.1-1.336-0.139
					C137.046,101.742,136.872,101.716,136.872,101.703z"/>
			</g>
		</g>
	</g>
	<g>
		<g>
			<g>
				<path fill="#E0E0E0" d="M130.528,93.083c0.014-0.004,0.115,0.109,0.287,0.322c0.195,0.245,0.436,0.546,0.718,0.902
					c0.599,0.766,1.413,1.828,2.302,3.007c0.89,1.179,1.686,2.249,2.252,3.028c0.262,0.364,0.482,0.675,0.664,0.926
					c0.152,0.221,0.23,0.345,0.219,0.351c-0.013,0.005-0.113-0.11-0.286-0.321c-0.196-0.245-0.435-0.547-0.718-0.903
					c-0.599-0.766-1.412-1.829-2.302-3.007c-0.89-1.179-1.685-2.25-2.252-3.028c-0.261-0.364-0.483-0.675-0.663-0.927
					C130.596,93.213,130.517,93.088,130.528,93.083z"/>
			</g>
		</g>
	</g>
	<g>
		<g>
			<g>
				<path fill="#E0E0E0" d="M122.278,102.605c0.011-0.004,0.139,0.142,0.361,0.413c0.241,0.301,0.551,0.688,0.925,1.156
					c0.772,0.977,1.827,2.334,2.984,3.839c1.155,1.503,2.192,2.868,2.935,3.86c0.35,0.475,0.643,0.871,0.87,1.179
					c0.202,0.278,0.308,0.437,0.295,0.442c-0.011,0.005-0.14-0.143-0.362-0.414c-0.24-0.301-0.551-0.688-0.923-1.154
					c-0.772-0.978-1.829-2.335-2.985-3.84c-1.155-1.503-2.191-2.868-2.935-3.86c-0.351-0.476-0.644-0.871-0.87-1.179
					C122.372,102.768,122.266,102.611,122.278,102.605z"/>
			</g>
		</g>
	</g>
	<g>
		<g>
			<g>
				<path fill="#E0E0E0" d="M130.53,113.198c0-0.012,0.219-0.011,0.615,0.003c0.436,0.015,1.001,0.034,1.684,0.059
					c1.422,0.049,3.383,0.11,5.542,0.127c2.159,0.021,4.106-0.005,5.516-0.032c0.677-0.012,1.237-0.021,1.669-0.029
					c0.395-0.007,0.614-0.004,0.615,0.008c0.004,0.012-0.211,0.032-0.6,0.058c-0.391,0.026-0.957,0.057-1.658,0.084
					c-1.402,0.057-3.351,0.102-5.514,0.082c-2.162-0.018-4.131-0.098-5.557-0.177c-0.713-0.041-1.291-0.08-1.689-0.113
					C130.752,113.234,130.531,113.21,130.53,113.198z"/>
			</g>
		</g>
	</g>
</g>
<g>
	<g>
		<rect x="100.489" y="-13.333" fill="#C8C8C8" width="0.125" height="13.451"/>
		<g>
			<polygon fill="#ECECEC" points="105.663,5.799 105.251,6.841 95.85,6.841 95.439,5.799 99.442,2.604 101.661,2.604 			"/>
			<polygon fill="#DCDCDC" points="101.938,-0.473 101.661,2.604 99.442,2.604 99.165,-0.473 			"/>
			<polygon fill="#DCDCDC" points="105.662,5.799 105.25,6.842 95.849,6.842 95.439,5.799 			"/>
		</g>
	</g>
	<g>
		<rect x="120.961" y="-24" fill="#C8C8C8" width="0.234" height="19.099"/>
		<g>
			<polygon fill="#ECECEC" points="130.754,5.853 129.976,7.825 112.178,7.825 111.403,5.853 118.979,-0.195 123.178,-0.195 			"/>
			<polygon fill="#DCDCDC" points="123.704,-6.021 123.178,-0.195 118.979,-0.195 118.454,-6.021 			"/>
			<polygon fill="#DCDCDC" points="130.752,5.854 129.975,7.825 112.178,7.825 111.403,5.854 			"/>
		</g>
	</g>
</g>
<g>
	<path fill="#EFD27F" d="M92.651,15.854h13.296c0.964,0,1.754,0.79,1.754,1.754v7.239v0.536v4.608c0,0.082-0.047,0.15-0.12,0.181
		c-0.076,0.032-0.158,0.016-0.214-0.042l-2.992-2.992H92.651c-0.964,0-1.753-0.79-1.753-1.756v-7.775
		C90.898,16.644,91.687,15.854,92.651,15.854z"/>
	<g>
		<path fill="#EFD27F" d="M95.154,22.749c-0.689,0-1.252-0.563-1.252-1.253c0-0.688,0.563-1.25,1.252-1.25
			c0.69,0,1.252,0.562,1.252,1.25C96.406,22.186,95.844,22.749,95.154,22.749z"/>
		<path fill="#EFD27F" d="M99.299,22.749c-0.689,0-1.25-0.563-1.25-1.253c0-0.688,0.561-1.25,1.25-1.25
			c0.69,0,1.252,0.562,1.252,1.25C100.551,22.186,99.989,22.749,99.299,22.749z"/>
		<path fill="#EFD27F" d="M103.446,22.749c-0.691,0-1.252-0.563-1.252-1.253c0-0.688,0.561-1.25,1.252-1.25
			c0.689,0,1.251,0.562,1.251,1.25C104.697,22.186,104.135,22.749,103.446,22.749z"/>
	</g>
</g>
<path fill="#C0CDEA" d="M61.353,41.797L61.353,41.797L61.353,41.797z M62.135,38.819c0.273-0.273,0.648-0.441,1.063-0.441
	c0.417,0,0.792,0.168,1.065,0.441c0.271,0.271,0.439,0.648,0.439,1.063c0,0.415-0.168,0.793-0.439,1.064
	c-0.271,0.272-0.649,0.441-1.065,0.441c-0.415,0-0.79-0.169-1.063-0.441c-0.272-0.271-0.44-0.649-0.44-1.064
	C61.694,39.467,61.862,39.09,62.135,38.819L62.135,38.819z M62.459,37.327c-0.208,0.06-0.405,0.146-0.588,0.25
	c-0.189,0.108-0.362,0.242-0.518,0.391c-0.03,0.03-0.075,0.034-0.11,0.015l-0.7-0.404l-0.004-0.003
	c-0.038-0.02-0.086-0.025-0.128-0.015c-0.042,0.012-0.082,0.04-0.104,0.081l-0.001,0.004l-0.493,0.853
	c-0.024,0.042-0.029,0.09-0.018,0.131c0.013,0.044,0.04,0.082,0.081,0.106l0.005,0.003l0.693,0.402
	c0.036,0.019,0.053,0.063,0.043,0.1l0,0c-0.026,0.103-0.044,0.21-0.059,0.318c-0.012,0.106-0.018,0.214-0.018,0.324
	c0,0.11,0.006,0.218,0.018,0.326c0.015,0.109,0.034,0.214,0.059,0.318c0.011,0.042-0.01,0.086-0.048,0.103l-0.693,0.401l0,0
	c-0.041,0.023-0.068,0.063-0.081,0.106c-0.011,0.042-0.006,0.09,0.018,0.132l0.495,0.857l0,0c0.022,0.041,0.062,0.069,0.104,0.081
	c0.042,0.01,0.09,0.007,0.132-0.018l0.006-0.003l0.694-0.401c0.037-0.02,0.08-0.015,0.11,0.014c0.156,0.149,0.329,0.281,0.518,0.39
	c0.183,0.105,0.385,0.191,0.594,0.251c0.041,0.013,0.066,0.049,0.066,0.089v0.806c0,0.048,0.019,0.092,0.052,0.123
	c0.031,0.031,0.075,0.052,0.123,0.052h0.99c0.046,0,0.09-0.019,0.121-0.052c0.031-0.031,0.051-0.075,0.051-0.123v-0.806
	c0-0.045,0.031-0.081,0.071-0.091c0.21-0.06,0.407-0.144,0.589-0.25c0.189-0.109,0.363-0.241,0.519-0.39
	c0.031-0.032,0.08-0.034,0.114-0.011l0.696,0.401c0.041,0.023,0.088,0.028,0.131,0.018c0.044-0.012,0.082-0.039,0.104-0.081
	l0.004-0.004l0.491-0.853l0,0c0.025-0.042,0.028-0.09,0.018-0.132c-0.012-0.043-0.038-0.083-0.08-0.106l-0.699-0.403
	c-0.035-0.021-0.054-0.063-0.042-0.102l0,0c0.025-0.104,0.045-0.209,0.058-0.318c0.013-0.106,0.02-0.214,0.02-0.326
	c0-0.108-0.007-0.217-0.02-0.325c-0.012-0.107-0.032-0.214-0.058-0.317c-0.013-0.043,0.009-0.085,0.048-0.104l0.693-0.401
	c0.041-0.024,0.068-0.062,0.08-0.106c0.012-0.042,0.007-0.089-0.018-0.13l-0.003-0.005l-0.492-0.853l0,0
	c-0.022-0.041-0.061-0.069-0.104-0.081c-0.042-0.01-0.09-0.006-0.131,0.018l0,0l-0.701,0.404c-0.037,0.021-0.083,0.015-0.111-0.016
	c-0.155-0.149-0.328-0.281-0.517-0.389c-0.184-0.106-0.382-0.192-0.593-0.251c-0.041-0.012-0.067-0.048-0.067-0.09v-0.805
	c0-0.048-0.019-0.093-0.051-0.124c-0.031-0.032-0.075-0.051-0.121-0.051h-0.99c-0.048,0-0.092,0.019-0.123,0.051
	c-0.033,0.031-0.052,0.076-0.052,0.124v0.805C62.531,37.281,62.5,37.316,62.459,37.327z"/>
<g>
	<path fill="#9FB2D9" d="M66.941,57.151c0-0.142-0.116-0.257-0.258-0.257s-0.259,0.115-0.259,0.257v0.607h-0.606
		c-0.143,0-0.257,0.115-0.257,0.257c0,0.144,0.114,0.259,0.257,0.259h0.606v0.607c0,0.141,0.115,0.258,0.259,0.258
		c0.142,0,0.258-0.117,0.258-0.258v-0.607h0.606c0.144,0,0.258-0.115,0.258-0.259c0-0.142-0.115-0.257-0.258-0.257h-0.606V57.151z"
		/>
	<path fill="#9FB2D9" d="M86.454,27.343c0-0.142-0.115-0.258-0.259-0.258c-0.142,0-0.257,0.116-0.257,0.258v0.606H85.33
		c-0.143,0-0.257,0.116-0.257,0.259c0,0.142,0.114,0.257,0.257,0.257h0.607v0.607c0,0.142,0.115,0.258,0.257,0.258
		c0.144,0,0.259-0.116,0.259-0.258v-0.607h0.607c0.143,0,0.259-0.115,0.259-0.257c0-0.143-0.116-0.259-0.259-0.259h-0.607V27.343z"
		/>
	<path fill="#9FB2D9" d="M165.36,31.142c0-0.142-0.117-0.257-0.259-0.257c-0.144,0-0.258,0.115-0.258,0.257v0.607h-0.608
		c-0.141,0-0.258,0.116-0.258,0.258c0,0.142,0.117,0.258,0.258,0.258h0.608v0.606c0,0.143,0.114,0.259,0.258,0.259
		c0.142,0,0.259-0.116,0.259-0.259v-0.606h0.607c0.143,0,0.256-0.116,0.256-0.258c0-0.143-0.113-0.258-0.256-0.258h-0.607V31.142z"
		/>
	<path fill="#9FB2D9" d="M169.743,59.197c0-0.142-0.114-0.258-0.256-0.258c-0.145,0-0.26,0.116-0.26,0.258v0.608h-0.606
		c-0.145,0-0.259,0.113-0.259,0.256c0,0.144,0.114,0.259,0.259,0.259h0.606v0.605c0,0.144,0.115,0.259,0.26,0.259
		c0.142,0,0.256-0.115,0.256-0.259V60.32h0.607c0.143,0,0.258-0.115,0.258-0.259c0-0.143-0.115-0.256-0.258-0.256h-0.607V59.197z"/>
	<path fill="#9FB2D9" d="M43.786,81.7c0-0.143-0.116-0.257-0.259-0.257c-0.143,0-0.257,0.114-0.257,0.257v0.606h-0.607
		c-0.143,0-0.258,0.115-0.258,0.259c0,0.142,0.115,0.257,0.258,0.257h0.607v0.607c0,0.143,0.114,0.258,0.257,0.258
		c0.143,0,0.259-0.115,0.259-0.258v-0.607h0.606c0.144,0,0.259-0.115,0.259-0.257c0-0.144-0.115-0.259-0.259-0.259h-0.606V81.7z"/>
	<path fill="#9FB2D9" d="M17.484,79.363c0-0.145-0.117-0.259-0.259-0.259c-0.143,0-0.259,0.114-0.259,0.259v0.607H16.36
		c-0.142,0-0.258,0.115-0.258,0.256c0,0.144,0.116,0.259,0.258,0.259h0.607v0.607c0,0.141,0.116,0.257,0.259,0.257
		c0.142,0,0.259-0.116,0.259-0.257v-0.607h0.607c0.142,0,0.258-0.115,0.258-0.259c0-0.141-0.116-0.256-0.258-0.256h-0.607V79.363z"
		/>
	<path fill="#C0CDEA" d="M73.424,37.922L73.424,37.922L73.424,37.922z M74.205,34.943c0.272-0.273,0.648-0.44,1.066-0.44
		c0.415,0,0.79,0.168,1.063,0.44c0.273,0.272,0.44,0.648,0.44,1.063c0,0.416-0.167,0.791-0.44,1.065
		c-0.273,0.273-0.648,0.44-1.063,0.44c-0.417,0-0.793-0.167-1.066-0.44c-0.271-0.274-0.441-0.649-0.441-1.065
		C73.766,35.592,73.934,35.216,74.205,34.943L74.205,34.943z M74.531,33.452c-0.208,0.058-0.407,0.144-0.59,0.25
		c-0.189,0.11-0.363,0.241-0.517,0.391c-0.03,0.028-0.075,0.033-0.111,0.014l-0.699-0.403l-0.004-0.001
		c-0.04-0.023-0.084-0.027-0.126-0.016c-0.043,0.011-0.081,0.039-0.106,0.08l-0.003,0.005l-0.491,0.853
		c-0.023,0.041-0.029,0.088-0.018,0.132c0.011,0.043,0.04,0.082,0.08,0.104l0.004,0.002l0.695,0.401
		c0.036,0.021,0.054,0.063,0.043,0.103l0,0c-0.025,0.102-0.046,0.208-0.06,0.317c-0.013,0.106-0.019,0.214-0.019,0.324
		c0,0.111,0.005,0.218,0.019,0.325c0.014,0.108,0.034,0.214,0.06,0.317c0.01,0.044-0.012,0.087-0.049,0.106l-0.693,0.4v0.001
		c-0.041,0.022-0.069,0.062-0.08,0.105c-0.011,0.042-0.005,0.09,0.018,0.131l0.494,0.858l0,0c0.025,0.041,0.063,0.068,0.106,0.08
		c0.043,0.013,0.09,0.008,0.131-0.018l0.003-0.001l0.696-0.401c0.036-0.021,0.081-0.015,0.109,0.014
		c0.154,0.148,0.329,0.28,0.517,0.389c0.186,0.107,0.384,0.191,0.594,0.252c0.041,0.012,0.067,0.049,0.067,0.089v0.806
		c0,0.048,0.02,0.091,0.052,0.123c0.03,0.032,0.074,0.051,0.12,0.051h0.992c0.046,0,0.089-0.018,0.12-0.051
		c0.032-0.032,0.052-0.074,0.052-0.123v-0.806c0-0.044,0.03-0.081,0.07-0.091c0.208-0.06,0.405-0.145,0.59-0.251
		c0.188-0.109,0.363-0.241,0.517-0.389c0.033-0.03,0.08-0.034,0.115-0.012l0.695,0.401c0.041,0.025,0.089,0.029,0.131,0.018
		c0.043-0.01,0.083-0.038,0.105-0.08l0.002-0.004l0.492-0.854l0,0c0.023-0.042,0.029-0.089,0.016-0.133
		c-0.01-0.042-0.038-0.081-0.079-0.104l-0.698-0.404c-0.038-0.021-0.054-0.063-0.043-0.102l0,0c0.024-0.103,0.044-0.21,0.057-0.319
		c0.013-0.104,0.019-0.212,0.019-0.325c0-0.108-0.006-0.216-0.019-0.323c-0.014-0.109-0.034-0.215-0.057-0.317
		c-0.013-0.043,0.01-0.087,0.048-0.105l0.694-0.401c0.04-0.023,0.069-0.061,0.079-0.104c0.013-0.045,0.007-0.091-0.016-0.132
		l-0.003-0.006l-0.493-0.854l0,0c-0.023-0.041-0.062-0.069-0.105-0.08c-0.042-0.012-0.09-0.007-0.131,0.017l0,0l-0.7,0.403
		c-0.036,0.021-0.083,0.014-0.112-0.016c-0.155-0.15-0.328-0.279-0.516-0.389c-0.185-0.105-0.383-0.191-0.594-0.251
		c-0.04-0.011-0.066-0.048-0.066-0.088v-0.806c0-0.048-0.02-0.092-0.052-0.124c-0.033-0.031-0.073-0.05-0.12-0.05h-0.992
		c-0.046,0-0.09,0.019-0.12,0.05c-0.033,0.032-0.052,0.075-0.052,0.124v0.806C74.602,33.406,74.572,33.441,74.531,33.452z"/>
	<path fill="#C0CDEA" d="M155.545,55.457L155.545,55.457L155.545,55.457z M156.326,52.478c0.273-0.272,0.65-0.441,1.065-0.441
		s0.792,0.17,1.065,0.441c0.271,0.272,0.44,0.65,0.44,1.064c0,0.416-0.17,0.79-0.44,1.064c-0.273,0.272-0.65,0.44-1.065,0.44
		s-0.792-0.169-1.065-0.44c-0.271-0.274-0.439-0.648-0.439-1.064C155.887,53.128,156.054,52.75,156.326,52.478L156.326,52.478z
		 M156.653,50.987c-0.21,0.061-0.408,0.144-0.592,0.251c-0.188,0.108-0.36,0.239-0.516,0.389c-0.031,0.03-0.076,0.034-0.111,0.014
		l-0.699-0.402l-0.004-0.003c-0.039-0.022-0.086-0.025-0.128-0.016c-0.043,0.012-0.08,0.04-0.106,0.081l-0.001,0.005l-0.492,0.852
		c-0.022,0.042-0.029,0.089-0.019,0.133c0.012,0.042,0.04,0.081,0.082,0.104l0.004,0.003l0.693,0.401
		c0.037,0.021,0.055,0.062,0.045,0.102l0,0c-0.025,0.103-0.046,0.209-0.061,0.318c-0.012,0.106-0.02,0.214-0.02,0.324
		s0.008,0.218,0.02,0.325c0.015,0.109,0.035,0.215,0.061,0.318c0.01,0.043-0.012,0.085-0.05,0.104l-0.692,0.402l0,0
		c-0.042,0.024-0.07,0.063-0.082,0.106c-0.012,0.042-0.007,0.089,0.016,0.13l0.496,0.858l0,0c0.024,0.041,0.063,0.068,0.106,0.081
		c0.044,0.012,0.09,0.006,0.132-0.017l0.005-0.004l0.694-0.4c0.037-0.021,0.082-0.015,0.111,0.013
		c0.155,0.15,0.328,0.281,0.516,0.39c0.186,0.106,0.385,0.193,0.596,0.252c0.04,0.011,0.067,0.049,0.067,0.089v0.808
		c0,0.047,0.019,0.09,0.051,0.122c0.03,0.031,0.074,0.051,0.122,0.051h0.988c0.05,0,0.092-0.02,0.124-0.051
		c0.03-0.032,0.05-0.075,0.05-0.122V56.19c0-0.044,0.031-0.08,0.072-0.089c0.209-0.06,0.406-0.146,0.592-0.251
		c0.188-0.109,0.36-0.24,0.516-0.39c0.03-0.029,0.08-0.034,0.115-0.011l0.693,0.402c0.041,0.022,0.09,0.027,0.134,0.017
		c0.042-0.012,0.079-0.04,0.103-0.081l0.005-0.006l0.491-0.852l0,0c0.023-0.041,0.029-0.088,0.019-0.13
		c-0.013-0.044-0.04-0.083-0.081-0.106l-0.697-0.403c-0.037-0.02-0.053-0.062-0.045-0.102l0,0c0.025-0.103,0.045-0.21,0.058-0.318
		c0.014-0.105,0.021-0.213,0.021-0.324c0-0.109-0.007-0.219-0.021-0.325c-0.013-0.109-0.032-0.215-0.058-0.318
		c-0.01-0.042,0.012-0.087,0.049-0.105l0.693-0.401c0.041-0.023,0.07-0.063,0.081-0.105c0.011-0.044,0.005-0.091-0.019-0.131
		l-0.001-0.006l-0.495-0.853l0,0c-0.023-0.041-0.061-0.069-0.103-0.08c-0.044-0.012-0.093-0.007-0.134,0.018l0,0l-0.698,0.403
		c-0.038,0.021-0.083,0.014-0.112-0.016c-0.156-0.149-0.328-0.279-0.514-0.388s-0.385-0.192-0.596-0.252
		c-0.041-0.012-0.068-0.049-0.068-0.089v-0.806c0-0.048-0.018-0.091-0.05-0.123c-0.032-0.031-0.075-0.051-0.124-0.051h-0.988
		c-0.048,0-0.092,0.019-0.122,0.051c-0.032,0.032-0.051,0.075-0.051,0.123v0.806C156.722,50.939,156.692,50.977,156.653,50.987z"/>
	<path fill="#C0CDEA" d="M121.424,30.734L121.424,30.734L121.424,30.734z M122.207,27.756c0.273-0.273,0.649-0.44,1.063-0.44
		c0.416,0,0.792,0.168,1.065,0.44c0.271,0.272,0.44,0.647,0.44,1.064c0,0.415-0.17,0.79-0.44,1.063
		c-0.273,0.273-0.649,0.44-1.065,0.44c-0.414,0-0.79-0.167-1.063-0.44c-0.271-0.272-0.438-0.648-0.438-1.063
		C121.768,28.404,121.936,28.028,122.207,27.756L122.207,27.756z M122.532,26.264c-0.209,0.06-0.405,0.146-0.589,0.252
		c-0.189,0.107-0.363,0.238-0.519,0.388c-0.031,0.03-0.075,0.035-0.109,0.014l-0.701-0.403l-0.004-0.001
		c-0.039-0.022-0.084-0.026-0.127-0.014c-0.043,0.011-0.08,0.038-0.105,0.079l-0.003,0.005l-0.491,0.853
		c-0.025,0.041-0.029,0.088-0.02,0.132c0.012,0.042,0.039,0.082,0.082,0.105l0.004,0.002l0.693,0.401
		c0.037,0.021,0.053,0.063,0.045,0.102l0,0c-0.027,0.102-0.047,0.21-0.061,0.318c-0.012,0.104-0.019,0.213-0.019,0.325
		c0,0.109,0.007,0.218,0.019,0.324c0.014,0.108,0.033,0.214,0.061,0.318c0.008,0.043-0.012,0.086-0.049,0.105l-0.693,0.401l0,0
		c-0.043,0.023-0.07,0.063-0.082,0.104c-0.012,0.043-0.006,0.092,0.02,0.132l0.494,0.857l0,0c0.025,0.041,0.063,0.069,0.105,0.08
		c0.043,0.013,0.09,0.007,0.131-0.017l0.006-0.002l0.695-0.401c0.035-0.021,0.08-0.014,0.109,0.013
		c0.155,0.15,0.329,0.281,0.519,0.391c0.185,0.107,0.383,0.192,0.593,0.253c0.041,0.011,0.068,0.048,0.068,0.088v0.807
		c0,0.048,0.021,0.091,0.051,0.122c0.029,0.032,0.074,0.052,0.121,0.052h0.99c0.047,0,0.092-0.019,0.122-0.052
		c0.031-0.03,0.051-0.073,0.051-0.122v-0.807c0-0.043,0.03-0.08,0.071-0.09c0.209-0.06,0.406-0.145,0.589-0.251
		c0.188-0.109,0.362-0.241,0.521-0.391c0.031-0.03,0.078-0.033,0.113-0.01l0.693,0.4c0.041,0.024,0.089,0.029,0.132,0.017
		c0.042-0.011,0.083-0.039,0.104-0.08l0.005-0.005l0.491-0.853l0,0c0.024-0.041,0.029-0.088,0.016-0.132
		c-0.01-0.042-0.036-0.082-0.078-0.104l-0.698-0.403c-0.038-0.021-0.054-0.063-0.044-0.102l0,0c0.025-0.102,0.045-0.21,0.059-0.319
		c0.014-0.104,0.02-0.212,0.02-0.323s-0.007-0.219-0.02-0.325c-0.014-0.108-0.033-0.215-0.059-0.318
		c-0.01-0.044,0.01-0.087,0.049-0.104l0.693-0.4c0.039-0.024,0.068-0.063,0.078-0.105c0.014-0.044,0.009-0.091-0.016-0.132
		l-0.002-0.005l-0.494-0.853l0,0c-0.021-0.041-0.06-0.069-0.104-0.08c-0.043-0.013-0.091-0.009-0.132,0.016l0,0l-0.698,0.403
		c-0.038,0.022-0.085,0.015-0.113-0.016c-0.154-0.148-0.327-0.28-0.516-0.387c-0.185-0.107-0.384-0.192-0.595-0.253
		c-0.039-0.011-0.065-0.048-0.065-0.087v-0.808c0-0.048-0.02-0.091-0.051-0.122c-0.032-0.032-0.075-0.052-0.124-0.052h-0.988
		c-0.048,0-0.092,0.02-0.124,0.052c-0.03,0.03-0.05,0.074-0.05,0.122v0.808C122.604,26.218,122.574,26.254,122.532,26.264z"/>
</g>
<g>
	<path fill="#EA5C5C" d="M114.389,29.801c0,0,1.023-1.643,2.142-1.938c0.808-0.214,2.245-0.813,2.271-0.54
		c0.025,0.271-2.563,1.421-2.563,1.421s-0.956,1.054,0.225,0.289c0.678-0.439,3.383-1.413,2.719-0.689
		c-0.665,0.724-1.796,1.043-1.796,1.043s-1.651,0.764-1.235,0.76c0.852-0.01,2.706-0.68,2.706-0.68s0.299-0.134,0.091,0.241
		c-0.383,0.687-2.609,0.997-4.423,3.61c-1.179,1.7-2.96,3.875-4.647,5.419c-0.907-0.965-1.582-1.373-1.69-2.636
		C112.76,32.45,112.846,31.995,114.389,29.801z"/>
	<polygon fill="#95C9B5" points="111.72,32.577 113.737,34.404 112.073,37.548 108.78,34.333 	"/>
	<path fill="#49060E" d="M110.073,33.179l3.117,2.781c0,0-2.999,3.244-1.176,5.735c1.822,2.491,10.494-1.603,10.494-1.603
		l-1.52,11.067c0,0-8.092-0.118-12.209-4.882C104.664,41.515,106.016,35.017,110.073,33.179z"/>
	<path fill="#FFCB57" d="M57.818,103.816c-0.767-2.213-2.468-11.484-5.7-11.484c-3.233,0-2.212,2.211-3.403,2.211
		c-1.19,0-1.786-3.998-3.912-4.508c-2.127-0.511-0.937,1.616-2.297,1.616c-1.362,0-4-3.306-7.742-1.696
		c-3.743,1.611,1.444,5.771,2.382,6.71c0.938,0.938-2.041,1.111-2.041,2.387c0,1.276,7.911,0.341,7.911,1.532
		c0,1.19-3.232,2.381,0.085,3.232C46.419,104.667,57.818,103.816,57.818,103.816z"/>
	<path fill="#FFCB57" d="M37.146,63.324c0,0-2.807,3.233-0.596,6.55c2.212,3.318,6.466,3.743,5.87,5.359
		c-0.595,1.616-6.508,0.383-4.083,2.808c2.424,2.424,6.21-0.085,6.21,2.041c0,2.127-4.721,1.659-1.617,4.764
		c3.105,3.105,9.272,0.341,9.272,2.978c0,2.638-2.552,2.356,0.383,4.581c2.934,2.225,5.997,3.756,8.379,3.16
		c2.382-0.595,2.466-10.719,0.51-14.376c-1.956-3.658-2.126-0.851-3.657-0.085c-1.532,0.765-0.426-6.21-1.703-8.507
		c-1.275-2.297-1.956-0.255-3.827,0.681c-1.872,0.936,0.085-5.869-2.467-6.891c-2.552-1.021-1.361,3.658-3.234,2.553
		C44.717,67.833,41.57,60.518,37.146,63.324z"/>
	<path fill="#F2A97E" d="M64.793,100.924c0-0.936,1.446-10.379,2.977-10.379s0.17,2.638,1.617,2.638
		c1.446,0,3.998-6.295,6.124-5.869c2.126,0.425,0,3.231,1.531,3.231s3.913-3.253,7.486-3.253c3.573,0,5.274,6.996-0.85,7.592
		c-6.126,0.596-0.851,0.111,0,1.97c0.85,1.858-4.934,3.049-6.551,3.049c-1.616,0,1.744,1.744,0.596,2.893
		C76.575,103.943,64.793,100.924,64.793,100.924z"/>
	<path fill="#F7931E" d="M66.323,111.387c-0.172,0-0.32-0.132-0.338-0.308C64.649,97.16,61.278,94.558,54.246,84.8
		c-7.401-9.509-14.215-16.269-14.215-16.457s1.718,0.785,2.048,1.128c5.847,6.074,12.857,15.112,12.905,15.17
		c8.154,10.471,10.542,14.559,11.678,26.374c0.018,0.187-0.12,0.353-0.306,0.371C66.345,111.386,66.334,111.387,66.323,111.387z"/>
	<path fill="#F7931E" d="M62.613,107.743c-4.852-4.854-23.454-14.014-23.286-13.936c0.767,0.346,18.828,8.514,23.769,13.454
		C63.414,107.58,62.933,108.061,62.613,107.743z"/>
	<path fill="#F7931E" d="M62.526,110.537c-0.043-0.162-1.016-4.053,1.965-9.771c2.992-5.736,15.592-8.888,16.127-9.019
		c0.186-0.047-12.675,3.869-15.524,9.334c-3.502,6.717-1.227,9.458-2.154,9.698C62.753,110.829,62.571,110.714,62.526,110.537z"/>
	<path fill="#F7931E" d="M58.593,108.056c-1.267-2.172-4.58-3.99-5.603-2.084c-1.081,2.016,2.684,1.533,1.658,0.508
		c-0.319-0.317,0.164-0.799,0.481-0.481c0.934,0.934,0.13,1.949-1.192,2.05c-2.831,0.223-2.208-4.159,1.232-3.46
		c2.455,0.501,3.949,3.018,4.011,3.125C59.408,108.1,58.82,108.444,58.593,108.056z"/>
	<path fill="#F7931E" d="M66.282,107.219c-0.013-4.264-0.214-5.419,0.961-6.482c0.416-0.376,0.948-0.541,1.417-0.449
		c0.575,0.114,1.376,0.932,1.376,1.579c0,0.746-1.049,1.062-1.155,0.524c-0.037-0.184,0.083-0.363,0.267-0.4
		c0.207-0.04,0.207-0.102,0.207-0.124c0-0.289-0.753-1.443-1.656-0.626c-0.878,0.795-0.75,1.514-0.738,5.979
		C66.962,107.406,66.282,107.669,66.282,107.219z"/>
	<polygon fill="#1E3340" points="67.341,113.65 58.243,113.65 55.691,107.262 69.812,107.262 	"/>
	<ellipse fill="#EFD27F" cx="104.57" cy="117.231" rx="53.858" ry="4.303"/>
	<rect x="131.278" y="84.442" fill="#542360" width="1.59" height="24.868"/>
	<polygon fill="#542360" points="119.98,115.574 131.731,109.416 131.731,115.574 132.572,115.574 132.572,109.49 144.753,115.574 
		146.047,115.574 132.766,108.94 132.493,109.126 131.731,109.126 131.731,109.179 131.37,108.944 118.721,115.574 	"/>
	<path fill="#542360" d="M133.492,109.685h-2.682v-1.402c0-0.707,0.573-1.28,1.279-1.28h0.122c0.707,0,1.28,0.573,1.28,1.28V109.685
		z"/>
	<path fill="#432C47" d="M121.456,113.234c0,0.184-0.184,4.995-0.184,4.995h-9.702c0,0,6.88-3.235,7.226-3.97
		c0.347-0.737-0.118-1.901-0.118-1.901l2.778-0.333V113.234z"/>
	<path fill="#49060E" d="M119.307,47.728c0.313,4.253,3.186,23.512,3.471,25.416c0.471-0.016,0.943-0.013,1.417-0.008l-2.382-32.76
		C121.158,41.131,119.029,43.938,119.307,47.728z"/>
	<path fill="#260101" d="M133.085,77.083l-10.6-5.586l-19.856,8.102c-1.544,0.547-2.186,2.28-1.34,3.617l17.359,30.413l3.791-0.474
		l-16.488-28.42L133.085,77.083z"/>
	<path fill="#38040A" d="M115.96,80.34c0,0-0.64,1.632-0.136,2.631s7.463,4.366,7.463,4.366l2.35-3L115.96,80.34z"/>
	<path fill="#F2A97E" d="M152.614,63.881c-1.052-3.472-2.629-6.942-7.678-5.891s-6.941-1.578-9.57-0.631
		c-2.631,0.946-2.42,13.042-5.471,16.092c-3.049,3.05-17.406,4.891-13.355,8.939c0,0,6.625,3.787,7.782,3.787
		s15.146-1.894,16.724-1.894C142.623,84.284,153.667,67.352,152.614,63.881z M144.726,73.872c-3.261,3.261-5.47,4.418-9.151,2.84
		c-3.682-1.577,1.368-13.778,1.368-13.778c3.05-1.577,0.946-0.21,3.938,0.631c2.99,0.842,4.267-1.262,5.739,0.211
		C148.091,65.248,147.987,70.611,144.726,73.872z"/>
	<path fill="#590209" d="M151.402,60.799c0,0,0.267,4.239-3.205,10.865c-3.471,6.626-6.206,11.148-10.202,11.148
		c-3.997,0-14.408,2.208-14.935,3.891c-0.526,1.684,3.155-0.525,5.995-0.525c2.838,0,8.729-0.42,11.99-1.894
		C144.305,82.813,157.237,64.869,151.402,60.799z"/>
	<path fill="#E8F7F0" d="M133.975,41.223c-2.535-3.891-7.723-3.563-12.162-0.847l2.08,32.513c4.342,0.045,10.361-0.266,14.784,0.9
		C138.495,70.275,136.335,44.846,133.975,41.223z"/>
	<path fill="#8C0303" d="M123.85,72.216c0.008,0.099-0.317,1.295-0.317,1.295l-20.316,9.153c0,0,12.909,30.853,11.505,32.227
		c-1.405,1.373-7.157,3.839-7.157,3.839h9.676l0.141-4.388h0.701l-6.171-29.347l22.344-4.937l2.619-5.073
		c0,0,0.002-0.149,0.008-0.405C132.083,72.97,128.649,72.398,123.85,72.216z"/>
	<rect x="76.782" y="67.141" fill="#1E3340" width="31.062" height="1.332"/>
	<polygon fill="#1E3340" points="72.786,52.206 77.414,67.141 98.16,67.141 92.712,51.592 	"/>
	<path fill="#FC7575" d="M125.227,29.07c0,0,2.463,6.252,2.432,9.418c0,0-3.191,3.861-5.188,3.6c-0.33-0.044-0.536-0.446-0.57-0.778
		l-0.756-7.511L125.227,29.07z"/>
	<path fill="#FD5E5A" d="M125.227,29.07l-4.082,4.729l0.407,4.045c2.034-0.237,3.729-3.254,3.7-6.689
		c-0.006-0.591,0.051-1.135,0.143-1.646C125.289,29.229,125.227,29.07,125.227,29.07z"/>
	<path fill="#FC7575" d="M116.717,23.683c-0.061,0.072-0.123,0.195-0.182,0.363c-0.26,0.771-0.398,2.478,0.26,4.377
		c0.803,2.313,2.27,7.215,4.21,7.073c1.94-0.143,4.354-2.799,4.351-5.751c-0.006-2.952,1.223-4.519-0.096-6.689
		C123.94,20.885,116.717,23.683,116.717,23.683z"/>
	<path fill="#FD5E5A" d="M125.26,23.056c-1.32-2.171-8.543,0.627-8.543,0.627c-0.061,0.072-0.125,0.195-0.182,0.363
		c-0.26,0.771-0.398,2.478,0.26,4.377c0.107,0.308,0.225,0.663,0.355,1.045c0.836-0.669,1.394-1.84,1.861-3.227
		c0.087-0.121,0.067-1.013,1.711-1.782c0.406,0.745,0.811,0.663,1.858,2.325c0.319,3.499,1.987,3.892,2.696,3.896
		c0.051-0.307,0.078-0.619,0.078-0.935C125.35,26.793,126.579,25.227,125.26,23.056z"/>
	<path fill="#363A68" d="M123.405,26.514c0,0-0.783-1.313-1.514-1.945c-0.732-0.632-0.565-1.225-0.565-1.225s-2.418,0.6-3.011,2.331
		c-0.592,1.731-1.26,4.258-4.037,3.354s-2.563-4.452-1.934-4.499c0.629-0.045,1.168-0.612,1.168-0.612s2.02-3.365,3.227-3.454
		c1.205-0.089,0.076-1.113,2.099-1.578c2.021-0.465,3.782,1.251,3.782,1.251s0.818-1.062,2.465-0.18
		c1.646,0.881,1.205,4.815,0.751,6.219s-0.329,3.636-0.329,3.636S123.686,30.343,123.405,26.514z"/>
	<path fill="#FC7575" d="M124.445,25.786c-0.278-0.688-1.211-0.702-1.532-0.033c-0.266,0.553-0.396,1.222,0.137,1.684
		c1.07,0.923,1.881-0.244,1.479-1.427C124.5,25.931,124.473,25.856,124.445,25.786z"/>
	<polygon fill="#464A7F" points="123.643,44.679 122.731,44.7 122.165,41.919 123.69,41.854 	"/>
	<polygon fill="#4E5389" points="122.895,63.473 124.762,67.011 126.727,64.088 123.643,44.679 122.731,44.7 	"/>
	<path fill="#FFFFFF" d="M123.69,41.854l1.119,2.525l3.328-3.179c0,0-0.517-3.552-0.509-3.443S123.69,41.854,123.69,41.854z"/>
	<path fill="#590209" d="M136.139,41.814c-2.156-2.692-5.75-4.588-8.511-4.057l-2.603,9.865c-0.443,1.675-0.548,3.421-0.311,5.137
		c1.031,7.456,3.93,22.532,4.165,24.45c3.679-0.051,7.455,1.222,11.26,2.877C139.895,75.973,139.087,45.495,136.139,41.814z"/>
	<polygon fill="#432C47" points="54.864,117.625 61.839,69.575 60.173,69.334 53.164,117.625 	"/>
	<polygon fill="#432C47" points="127.276,117.625 120.266,69.334 118.6,69.575 125.575,117.625 	"/>
	<rect x="55.957" y="68.473" fill="#542360" width="67.052" height="1.964"/>
	<path fill="#FD5E5A" d="M122.79,26.744c0.001-0.291,0.258-1.152,0.737-0.898c0.479,0.255,0.925,1.264,0.186,1.529
		S122.786,27.024,122.79,26.744z"/>
	<path fill="#18287D" d="M119.797,31.964l-1.102,0.081l-0.197-2.692c-0.004-0.058,0.039-0.108,0.097-0.112s0.108,0.04,0.112,0.097
		l0.184,2.482l0.891-0.066c0.057-0.004,0.108,0.04,0.112,0.097C119.899,31.91,119.856,31.959,119.797,31.964z"/>
	
		<ellipse transform="matrix(0.9973 -0.0733 0.0733 0.9973 -1.7967 8.8677)" fill="#18287D" cx="119.892" cy="28.908" rx="0.453" ry="0.552"/>
	
		<ellipse transform="matrix(0.9973 -0.0733 0.0733 0.9973 -1.8384 8.7063)" fill="#18287D" cx="117.676" cy="29.396" rx="0.386" ry="0.508"/>
	<path fill="#18287D" d="M119.094,26.914c0,0,0.718-0.171,1.253,0.165c0.534,0.335,0.557,1.219,0.557,1.219
		s-0.084-0.756-0.601-0.956c-0.515-0.2-1.396-0.131-1.396-0.131L119.094,26.914z"/>
	<path fill="#F2A97E" d="M64.793,19.242c-6.2,0-11.245-5.044-11.245-11.244c0-6.2,5.044-11.245,11.245-11.245
		c6.2,0,11.244,5.044,11.244,11.245C76.037,14.198,70.993,19.242,64.793,19.242z M64.793-2.052c-5.542,0-10.05,4.508-10.05,10.05
		c0,5.541,4.508,10.049,10.05,10.049s10.05-4.508,10.05-10.049C74.843,2.457,70.335-2.052,64.793-2.052z"/>
	<path fill="#F2A97E" d="M72.58,8.349h-8.138v-8.95c0-0.193,0.157-0.351,0.351-0.351s0.351,0.158,0.351,0.351v8.247h7.436
		c0.194,0,0.352,0.157,0.352,0.351C72.931,8.192,72.774,8.349,72.58,8.349z"/>
	<polygon fill="#FFFFFF" points="121.813,40.376 122.165,41.919 122.075,44.462 	"/>
	<g>
		<path fill="#DAE2FB" d="M82.114,35.424c-0.056-0.038-0.12,0.035-0.076,0.086c0.01,0.011,1.353,1.522,1.486,1.679
			c1.326,1.474,1.306,2.083,1.317,2.104c0,0.024,0.001,0.049,0.002,0.073c0,0.021-0.006,0.03-0.003,0.047
			c0.003,0.013-0.01,0.035-0.011,0.052c-0.323,1.152-4.377,2.939-3.344,5.615c0.142,0.431,0.514,0.83,0.736,1.741
			c0.01,0.116,0.293,1.114-0.058,2.346c-0.211,0.737-0.372,0.972-0.395,1.026c-0.036,0.064,0.057,0.121,0.099,0.061
			c0.407-0.583,0.711-1.424,0.791-2.096c0.114-0.622-0.02-1.418-0.018-1.407c-0.087-0.494-0.197-0.742-0.217-0.817
			c-0.256-0.89-1.438-1.813,0.763-3.86c1.211-1.134,2.561-1.908,2.309-3.003C85.381,38.542,83.232,36.183,82.114,35.424z"/>
		<path fill="#DAE2FB" d="M74.201,48.25c-0.905-1.113-2.323-0.425-1.433-2.162c0.447-0.835,0.742-0.999,0.65-1.088
			c-0.023-0.021-0.058-0.019-0.082,0.001c-0.427,0.371-0.92,0.904-1.159,1.413c-0.593,1.277,0.589,1.52,1.108,1.83
			c1.513,0.905-0.477,1.448-0.719,1.704c-0.534,0.535,0.731,1.771,1.306,2.268c0.05,0.043,0.122-0.019,0.085-0.074
			c-0.26-0.371-0.757-1.099-0.932-1.512c0-0.001-0.001-0.001-0.001-0.003c-0.068-0.16,0.016-0.343,0.175-0.411
			c0.438-0.186,0.84-0.402,1.096-0.813C74.509,49.052,74.493,48.628,74.201,48.25z"/>
		<path fill="#DAE2FB" d="M94.122,47.454c-0.061-0.06-0.137-0.138-0.189-0.192c1.071-0.74,1.74-1.495,1.092-2.557
			c-0.481-0.776-1.451-1.306-2.3-1.652c-0.064-0.023-0.109,0.068-0.05,0.104c0.707,0.441,2.016,1.428,2.035,2.258
			c0.01,0.371-0.239,0.58-0.521,0.821c-0.786,0.654-1.464,0.676-0.968,1.341c0.367,0.501,1.818,1.585,1.57,2.875
			c-0.174,0.958-1.027,1.187-1.747,2.613c-0.714,1.338-0.779,2.822,0.003,4.115c0.036,0.06,0.127,0.016,0.104-0.05
			c-0.016-0.312-1.05-2.107,1.023-4.545c0.392-0.477,1-0.874,1.269-1.625c0.039-0.119,0.085-0.235,0.104-0.362
			C95.816,49.356,95.002,48.319,94.122,47.454z"/>
	</g>
	<g>
		<path fill="#2846A6" d="M72.015,56.748c-0.017,0-0.035-0.003-0.053-0.008l-12.28-3.868c-0.093-0.029-0.145-0.128-0.115-0.22
			c0.03-0.094,0.128-0.145,0.221-0.116l12.28,3.868c0.093,0.029,0.144,0.128,0.116,0.221C72.159,56.7,72.09,56.748,72.015,56.748z"
			/>
	</g>
	<g>
		<path fill="#2846A6" d="M59.734,62.454c-0.085,0-0.16-0.063-0.174-0.149c-0.014-0.096,0.052-0.187,0.148-0.201l12.281-1.886
			c0.096-0.016,0.186,0.052,0.201,0.147c0.015,0.097-0.051,0.187-0.148,0.201l-12.28,1.885
			C59.752,62.454,59.744,62.454,59.734,62.454z"/>
	</g>
	<g>
		<path fill="#2846A6" d="M76.782,47.808c-0.074,0-0.144-0.048-0.168-0.124l-3.997-12.463c-0.029-0.093,0.022-0.192,0.114-0.222
			c0.093-0.03,0.192,0.021,0.222,0.114l3.997,12.464c0.03,0.093-0.021,0.193-0.115,0.222C76.818,47.805,76.801,47.808,76.782,47.808
			z"/>
	</g>
	
		<ellipse transform="matrix(0.9973 -0.0731 0.0731 0.9973 -2.1291 8.9013)" fill="#18287D" cx="120.538" cy="33.537" rx="0.748" ry="1.044"/>
	<g>
		<path fill="#2846A6" d="M110.897,59.633H98.545c-0.097,0-0.176-0.078-0.176-0.177c0-0.098,0.079-0.176,0.176-0.176h12.352
			c0.098,0,0.178,0.078,0.178,0.176C111.075,59.555,110.995,59.633,110.897,59.633z"/>
	</g>
	<g>
		<path fill="#2846A6" d="M89.314,47.808c-0.011,0-0.023-0.001-0.035-0.004c-0.095-0.02-0.157-0.112-0.137-0.208l3.17-15.496
			c0.02-0.096,0.113-0.157,0.208-0.137c0.095,0.019,0.157,0.112,0.138,0.208l-3.171,15.496C89.47,47.75,89.396,47.808,89.314,47.808
			z"/>
	</g>
	<g>
		<path fill="#2846A6" d="M99.135,56.692c-0.063,0-0.124-0.035-0.156-0.095c-0.045-0.087-0.012-0.193,0.075-0.238l9.409-4.924
			c0.087-0.045,0.194-0.012,0.239,0.074c0.045,0.087,0.012,0.193-0.075,0.238l-9.41,4.925
			C99.191,56.687,99.164,56.692,99.135,56.692z"/>
	</g>
	<path fill="#FC7575" d="M130.032,22.395c0,0-1.832-0.861-2.977-0.688c-0.826,0.125-2.383,0.145-2.299,0.405
		c0.084,0.26,2.916,0.289,2.916,0.289s1.297,0.587-0.091,0.354c-0.796-0.135-3.666,0.046-2.769,0.446
		c0.896,0.4,2.063,0.244,2.063,0.244s1.819,0.045,1.434,0.208c-0.783,0.329-2.752,0.451-2.752,0.451s-0.328-0.004,0.012,0.256
		c0.623,0.479,2.791-0.121,5.492,1.559c1.758,1.092,4.256,3.354,6.419,4.1c0.448-1.245,1.06-2.444,0.659-3.646
		C132.897,24.443,132.319,23.796,130.032,22.395z"/>
	<polygon fill="#E8F7F0" points="131.973,23.021 130.976,26.318 133.102,27.656 134.156,24.125 	"/>
	<path fill="#590209" d="M133.492,23.465l-2.103,4.191c0,0,7.029,2.896,8.127,5.34c1.098,2.443-7.186,5.742-7.186,5.742
		s1.939,10.501,5.621,8.894s9.405-10.012,9.405-13.298C147.357,31.048,133.492,23.465,133.492,23.465z"/>
</g>
<circle opacity="0.1" fill="#FFCB57" cx="41.972" cy="34.58" r="3.614"/>
<circle opacity="0.1" fill="#FFCB57" cx="35.891" cy="53.674" r="2.467"/>
<circle opacity="0.1" fill="#FFCB57" cx="33.425" cy="66.125" r="1.015"/>
<circle opacity="0.1" fill="#FFCB57" cx="100.304" cy="33.538" r="2.467"/>
<circle opacity="0.1" fill="#FFCB57" cx="154.794" cy="30.249" r="1.614"/>
<path opacity="0.5" fill="#EFD27F" d="M186.381,130.033c0,0.715-1.125,1.293-2.512,1.293H24.814c-1.387,0-2.511-0.578-2.511-1.293
	v-1.428c0-0.714,1.125-1.294,2.511-1.294H183.87c1.387,0,2.512,0.58,2.512,1.294V130.033z"/>
<circle fill="#FFFFFF" cx="152.895" cy="50.28" r="1.952"/>
<circle fill="#FFFFFF" cx="152.895" cy="82.839" r="2.752"/>
<circle fill="#FFFFFF" cx="57.785" cy="47.746" r="1.952"/>
<g>
	<path fill="#294D3C" d="M139.35,107.696c-3.455-1.172-4.332,1.378-2.988,3.49c1.343,2.11,8.234,9.213,8.594,12.03
		c0.141,1.092,0.459,0.972,0.73,0.207C147.049,119.605,144.106,109.31,139.35,107.696z"/>
	<g>
		<path fill="#4A9075" d="M146.663,98.021c3.962-2.276,6.44,0.911,5.754,3.983c-0.684,3.074-6.125,13.913-5.144,17.714
			c0.378,1.473-0.106,1.382-0.861,0.427C142.639,115.385,141.211,101.154,146.663,98.021z"/>
		<path fill="#1B7154" d="M147.355,120.773c-0.085,0.142-0.273,0.071-0.526-0.164c-4.127-8.777,2.303-21.893,2.324-21.935
			c0.035-0.073,0.152-0.113,0.268-0.091c0.113,0.022,0.178,0.099,0.143,0.172C149.542,98.798,143.023,112.092,147.355,120.773z"/>
	</g>
	<g>
		<path fill="#A6C86B" d="M155.315,105.314c3.838-1.066,4.441,1.7,2.733,3.882c-1.709,2.182-9.987,9.392-10.741,12.376
			c-0.291,1.157-0.614,1.014-0.806,0.183C145.547,117.609,150.032,106.783,155.315,105.314z"/>
		<path fill="#5F9850" d="M146.958,122.372c-0.118,0.092-0.229,0.011-0.327-0.205c0.348-7.195,10.252-15.942,10.283-15.971
			c0.053-0.049,0.159-0.06,0.234-0.024c0.077,0.034,0.094,0.103,0.039,0.15C157.156,106.35,147.116,115.217,146.958,122.372z"/>
	</g>
	<g>
		<polygon fill="#3B405F" points="149.913,120.779 142.538,120.779 140.614,121.889 142.186,125.756 146.225,125.756 
			150.264,125.756 151.835,121.889 		"/>
		<path fill="#3B405F" d="M151.835,119.341h-11.224c-0.336,0-0.611,0.174-0.611,0.389v1.77c0,0.214,0.275,0.389,0.611,0.389h11.224
			c0.337,0,0.61-0.175,0.61-0.389v-1.77C152.448,119.515,152.172,119.341,151.835,119.341z"/>
		<polygon fill="#101537" points="140.614,121.889 140.936,122.683 151.512,122.683 151.835,121.889 		"/>
	</g>
</g>
<g>
	<path fill="#F2A97E" d="M112.485,60.91c1.494-0.684,2.018,0.353,1.521,1.321s-3.234,4.354-3.253,5.568
		c-0.008,0.473-0.156,0.438-0.318,0.128C109.628,66.381,110.428,61.851,112.485,60.91z"/>
	<g>
		<path fill="#FFCB57" d="M109.328,59.322c-1.472-0.584-2.211,0.569-1.851,1.553c0.36,0.985,2.686,4.329,2.492,5.621
			c-0.074,0.502,0.092,0.452,0.318,0.105C111.416,64.876,111.352,60.127,109.328,59.322z"/>
		<path fill="#1B7154" d="M109.982,66.848c0.036,0.043,0.099,0.013,0.177-0.076c1.096-3.064-1.664-7.117-1.673-7.13
			c-0.017-0.022-0.06-0.03-0.099-0.019c-0.037,0.013-0.058,0.04-0.042,0.063C108.354,59.698,111.153,63.808,109.982,66.848z"/>
	</g>
	<g>
		<path fill="#A6C86B" d="M106.983,62.964c-1.303-0.175-1.395,0.709-0.749,1.316c0.646,0.606,3.643,2.508,4.005,3.402
			c0.141,0.348,0.24,0.29,0.271,0.024C110.664,66.382,108.775,63.204,106.983,62.964z"/>
		<path fill="#5F9850" d="M110.383,67.917c0.043,0.023,0.076-0.005,0.101-0.077c-0.392-2.219-3.981-4.53-3.993-4.537
			c-0.02-0.013-0.055-0.012-0.078,0.001c-0.023,0.015-0.026,0.036-0.006,0.05C106.417,63.36,110.057,65.703,110.383,67.917z"/>
	</g>
	<g>
		<path fill="#A6C86B" d="M114.002,63.351c1.369,0.019,1.368,0.871,0.633,1.358c-0.734,0.484-4.047,1.866-4.52,2.667
			c-0.184,0.31-0.281,0.24-0.284-0.017C109.815,66.077,112.12,63.324,114.002,63.351z"/>
		<path fill="#5F9850" d="M109.94,67.577c-0.047,0.017-0.079-0.017-0.096-0.088c0.646-2.054,4.619-3.741,4.631-3.747
			c0.022-0.009,0.059-0.004,0.08,0.013c0.025,0.017,0.025,0.038,0.004,0.047C114.545,63.808,110.518,65.519,109.94,67.577z"/>
	</g>
	<g>
		<polygon fill="#3B405F" points="108.815,66.688 112.155,66.688 113.026,67.161 112.314,68.814 110.485,68.814 108.657,68.814 
			107.944,67.161 		"/>
		<path fill="#3B405F" d="M107.944,66.071h5.082c0.152,0,0.277,0.074,0.277,0.166v0.757c0,0.093-0.125,0.166-0.277,0.166h-5.082
			c-0.152,0-0.275-0.073-0.275-0.166v-0.757C107.667,66.146,107.792,66.071,107.944,66.071z"/>
		<polygon fill="#101537" points="113.026,67.161 112.879,67.501 108.09,67.501 107.944,67.161 		"/>
	</g>
</g>
</svg>
