<?xml version="1.0" encoding="utf-8"?>
<!-- Generator: Adobe Illustrator 16.0.0, SVG Export Plug-In . SVG Version: 6.00 Build 0)  -->
<!DOCTYPE svg PUBLIC "-//W3C//DTD SVG 1.1//EN" "http://www.w3.org/Graphics/SVG/1.1/DTD/svg11.dtd">
<svg version="1.1" id="Layer_1" xmlns="http://www.w3.org/2000/svg" xmlns:xlink="http://www.w3.org/1999/xlink" x="0px" y="0px"
	 width="21.5px" height="21.154px" viewBox="0 0 21.5 21.154" enable-background="new 0 0 21.5 21.154" xml:space="preserve">
<g>
	<g>
		<path fill-rule="evenodd" clip-rule="evenodd" fill="#939598" d="M14.452,6.023c-1.779,0.838-3.423,1.617-5.069,2.392
			C9.074,8.56,8.78,8.76,8.455,8.84c-0.913,0.228-1.154,0.804-1.054,1.682c0.047,0.41,0.147,0.633,0.614,0.659
			c0.016-0.161,0.068-0.32,0.041-0.464C7.882,9.801,8.271,9.341,9.132,8.984c1.848-0.772,3.638-1.686,5.459-2.526
			c0.18-0.083,0.438-0.137,0.608-0.071c0.69,0.271,1.368,0.577,2.032,0.907c0.59,0.293,0.888,0.818,0.891,1.468
			c0.01,1.887,0.007,3.775-0.021,5.664c-0.01,0.672-0.342,1.197-0.975,1.471c-1.803,0.781-3.599,1.583-5.429,2.297
			c-0.419,0.161-1.017,0.124-1.444-0.044c-1.717-0.67-3.398-1.435-5.099-2.148c-0.793-0.337-1.192-0.911-1.192-1.771
			c0.002-1.809-0.001-3.616,0.002-5.425c0.002-0.762,0.361-1.295,1.057-1.604c1.741-0.772,3.474-1.566,5.229-2.31
			c0.348-0.146,0.822-0.251,1.156-0.134C12.402,5.097,13.357,5.559,14.452,6.023z M13.174,6.048c-0.573-0.252-1.048-0.528-1.56-0.67
			c-0.359-0.101-0.816-0.14-1.146-0.002C8.71,6.108,6.978,6.902,5.237,7.677C4.727,7.904,4.479,8.293,4.482,8.862
			c0.008,1.786,0.007,3.572,0,5.358c-0.003,0.61,0.254,1.03,0.819,1.272c1.715,0.729,3.418,1.485,5.148,2.177
			c0.334,0.135,0.812,0.142,1.145,0.01c1.748-0.698,3.473-1.458,5.205-2.199c0.513-0.222,0.782-0.605,0.786-1.17
			c0.014-1.786,0.044-3.572,0.027-5.358c-0.003-0.317-0.106-0.781-0.325-0.918c-0.722-0.45-1.515-0.79-2.29-1.151
			c-0.079-0.036-0.227,0.052-0.333,0.103c-1.906,0.892-3.814,1.781-5.707,2.702C8.782,9.773,8.62,10.06,8.602,10.267
			c-0.049,0.567-0.017,1.144-0.017,1.732c-1.667-0.452-1.667-0.452-1.667-2.037c0-0.142,0.02-0.286-0.004-0.421
			C6.835,9.102,7.059,8.913,7.435,8.742C9.326,7.873,11.204,6.979,13.174,6.048z"/>
		<path fill="#939598" d="M11.07,18.439c-0.302,0-0.61-0.056-0.87-0.156c-1.125-0.439-2.251-0.926-3.342-1.397
			c-0.585-0.254-1.172-0.506-1.759-0.753c-0.85-0.358-1.282-0.999-1.28-1.902v-2.204c0-1.073,0-2.146,0.002-3.221
			C3.822,7.99,4.208,7.406,4.962,7.071c0.469-0.21,0.937-0.418,1.405-0.628c1.25-0.56,2.542-1.139,3.826-1.681
			c0.452-0.196,0.939-0.252,1.26-0.142c0.709,0.244,1.398,0.547,2.128,0.867c0.3,0.132,0.607,0.269,0.926,0.405l0.296,0.125
			L9.444,8.545C9.351,8.589,9.259,8.638,9.166,8.687C8.952,8.801,8.731,8.918,8.49,8.979c-0.774,0.192-1.048,0.635-0.947,1.524
			c0.038,0.33,0.099,0.475,0.35,0.518C7.895,11.015,7.896,11.008,7.896,11c0.016-0.096,0.032-0.186,0.019-0.257
			C7.739,9.817,8.075,9.268,9.076,8.85c1.21-0.503,2.415-1.08,3.582-1.637c0.623-0.298,1.246-0.596,1.873-0.885
			c0.243-0.114,0.536-0.146,0.722-0.075c0.676,0.267,1.362,0.574,2.044,0.913c0.622,0.311,0.966,0.878,0.97,1.596
			c0.011,2.162,0.003,3.963-0.021,5.666c-0.012,0.74-0.39,1.31-1.063,1.601l-0.986,0.43c-1.45,0.631-2.949,1.285-4.448,1.867
			C11.557,18.4,11.322,18.439,11.07,18.439z M11.077,4.851c-0.229,0-0.509,0.063-0.771,0.173C9.024,5.568,7.733,6.146,6.484,6.705
			C6.016,6.915,5.547,7.122,5.08,7.333c-0.652,0.29-0.97,0.771-0.971,1.473c-0.004,1.075-0.002,2.147-0.002,3.221v2.204
			c-0.001,0.786,0.36,1.324,1.104,1.639c0.589,0.247,1.175,0.501,1.761,0.753c1.089,0.472,2.214,0.955,3.334,1.396
			c0.406,0.156,0.986,0.176,1.339,0.041c1.493-0.581,2.989-1.234,4.437-1.864l0.987-0.43c0.572-0.247,0.879-0.711,0.889-1.339
			c0.026-1.703,0.032-3.502,0.021-5.664c-0.002-0.613-0.284-1.077-0.811-1.341c-0.673-0.335-1.353-0.638-2.021-0.901
			c-0.104-0.042-0.326-0.01-0.496,0.068c-0.626,0.288-1.249,0.586-1.871,0.884c-1.169,0.56-2.377,1.137-3.594,1.645
			c-0.871,0.361-1.138,0.789-0.989,1.573c0.023,0.122,0.002,0.244-0.019,0.359c-0.007,0.049-0.016,0.096-0.021,0.145L8.145,11.33
			l-0.137-0.008c-0.613-0.034-0.706-0.405-0.749-0.786C7.142,9.512,7.511,8.928,8.421,8.701c0.206-0.052,0.403-0.156,0.611-0.267
			c0.096-0.052,0.193-0.103,0.291-0.149l4.78-2.255c-0.217-0.093-0.429-0.188-0.638-0.278c-0.723-0.32-1.406-0.621-2.105-0.86
			C11.279,4.865,11.184,4.851,11.077,4.851z M11.043,17.919c-0.232,0-0.461-0.041-0.646-0.114c-1.221-0.489-2.446-1.017-3.632-1.527
			c-0.506-0.22-1.013-0.438-1.52-0.652c-0.613-0.262-0.909-0.719-0.906-1.404c0.007-1.786,0.007-3.572,0-5.358
			c-0.004-0.626,0.28-1.067,0.839-1.317c0.43-0.19,0.858-0.383,1.289-0.576c1.288-0.577,2.621-1.176,3.946-1.728
			c0.159-0.063,0.35-0.098,0.566-0.098c0.272,0,0.517,0.051,0.673,0.095c0.366,0.104,0.708,0.267,1.072,0.442
			c0.162,0.078,0.331,0.159,0.508,0.237l0.287,0.127L11.941,6.79c-1.528,0.724-2.972,1.405-4.447,2.082
			C7.102,9.053,6.999,9.204,7.054,9.515c0.02,0.109,0.015,0.218,0.01,0.32C7.061,9.876,7.06,9.918,7.06,9.962
			c0,1.417,0,1.473,1.381,1.85c-0.001-0.105-0.002-0.208-0.004-0.313c-0.007-0.408-0.013-0.83,0.022-1.243
			c0.021-0.244,0.202-0.582,0.438-0.696C10.509,8.771,12.16,8,13.757,7.252l0.898-0.423c0.128-0.063,0.287-0.132,0.403-0.075
			l0.41,0.188c0.635,0.293,1.292,0.594,1.895,0.971c0.304,0.192,0.39,0.765,0.392,1.038c0.012,1.31-0.001,2.639-0.013,3.927
			c-0.005,0.479-0.01,0.955-0.014,1.434c-0.004,0.615-0.298,1.056-0.872,1.303c-0.437,0.186-0.873,0.373-1.309,0.562
			c-1.273,0.548-2.59,1.114-3.899,1.637C11.475,17.883,11.266,17.919,11.043,17.919z M10.979,5.432
			c-0.178,0-0.333,0.024-0.457,0.076C9.201,6.058,7.871,6.656,6.584,7.23c-0.43,0.192-0.859,0.386-1.289,0.576
			c-0.459,0.205-0.672,0.54-0.669,1.053c0.007,1.789,0.007,3.575,0,5.363c-0.002,0.564,0.229,0.926,0.73,1.139
			c0.508,0.215,1.015,0.435,1.522,0.652c1.184,0.511,2.408,1.036,3.625,1.522c0.294,0.119,0.753,0.124,1.037,0.01
			c1.307-0.521,2.622-1.088,3.893-1.635c0.436-0.188,0.874-0.376,1.31-0.563c0.465-0.2,0.695-0.542,0.699-1.04
			c0.003-0.477,0.008-0.958,0.013-1.435c0.013-1.285,0.025-2.614,0.013-3.922c-0.002-0.308-0.107-0.701-0.258-0.796
			c-0.585-0.367-1.235-0.665-1.862-0.953l-0.412-0.19c-0.016,0.005-0.105,0.051-0.154,0.073l-0.058,0.029l-0.847,0.398
			c-1.597,0.745-3.247,1.52-4.858,2.301c-0.122,0.062-0.261,0.296-0.276,0.465c-0.034,0.398-0.028,0.797-0.022,1.214
			c0.003,0.169,0.006,0.338,0.006,0.506v0.188l-0.181-0.052c-1.725-0.464-1.775-0.524-1.775-2.174c0-0.047,0.002-0.093,0.005-0.14
			c0.003-0.093,0.007-0.179-0.006-0.257C6.674,9.016,7.004,8.781,7.375,8.61c1.472-0.674,2.916-1.358,4.443-2.079l1.015-0.481
			c-0.08-0.036-0.158-0.073-0.233-0.11c-0.352-0.171-0.684-0.329-1.025-0.425C11.378,5.461,11.166,5.432,10.979,5.432z"/>
	</g>
	<g>
		<path fill-rule="evenodd" clip-rule="evenodd" fill="#939598" d="M17.341,13.834c0.198,0.389,0.143,0.652-0.24,0.813
			c-1.585,0.662-3.169,1.332-4.759,1.986c-0.119,0.05-0.282-0.007-0.425-0.015c0.019-0.166,0.005-0.344,0.066-0.496
			c0.036-0.093,0.176-0.156,0.282-0.202c1.599-0.685,3.198-1.366,4.8-2.043C17.135,13.849,17.219,13.852,17.341,13.834z"/>
		<path fill="#939598" d="M12.225,16.798c-0.061,0-0.126-0.01-0.191-0.02c-0.042-0.007-0.084-0.013-0.125-0.015l-0.153-0.008
			l0.018-0.151c0.005-0.046,0.007-0.095,0.01-0.144c0.007-0.13,0.015-0.264,0.066-0.391c0.054-0.138,0.205-0.216,0.36-0.281
			c1.597-0.685,3.198-1.366,4.798-2.043c0.066-0.029,0.135-0.034,0.205-0.041c0.032-0.003,0.066-0.008,0.106-0.013l0.102-0.015
			l0.046,0.091c0.129,0.254,0.16,0.462,0.096,0.638c-0.059,0.158-0.195,0.283-0.408,0.373l-1.407,0.589
			c-1.117,0.47-2.232,0.938-3.352,1.397C12.347,16.788,12.291,16.798,12.225,16.798z M12.07,16.495c0.002,0,0.005,0,0.007,0
			c0.079,0.012,0.17,0.024,0.21,0.007c1.12-0.462,2.236-0.928,3.351-1.397l1.407-0.591c0.138-0.057,0.219-0.125,0.25-0.208
			c0.028-0.078,0.015-0.186-0.041-0.317c-0.005,0.002-0.008,0.002-0.013,0.002c-0.053,0.005-0.096,0.008-0.121,0.02
			c-1.601,0.677-3.199,1.356-4.797,2.043c-0.173,0.073-0.203,0.112-0.207,0.125c-0.034,0.083-0.04,0.188-0.045,0.298
			C12.071,16.482,12.071,16.487,12.07,16.495z"/>
	</g>
	<g>
		<path fill-rule="evenodd" clip-rule="evenodd" fill="#939598" d="M15.236,12.09c-0.582-0.062-0.563-0.379-0.348-0.794
			c0.222-0.426,0.403-0.875,0.63-1.298c0.198-0.366,0.479-0.405,0.773-0.098c0.194,0.203,0.373,0.423,0.556,0.633
			c0.221,0.262,0.188,0.479-0.046,0.738c-0.151,0.166-0.265,0.418-0.286,0.643c-0.044,0.459-0.006,0.923-0.018,1.385
			c-0.012,0.516-0.343,0.89-0.85,0.877c-0.141-0.002-0.377-0.264-0.392-0.425C15.206,13.216,15.236,12.671,15.236,12.09z
			 M15.914,10.094c-0.147,0.313-0.259,0.525-0.352,0.745c-0.076,0.181-0.195,0.376-0.178,0.555c0.029,0.296,0.197,0.579,0.223,0.877
			c0.041,0.469,0.01,0.943,0.01,1.417c0.069,0.024,0.137,0.049,0.206,0.073c0.093-0.171,0.25-0.335,0.264-0.511
			c0.037-0.479-0.021-0.965,0.024-1.441c0.032-0.327,0.172-0.643,0.263-0.965c0.07,0.002,0.139,0.005,0.208,0.007
			C16.375,10.616,16.168,10.382,15.914,10.094z"/>
		<path fill="#939598" d="M15.67,14.32h-0.025c-0.228-0.005-0.512-0.335-0.532-0.555c-0.037-0.396-0.03-0.787-0.024-1.199
			c0.001-0.117,0.002-0.234,0.004-0.354c-0.218-0.042-0.36-0.13-0.434-0.267c-0.123-0.227,0-0.516,0.103-0.716
			c0.103-0.198,0.195-0.398,0.29-0.599c0.11-0.236,0.219-0.472,0.342-0.701c0.169-0.313,0.375-0.379,0.517-0.379
			c0.164,0,0.328,0.083,0.486,0.252c0.15,0.156,0.293,0.322,0.434,0.488l0.127,0.149c0.343,0.403,0.137,0.724-0.049,0.926
			c-0.132,0.145-0.23,0.369-0.249,0.563c-0.027,0.275-0.022,0.564-0.017,0.845c0.002,0.176,0.005,0.353,0.001,0.53
			C16.628,13.902,16.229,14.32,15.67,14.32z M15.876,9.842c-0.102,0.02-0.181,0.13-0.232,0.225c-0.12,0.223-0.226,0.455-0.334,0.685
			c-0.095,0.205-0.19,0.41-0.295,0.61c-0.112,0.218-0.146,0.369-0.104,0.447c0.037,0.071,0.155,0.117,0.34,0.137l0.128,0.015v0.13
			c0,0.161-0.002,0.322-0.005,0.481c-0.006,0.405-0.011,0.789,0.024,1.168c0.008,0.093,0.182,0.283,0.254,0.293h0.017
			c0.399,0,0.676-0.296,0.686-0.738c0.003-0.171,0.001-0.345-0.001-0.516c-0.005-0.288-0.01-0.584,0.019-0.879
			c0.024-0.252,0.15-0.535,0.322-0.724c0.056-0.063,0.098-0.119,0.124-0.171L16.48,10.99c-0.021,0.066-0.043,0.132-0.065,0.198
			c-0.072,0.217-0.141,0.425-0.161,0.635c-0.022,0.239-0.019,0.489-0.015,0.733c0.005,0.229,0.009,0.469-0.01,0.703
			c-0.012,0.159-0.102,0.293-0.187,0.421c-0.033,0.051-0.066,0.1-0.093,0.148l-0.059,0.11l-0.389-0.142l-0.028-0.11
			c0-0.142,0.002-0.286,0.005-0.428c0.006-0.322,0.012-0.657-0.015-0.977c-0.012-0.135-0.058-0.27-0.105-0.411
			c-0.05-0.149-0.103-0.303-0.119-0.467c-0.017-0.176,0.064-0.352,0.137-0.506c0.019-0.039,0.037-0.078,0.053-0.117
			c0.062-0.146,0.133-0.293,0.219-0.469L15.876,9.842z M15.95,10.35l-0.042,0.091c-0.082,0.169-0.152,0.311-0.213,0.454
			c-0.017,0.042-0.037,0.084-0.056,0.127c-0.06,0.128-0.121,0.257-0.111,0.357c0.012,0.129,0.057,0.262,0.104,0.4
			c0.051,0.154,0.105,0.311,0.12,0.479c0.029,0.335,0.022,0.678,0.016,1.007c-0.002,0.107-0.004,0.213-0.005,0.32
			c0.013-0.02,0.028-0.042,0.042-0.063c0.07-0.103,0.133-0.198,0.14-0.283c0.018-0.223,0.014-0.455,0.01-0.677
			c-0.005-0.252-0.01-0.511,0.015-0.768c0.023-0.239,0.102-0.472,0.175-0.696c0.033-0.098,0.065-0.195,0.093-0.293l0.028-0.098
			L15.95,10.35z M15.883,9.84l0.962,1.094c0.024-0.103-0.012-0.195-0.107-0.305l-0.127-0.151c-0.138-0.161-0.276-0.325-0.422-0.477
			C16.074,9.881,15.968,9.82,15.883,9.84z"/>
	</g>
	<g>
		<path fill-rule="evenodd" clip-rule="evenodd" fill="#939598" d="M14.16,12.158c-0.038,0.122-0.038,0.176-0.063,0.195
			c-0.758,0.625-0.291,1.485-0.438,2.226c-0.045,0.228-0.157,0.511-0.331,0.626c-0.577,0.381-0.816,0.236-0.848-0.447
			c-0.013-0.301-0.01-0.602-0.017-0.901c-0.006-0.245,0.082-0.519-0.294-0.613c-0.071-0.018-0.149-0.32-0.103-0.445
			c0.183-0.483,0.402-0.955,0.634-1.419c0.189-0.377,0.468-0.43,0.755-0.103C13.714,11.571,13.947,11.89,14.16,12.158z
			 M13.084,11.479c-0.181,0.421-0.568,0.938-0.449,1.114c0.358,0.53,0.123,1.058,0.207,1.571c0.041,0.244,0.051,0.493,0.076,0.74
			c0.063,0.01,0.125,0.021,0.187,0.032c0.061-0.177,0.164-0.353,0.173-0.528c0.025-0.459-0.021-0.924,0.019-1.378
			c0.027-0.296,0.155-0.576,0.275-0.994C13.5,11.955,13.319,11.748,13.084,11.479z"/>
		<path fill="#939598" d="M12.829,15.555c-0.456,0-0.484-0.594-0.493-0.792c-0.01-0.186-0.011-0.374-0.012-0.562
			c-0.001-0.113-0.002-0.228-0.005-0.34c-0.001-0.044,0-0.091,0.002-0.135c0.009-0.223,0.002-0.296-0.189-0.345
			c-0.059-0.015-0.106-0.059-0.143-0.132c-0.061-0.114-0.114-0.354-0.058-0.503c0.164-0.435,0.368-0.892,0.639-1.435
			c0.165-0.327,0.369-0.396,0.512-0.396c0.164,0,0.325,0.088,0.48,0.267c0.186,0.21,0.354,0.428,0.518,0.638
			c0.066,0.085,0.129,0.168,0.192,0.246l0.048,0.062l-0.023,0.07c-0.014,0.047-0.022,0.081-0.028,0.107
			c-0.015,0.059-0.028,0.115-0.079,0.157c-0.448,0.371-0.416,0.818-0.377,1.336c0.02,0.267,0.04,0.543-0.014,0.809
			c-0.024,0.122-0.125,0.54-0.393,0.716C13.168,15.48,12.983,15.555,12.829,15.555z M12.241,13.116
			c0.387,0.114,0.375,0.417,0.368,0.623c-0.002,0.036-0.003,0.075-0.002,0.114c0.002,0.115,0.004,0.229,0.004,0.345
			c0.002,0.184,0.003,0.369,0.012,0.552c0.024,0.519,0.161,0.519,0.207,0.519c0.064,0,0.19-0.032,0.419-0.184
			c0.13-0.085,0.229-0.33,0.27-0.532c0.045-0.229,0.027-0.475,0.008-0.73c-0.039-0.516-0.082-1.1,0.458-1.559
			c0.001-0.008,0.003-0.016,0.005-0.025c0.003-0.014,0.008-0.031,0.013-0.051c-0.049-0.062-0.098-0.125-0.149-0.19
			c-0.161-0.205-0.326-0.421-0.507-0.626c-0.096-0.107-0.188-0.168-0.264-0.168c-0.119,0-0.21,0.151-0.254,0.239
			c-0.268,0.532-0.468,0.979-0.629,1.407C12.181,12.898,12.21,13.053,12.241,13.116z M13.201,15.098l-0.416-0.068l-0.011-0.11
			c-0.007-0.081-0.015-0.161-0.021-0.242c-0.014-0.163-0.027-0.327-0.054-0.488c-0.032-0.195-0.022-0.389-0.012-0.577
			c0.017-0.324,0.034-0.635-0.172-0.94c-0.129-0.19,0.027-0.477,0.226-0.835c0.075-0.14,0.154-0.281,0.21-0.413l0.09-0.21
			l0.689,0.789l-0.022,0.075c-0.04,0.14-0.082,0.267-0.12,0.382c-0.074,0.225-0.134,0.402-0.15,0.584
			c-0.021,0.241-0.018,0.496-0.014,0.74c0.004,0.21,0.007,0.422-0.004,0.633c-0.01,0.146-0.065,0.28-0.121,0.412
			c-0.021,0.052-0.043,0.104-0.061,0.154L13.201,15.098z M13.119,11.738c-0.04,0.078-0.084,0.156-0.126,0.234
			c-0.096,0.176-0.256,0.469-0.235,0.545c0.256,0.379,0.235,0.767,0.217,1.111c-0.01,0.179-0.019,0.347,0.008,0.514
			c0.028,0.168,0.043,0.339,0.057,0.513c0.001,0.015,0.002,0.029,0.003,0.046c0.045-0.107,0.087-0.207,0.092-0.303
			c0.011-0.203,0.007-0.408,0.005-0.61c-0.005-0.252-0.009-0.514,0.013-0.77c0.02-0.216,0.085-0.416,0.164-0.647
			c0.029-0.094,0.062-0.191,0.095-0.299L13.119,11.738z"/>
	</g>
</g>
</svg>
