<?xml version="1.0" encoding="utf-8"?>
<!-- Generator: Adobe Illustrator 16.0.0, SVG Export Plug-In . SVG Version: 6.00 Build 0)  -->
<!DOCTYPE svg PUBLIC "-//W3C//DTD SVG 1.1//EN" "http://www.w3.org/Graphics/SVG/1.1/DTD/svg11.dtd">
<svg version="1.1" id="Layer_1" xmlns="http://www.w3.org/2000/svg" xmlns:xlink="http://www.w3.org/1999/xlink" x="0px" y="0px"
	 width="50px" height="51px" viewBox="0 0 50 51" enable-background="new 0 0 50 51" xml:space="preserve">
<g>
	<defs>
		<circle id="SVGID_11_" cx="25.346" cy="25.774" r="22.704"/>
	</defs>
	<clipPath id="SVGID_2_">
		<use xlink:href="#SVGID_11_"  overflow="visible"/>
	</clipPath>
	<circle opacity="0.4" clip-path="url(#SVGID_2_)" fill="#FFE770" cx="25.346" cy="25.774" r="22.704"/>
	<polyline opacity="0.3" clip-path="url(#SVGID_2_)" fill-rule="evenodd" clip-rule="evenodd" fill="#ED971B" points="
		28.129,14.235 56.069,37.417 42.34,66.048 17.155,35.048 	"/>
	<g clip-path="url(#SVGID_2_)">
		<g>
			<path fill-rule="evenodd" clip-rule="evenodd" fill="#F1B82B" d="M25.932,37.417c-1.929-0.004-3.836-0.186-5.7-0.709
				c-0.869-0.242-1.715-0.549-2.455-1.082c-0.228-0.164-0.434-0.369-0.622-0.578c-0.22-0.244-0.324-0.545-0.324-0.879
				c-0.006-2.807,1.895-5.361,4.59-6.172c0.017-0.006,0.034-0.008,0.05-0.014c0.469-0.174,0.872-0.176,1.333,0.145
				c0.84,0.586,1.824,0.803,2.852,0.82c0.89,0.016,1.77-0.033,2.595-0.396c0.427-0.188,0.823-0.445,1.237-0.666
				c0.075-0.039,0.173-0.072,0.251-0.061c2.564,0.426,4.738,2.576,5.191,5.139c0.059,0.33,0.076,0.666,0.115,1
				c0.064,0.551-0.162,0.982-0.549,1.35c-0.428,0.404-0.938,0.68-1.471,0.912c-1.051,0.455-2.155,0.717-3.279,0.9
				C28.484,37.331,27.212,37.423,25.932,37.417z"/>
			<path fill-rule="evenodd" clip-rule="evenodd" fill="#F1B82B" d="M26.452,27.714c-1.039,0.123-1.952-0.113-2.768-0.674
				c-1.524-1.045-2.394-2.508-2.585-4.338c-0.257-2.459,1.318-4.656,3.706-5.242c2.851-0.701,5.712,1.33,5.99,4.25
				c0.122,1.289-0.228,2.459-0.888,3.549c-0.031,0.053-0.102,0.098-0.162,0.111c-0.23,0.059-0.463,0.105-0.697,0.146
				c-0.057,0.012-0.137,0.008-0.18-0.025c-0.332-0.256-0.718-0.268-1.109-0.266c-0.203,0.002-0.406,0.006-0.609,0.008
				c-0.645,0.006-1.12,0.35-1.322,0.961c-0.165,0.498,0.046,1.082,0.522,1.441C26.371,27.651,26.393,27.669,26.452,27.714z"/>
			<path fill-rule="evenodd" clip-rule="evenodd" fill="#F1B82B" d="M17.892,23.517c0-0.391,0-0.779,0-1.168
				c-0.001-0.467,0.196-0.824,0.586-1.082c0.055-0.037,0.106-0.121,0.11-0.188c0.27-4.09,3.841-7.191,7.922-6.873
				c3.38,0.264,6.149,2.809,6.705,6.168c0.038,0.234,0.046,0.473,0.083,0.709c0.011,0.066,0.057,0.148,0.113,0.186
				c0.389,0.26,0.583,0.617,0.582,1.084c-0.002,0.783,0.001,1.568-0.002,2.352c-0.002,0.953-0.943,1.541-1.806,1.129
				c-0.073-0.033-0.128-0.068-0.218-0.006c-0.852,0.598-1.818,0.881-2.836,1.021c-0.047,0.006-0.093,0.016-0.139,0.018
				c-0.168,0.002-0.301,0.047-0.41,0.197c-0.111,0.156-0.297,0.219-0.492,0.221c-0.331,0.004-0.662,0.01-0.993,0
				c-0.419-0.012-0.723-0.328-0.726-0.736c-0.003-0.379,0.322-0.705,0.727-0.717c0.325-0.008,0.649,0.002,0.975,0.002
				c0.216,0,0.392,0.084,0.542,0.236c0.043,0.041,0.117,0.082,0.173,0.076c0.954-0.094,1.856-0.346,2.673-0.867
				c0.096-0.061,0.115-0.115,0.085-0.223c-0.034-0.121-0.046-0.252-0.046-0.377c-0.004-0.762,0.002-1.521-0.004-2.283
				c-0.003-0.484,0.18-0.863,0.592-1.131c0.045-0.029,0.081-0.111,0.078-0.166c-0.201-2.906-2.447-5.313-5.341-5.721
				c-3.41-0.484-6.563,1.871-7.059,5.271c-0.006,0.041-0.015,0.08-0.021,0.121c-0.039,0.252-0.063,0.465,0.222,0.643
				c0.301,0.189,0.415,0.535,0.416,0.896c0.001,0.809,0.006,1.615-0.001,2.422c-0.007,0.719-0.546,1.234-1.261,1.227
				c-0.707-0.008-1.226-0.529-1.23-1.24C17.89,24.317,17.892,23.917,17.892,23.517z"/>
		</g>
	</g>
</g>
</svg>
