<?xml version="1.0" encoding="utf-8"?>
<!-- Generator: Adobe Illustrator 16.0.0, SVG Export Plug-In . SVG Version: 6.00 Build 0)  -->
<!DOCTYPE svg PUBLIC "-//W3C//DTD SVG 1.1//EN" "http://www.w3.org/Graphics/SVG/1.1/DTD/svg11.dtd">
<svg version="1.1" id="Layer_1" xmlns="http://www.w3.org/2000/svg" xmlns:xlink="http://www.w3.org/1999/xlink" x="0px" y="0px"
	 width="29px" height="22.142px" viewBox="0 0 29 22.142" enable-background="new 0 0 29 22.142" xml:space="preserve">
<g>
	<path fill-rule="evenodd" clip-rule="evenodd" fill="#939598" d="M9.96,16.361c-0.021,0.269-0.032,0.424-0.047,0.622
		c-1.128,0-2.255,0-3.42,0c0-2.35,0-4.703,0-7.103c1.125,0,2.252,0,3.408,0c0.021,0.245,0.042,0.478,0.069,0.767
		c0.601,0,1.195-0.038,1.782,0.013c0.443,0.042,0.936,0.105,1.3,0.328c1.081,0.667,2.212,0.998,3.481,0.852
		c0.302-0.034,0.612-0.006,0.918-0.006c1.385,0,1.775,0.339,1.961,1.726c1.321-0.448,2.635-0.904,3.955-1.339
		c1.027-0.338,1.992,0.41,1.792,1.438c-0.069,0.35-0.353,0.776-0.66,0.945c-2.202,1.217-4.433,2.376-6.656,3.547
		c-0.58,0.31-1.177,0.263-1.78,0.059c-1.656-0.561-3.312-1.123-4.974-1.662C10.746,16.437,10.37,16.425,9.96,16.361z M9.926,11.307
		c0,1.532,0,3.005,0,4.361c0.748,0.203,1.438,0.359,2.109,0.575c1.375,0.441,2.742,0.91,4.108,1.378
		c0.561,0.191,1.083,0.172,1.62-0.112c2.07-1.104,4.15-2.187,6.228-3.274c0.388-0.203,0.712-0.437,0.511-0.951
		c-0.192-0.49-0.529-0.616-1.13-0.415c-0.692,0.233-1.384,0.466-2.073,0.709c-1.852,0.654-3.674,1.434-5.719,1.151
		c-0.179-0.024-0.487,0.108-0.56,0.253c-0.18,0.367-0.413,0.313-0.699,0.238c0.063-0.646,0.373-1.009,0.944-1.109
		c0.15-0.025,0.305-0.021,0.458-0.021c0.682-0.004,1.363,0.012,2.043-0.007c0.612-0.02,0.987-0.358,0.961-0.823
		c-0.026-0.474-0.373-0.74-0.974-0.746c-0.51-0.004-1.025-0.041-1.531,0.008c-1.13,0.112-2.145-0.154-3.094-0.768
		c-0.309-0.198-0.67-0.395-1.021-0.427C11.4,11.261,10.682,11.307,9.926,11.307z"/>
	<g>
		<path fill-rule="evenodd" clip-rule="evenodd" fill="#939598" d="M17.807,3.532c-1.028,0.482-1.977,0.935-2.928,1.381
			C14.7,4.996,14.531,5.11,14.343,5.158c-0.528,0.132-0.667,0.465-0.609,0.973c0.027,0.235,0.085,0.365,0.354,0.38
			c0.009-0.093,0.039-0.184,0.023-0.268c-0.1-0.531,0.125-0.794,0.622-1.002c1.067-0.446,2.101-0.974,3.153-1.458
			c0.105-0.049,0.254-0.081,0.353-0.042c0.398,0.157,0.79,0.333,1.173,0.524c0.34,0.169,0.513,0.474,0.515,0.849
			c0.006,1.09,0.004,2.181-0.012,3.271c-0.006,0.39-0.197,0.691-0.563,0.848c-1.042,0.454-2.08,0.916-3.137,1.329
			c-0.242,0.093-0.587,0.07-0.834-0.024c-0.992-0.389-1.963-0.829-2.945-1.243c-0.458-0.19-0.69-0.527-0.689-1.021
			c0.001-1.045-0.001-2.091,0.001-3.133c0.002-0.441,0.209-0.751,0.611-0.929c1.005-0.446,2.007-0.904,3.02-1.334
			c0.202-0.086,0.475-0.145,0.667-0.078C16.623,2.996,17.175,3.263,17.807,3.532z M17.068,3.547
			c-0.331-0.146-0.605-0.306-0.901-0.39c-0.207-0.057-0.472-0.078-0.662,0c-1.017,0.422-2.017,0.883-3.022,1.329
			c-0.295,0.13-0.437,0.357-0.436,0.684c0.005,1.034,0.004,2.063,0,3.098C12.047,8.621,12.194,8.864,12.521,9
			c0.991,0.423,1.975,0.861,2.974,1.258c0.192,0.079,0.469,0.083,0.661,0.008c1.011-0.404,2.006-0.843,3.007-1.271
			c0.297-0.128,0.452-0.349,0.454-0.677c0.008-1.029,0.025-2.062,0.016-3.094c-0.001-0.184-0.062-0.451-0.188-0.532
			c-0.417-0.259-0.875-0.456-1.323-0.663c-0.045-0.02-0.13,0.029-0.191,0.061c-1.101,0.516-2.204,1.027-3.297,1.559
			c-0.102,0.049-0.195,0.217-0.206,0.336c-0.028,0.329-0.01,0.659-0.01,1.001c-0.963-0.263-0.963-0.263-0.963-1.18
			c0-0.08,0.012-0.161-0.002-0.242c-0.045-0.253,0.083-0.361,0.301-0.462C14.846,4.601,15.931,4.082,17.068,3.547z"/>
		<path fill-rule="evenodd" clip-rule="evenodd" fill="#939598" d="M19.477,8.043c0.114,0.225,0.082,0.377-0.139,0.47
			c-0.916,0.385-1.831,0.772-2.749,1.15c-0.07,0.026-0.165-0.006-0.247-0.01c0.011-0.096,0.003-0.199,0.039-0.288
			c0.02-0.053,0.101-0.09,0.163-0.116c0.923-0.396,1.848-0.787,2.773-1.18C19.357,8.053,19.406,8.055,19.477,8.043z"/>
		<path fill-rule="evenodd" clip-rule="evenodd" fill="#939598" d="M18.26,7.035C17.924,7,17.935,6.82,18.059,6.577
			c0.129-0.246,0.233-0.505,0.364-0.75c0.114-0.211,0.276-0.233,0.447-0.057c0.112,0.118,0.215,0.242,0.321,0.367
			c0.128,0.149,0.109,0.277-0.027,0.424c-0.086,0.099-0.152,0.243-0.164,0.373c-0.026,0.265-0.003,0.531-0.01,0.8
			c-0.008,0.296-0.199,0.514-0.492,0.507c-0.081-0.003-0.218-0.151-0.226-0.246C18.242,7.688,18.26,7.371,18.26,7.035z
			 M18.652,5.883c-0.085,0.182-0.15,0.304-0.203,0.432c-0.044,0.104-0.113,0.216-0.104,0.318c0.017,0.172,0.114,0.336,0.129,0.508
			c0.023,0.271,0.006,0.547,0.006,0.818c0.04,0.015,0.079,0.03,0.119,0.044c0.052-0.101,0.144-0.195,0.152-0.296
			c0.021-0.277-0.012-0.557,0.014-0.834c0.018-0.188,0.099-0.372,0.151-0.557c0.041,0,0.081,0,0.121,0.003
			C18.918,6.185,18.798,6.05,18.652,5.883z"/>
		<path fill-rule="evenodd" clip-rule="evenodd" fill="#939598" d="M17.639,7.075c-0.021,0.073-0.021,0.103-0.037,0.114
			c-0.438,0.36-0.168,0.858-0.254,1.284c-0.024,0.133-0.09,0.294-0.19,0.362c-0.333,0.219-0.472,0.139-0.489-0.259
			c-0.008-0.172-0.006-0.346-0.011-0.521c-0.003-0.142,0.048-0.299-0.169-0.355c-0.042-0.009-0.087-0.184-0.06-0.255
			c0.105-0.281,0.232-0.553,0.366-0.82c0.109-0.219,0.271-0.248,0.438-0.059C17.381,6.735,17.516,6.919,17.639,7.075z M17.016,6.682
			c-0.104,0.243-0.327,0.542-0.259,0.646c0.207,0.307,0.071,0.61,0.12,0.909c0.023,0.14,0.029,0.284,0.043,0.424
			c0.037,0.007,0.073,0.012,0.108,0.02c0.035-0.101,0.095-0.203,0.1-0.306c0.014-0.263-0.012-0.529,0.011-0.795
			c0.015-0.169,0.089-0.336,0.159-0.573C17.258,6.957,17.153,6.839,17.016,6.682z"/>
	</g>
</g>
</svg>
