<?xml version="1.0" encoding="utf-8"?>
<!-- Generator: Adobe Illustrator 16.0.0, SVG Export Plug-In . SVG Version: 6.00 Build 0)  -->
<!DOCTYPE svg PUBLIC "-//W3C//DTD SVG 1.1//EN" "http://www.w3.org/Graphics/SVG/1.1/DTD/svg11.dtd">
<svg version="1.1" id="Layer_1" xmlns="http://www.w3.org/2000/svg" xmlns:xlink="http://www.w3.org/1999/xlink" x="0px" y="0px"
	 width="52px" height="47.147px" viewBox="0 0 52 47.147" enable-background="new 0 0 52 47.147" xml:space="preserve">
<g>
	<defs>
		<circle id="SVGID_7_" cx="26.189" cy="22.705" r="22.704"/>
	</defs>
	<clipPath id="SVGID_2_">
		<use xlink:href="#SVGID_7_"  overflow="visible"/>
	</clipPath>
	<circle opacity="0.4" clip-path="url(#SVGID_2_)" fill="#FFE770" cx="26.189" cy="22.705" r="22.704"/>
	<g clip-path="url(#SVGID_2_)">
		<polygon opacity="0.3" fill="#ED971B" points="18.648,33.741 33.79,51.021 52.803,32.159 37.717,15.438 16.897,14.473 
			19.344,26.143 		"/>
		<g>
			<path fill="#E8E8E8" d="M33.686,27.284H20.184c-0.408,0-0.74-0.332-0.74-0.74c0-0.409,0.332-0.74,0.74-0.74h12.941l2.991-10.568
				c0.11-0.394,0.521-0.622,0.913-0.511c0.395,0.111,0.623,0.521,0.512,0.914l-3.144,11.106
				C34.307,27.064,34.016,27.284,33.686,27.284z"/>
			<path fill="#E8E8E8" d="M34.055,24.443h-14.53c-0.327,0-0.593-0.266-0.593-0.593s0.266-0.593,0.593-0.593h14.53
				c0.328,0,0.593,0.266,0.593,0.593S34.383,24.443,34.055,24.443z"/>
			<path fill="#E8E8E8" d="M35.055,21.73H18.932c-0.327,0-0.592-0.265-0.592-0.592s0.265-0.593,0.592-0.593h16.123
				c0.327,0,0.592,0.266,0.592,0.593S35.382,21.73,35.055,21.73z"/>
			<path fill="#E8E8E8" d="M35.982,19.019H18.34c-0.327,0-0.593-0.266-0.593-0.593s0.266-0.592,0.593-0.592h17.643
				c0.327,0,0.592,0.265,0.592,0.592S36.31,19.019,35.982,19.019z"/>
			<path fill="#E8E8E8" d="M22.775,26.813c-0.291,0-0.545-0.214-0.586-0.51l-1.457-10.414c-0.045-0.323,0.182-0.623,0.505-0.668
				c0.324-0.046,0.624,0.181,0.669,0.505l1.455,10.413c0.047,0.324-0.18,0.623-0.504,0.668
				C22.83,26.811,22.802,26.813,22.775,26.813z"/>
			<path fill="#E8E8E8" d="M25.596,26.938c-0.316,0-0.58-0.25-0.592-0.569l-0.408-10.413c-0.012-0.327,0.242-0.603,0.569-0.615
				s0.603,0.241,0.615,0.568l0.407,10.414c0.013,0.326-0.242,0.602-0.568,0.614C25.611,26.938,25.604,26.938,25.596,26.938z"/>
			<path fill="#E8E8E8" d="M28.057,26.882c-0.018,0-0.033-0.001-0.051-0.002c-0.326-0.028-0.568-0.314-0.54-0.641l0.9-10.599
				c0.028-0.325,0.313-0.567,0.641-0.539c0.325,0.027,0.567,0.313,0.54,0.64l-0.9,10.599C28.62,26.648,28.361,26.882,28.057,26.882z
				"/>
			<path fill="#E8E8E8" d="M31.064,26.813c-0.029,0-0.06-0.002-0.089-0.006c-0.323-0.049-0.547-0.351-0.498-0.674l1.616-10.784
				c0.049-0.323,0.35-0.546,0.674-0.497c0.323,0.048,0.546,0.35,0.498,0.673l-1.617,10.784
				C31.605,26.602,31.352,26.813,31.064,26.813z"/>
			<path fill="#FF6D3A" d="M36.977,16.178H18.34c-0.409,0-0.74-0.332-0.74-0.74c0-0.409,0.331-0.741,0.74-0.741h18.637
				c0.409,0,0.74,0.332,0.74,0.741C37.717,15.846,37.386,16.178,36.977,16.178z"/>
			<path fill="#E8E8E8" d="M34.573,31.184H18.432c-0.348,0-0.648-0.241-0.723-0.58c-0.529-2.391,0.627-3.823,1.635-4.461
				l-2.223-10.564l-4.869-1.996c-0.379-0.154-0.561-0.587-0.404-0.966c0.154-0.378,0.587-0.56,0.965-0.404l5.234,2.146
				c0.227,0.093,0.393,0.292,0.443,0.532l2.418,11.502c0.076,0.359-0.123,0.72-0.469,0.847c-0.162,0.063-1.509,0.646-1.373,2.465
				h15.507c0.409,0,0.741,0.331,0.741,0.74S34.982,31.184,34.573,31.184z"/>
			<path fill="#FF6D3A" d="M15.623,14.905c-0.094,0-0.188-0.019-0.28-0.056l-3.091-1.268c-0.379-0.154-0.561-0.587-0.404-0.966
				c0.154-0.378,0.587-0.56,0.965-0.404l3.092,1.267c0.379,0.155,0.56,0.588,0.404,0.967C16.191,14.732,15.915,14.905,15.623,14.905
				z"/>
			<g>
				<circle fill="#FF6D3A" cx="32.679" cy="33.232" r="2.197"/>
				<circle fill="#8DB756" cx="32.679" cy="33.232" r="1.111"/>
			</g>
			<g>
				<circle fill="#FF6D3A" cx="20.783" cy="33.232" r="2.197"/>
				<circle fill="#8DB756" cx="20.783" cy="33.232" r="1.111"/>
			</g>
		</g>
	</g>
</g>
</svg>
