<?xml version="1.0" encoding="utf-8"?>
<!-- Generator: Adobe Illustrator 16.0.0, SVG Export Plug-In . SVG Version: 6.00 Build 0)  -->
<!DOCTYPE svg PUBLIC "-//W3C//DTD SVG 1.1//EN" "http://www.w3.org/Graphics/SVG/1.1/DTD/svg11.dtd">
<svg version="1.1" id="Layer_1" xmlns="http://www.w3.org/2000/svg" xmlns:xlink="http://www.w3.org/1999/xlink" x="0px" y="0px"
	 width="257.431px" height="253px" viewBox="0 0 257.431 253" enable-background="new 0 0 257.431 253" xml:space="preserve">
<linearGradient id="SVGID_1_" gradientUnits="userSpaceOnUse" x1="69.5508" y1="114.9424" x2="229.5811" y2="114.9424">
	<stop  offset="0" style="stop-color:#0442BF"/>
	<stop  offset="1" style="stop-color:#2AE4FF"/>
</linearGradient>
<circle opacity="0.1" fill="url(#SVGID_1_)" cx="149.566" cy="114.942" r="80.015"/>
<linearGradient id="SVGID_3_" gradientUnits="userSpaceOnUse" x1="22.0381" y1="171.1396" x2="130.2129" y2="171.1396">
	<stop  offset="0" style="stop-color:#0442BF"/>
	<stop  offset="1" style="stop-color:#2AE4FF"/>
</linearGradient>
<circle opacity="0.1" fill="url(#SVGID_3_)" cx="76.125" cy="171.139" r="54.087"/>
<g>
	<polygon fill="#234A87" points="123.048,92.525 64.955,121.07 64.955,192.353 181.32,192.353 181.32,121.07 	"/>
	<g>
		<path fill="#FFFFFF" d="M175.579,117.94v66.453c0,2.905-2.377,5.281-5.282,5.281H75.743c-2.906,0-5.283-2.376-5.283-5.281v-82.319
			c0-2.905,2.377-5.283,5.283-5.283h78.432L175.579,117.94z"/>
		<rect x="77.327" y="130.071" fill="#F2F2F2" width="23.243" height="2.816"/>
		<rect x="76.151" y="107.261" fill="#467CD3" width="23.242" height="2.817"/>
		<rect x="149.695" y="130.071" fill="#F2F2F2" width="23.243" height="2.816"/>
		<rect x="106.028" y="130.071" fill="#F2F2F2" width="37.857" height="2.816"/>
		<rect x="77.151" y="139.402" fill="#F2F2F2" width="23.242" height="2.817"/>
		<rect x="149.52" y="139.402" fill="#F2F2F2" width="23.242" height="2.817"/>
		<rect x="105.853" y="139.402" fill="#F2F2F2" width="37.855" height="2.817"/>
		<rect x="77.151" y="149.968" fill="#F2F2F2" width="39.441" height="2.816"/>
		<rect x="149.52" y="149.968" fill="#F2F2F2" width="23.242" height="2.816"/>
		<rect x="77.151" y="160.532" fill="#F2F2F2" width="23.242" height="2.816"/>
		<rect x="149.52" y="160.532" fill="#F2F2F2" width="23.242" height="2.816"/>
		<rect x="105.853" y="160.532" fill="#F2F2F2" width="37.855" height="2.816"/>
		<rect x="77.151" y="171.097" fill="#F2F2F2" width="23.242" height="2.817"/>
		<rect x="129.446" y="171.097" fill="#F2F2F2" width="43.315" height="2.817"/>
		<rect x="105.853" y="171.097" fill="#F2F2F2" width="14.791" height="2.817"/>
		<rect x="77.151" y="181.661" fill="#F2F2F2" width="23.242" height="2.818"/>
		<rect x="149.52" y="181.661" fill="#F2F2F2" width="23.242" height="2.818"/>
		<rect x="105.853" y="181.661" fill="#F2F2F2" width="37.855" height="2.818"/>
		<rect x="121.347" y="149.968" fill="#F2F2F2" width="22.361" height="2.816"/>
		<path fill="#E6E6E6" d="M154.175,112.658V96.791l21.404,21.149h-16.122C156.552,117.94,154.175,115.563,154.175,112.658z"/>
	</g>
	<polygon fill="#FFCB57" points="181.32,192.087 177.159,192.353 69.104,192.353 64.955,192.087 123.071,142.747 	"/>
	<polygon fill="#FFCB57" points="64.955,121.07 117.946,147.099 64.955,192.353 	"/>
	<polygon fill="#FFCB57" points="181.32,121.07 128.329,147.099 181.32,192.353 	"/>
	<g>
		<circle fill="#467CD3" cx="179.488" cy="89.879" r="16.362"/>
		<g>
			<path fill="#FFFFFF" d="M186.616,97.337c-0.475,0.409-1.276,0.789-2.405,1.142c-1.128,0.352-2.634,0.527-4.517,0.527
				c-1.406,0-2.643-0.209-3.704-0.626c-1.064-0.417-1.956-0.998-2.677-1.743c-0.72-0.744-1.264-1.635-1.632-2.674
				s-0.552-2.173-0.552-3.4c0-1.291,0.195-2.486,0.588-3.582c0.394-1.096,0.962-2.041,1.706-2.836
				c0.745-0.793,1.653-1.414,2.725-1.865c1.071-0.449,2.286-0.674,3.646-0.674c1.078,0,2.102,0.131,3.066,0.393
				s1.813,0.679,2.542,1.252c0.727,0.572,1.304,1.309,1.729,2.209c0.424,0.899,0.637,1.979,0.637,3.238
				c0,1.064-0.131,2.001-0.392,2.811c-0.263,0.811-0.598,1.489-1.005,2.037c-0.41,0.549-0.868,0.961-1.375,1.239
				c-0.508,0.278-1.016,0.417-1.522,0.417c-0.687,0-1.21-0.127-1.571-0.38c-0.359-0.253-0.58-0.561-0.662-0.921
				c-0.263,0.442-0.618,0.758-1.066,0.945c-0.451,0.188-0.963,0.282-1.535,0.282c-0.639,0-1.184-0.114-1.632-0.344
				c-0.45-0.229-0.818-0.53-1.104-0.908c-0.286-0.376-0.495-0.806-0.626-1.288s-0.196-0.986-0.196-1.509
				c0-0.786,0.105-1.518,0.318-2.197c0.213-0.679,0.52-1.264,0.922-1.755c0.4-0.49,0.884-0.879,1.447-1.166
				c0.564-0.285,1.197-0.43,1.902-0.43c0.572,0,1.071,0.127,1.497,0.381c0.425,0.254,0.728,0.643,0.908,1.166l0.319-1.301h1.914
				l-1.276,6.063c-0.099,0.441-0.147,0.736-0.147,0.883c0,0.164,0.062,0.283,0.184,0.355c0.123,0.074,0.249,0.111,0.382,0.111
				c0.277,0,0.563-0.09,0.858-0.271c0.293-0.179,0.564-0.445,0.81-0.798c0.245-0.352,0.446-0.793,0.602-1.324
				c0.155-0.532,0.233-1.15,0.233-1.854c0-1.014-0.145-1.881-0.43-2.602c-0.287-0.72-0.699-1.305-1.238-1.755
				c-0.542-0.45-1.191-0.78-1.953-0.995c-0.761-0.211-1.615-0.318-2.564-0.318c-1.096,0-2.066,0.209-2.908,0.627
				c-0.842,0.416-1.547,0.961-2.11,1.631c-0.565,0.672-0.994,1.437-1.289,2.295c-0.294,0.859-0.441,1.73-0.441,2.615
				c0,2.191,0.598,3.86,1.792,5.006c1.193,1.145,2.871,1.718,5.031,1.718c1.439,0,2.675-0.114,3.705-0.344
				c1.031-0.229,1.8-0.531,2.308-0.907L186.616,97.337z M179.008,93.189c0.736,0,1.325-0.352,1.767-1.056
				c0.443-0.703,0.663-1.604,0.663-2.7c0-0.67-0.144-1.186-0.43-1.545c-0.285-0.36-0.708-0.541-1.264-0.541
				c-0.72,0-1.329,0.295-1.829,0.885c-0.498,0.588-0.747,1.537-0.747,2.847c0,0.687,0.135,1.21,0.404,1.569
				C177.842,93.01,178.321,93.189,179.008,93.189z"/>
		</g>
	</g>
	<polygon fill="#467CD3" points="108.676,64.741 109.615,67.633 112.655,67.633 110.196,69.42 111.136,72.313 108.676,70.525 
		106.216,72.313 107.155,69.42 104.695,67.633 107.735,67.633 	"/>
	<polygon fill="#467CD3" points="90.569,85.27 91.142,87.03 92.992,87.03 91.495,88.118 92.067,89.879 90.569,88.791 89.071,89.879 
		89.644,88.118 88.146,87.03 89.997,87.03 	"/>
	<circle fill="#467CD3" cx="51.299" cy="125.362" r="1.058"/>
	<circle fill="#467CD3" cx="49.418" cy="113.37" r="0.588"/>
	<circle fill="#467CD3" cx="59.589" cy="117.044" r="2.087"/>
</g>
<g>
	<g>
		<path fill="#FFCB57" d="M122.861,138.859c-0.631,0-1.266-0.036-1.902-0.108c-4.4-0.498-8.348-2.682-11.106-6.148
			c-2.76-3.465-4.005-7.798-3.506-12.201c1.029-9.088,9.261-15.646,18.351-14.613c4.4,0.498,8.346,2.682,11.104,6.148
			c2.763,3.465,4.006,7.799,3.509,12.201l0,0c-0.498,4.402-2.684,8.347-6.148,11.107
			C130.195,137.606,126.597,138.859,122.861,138.859z M122.818,106.253c-8.032,0-14.979,6.049-15.904,14.213
			c-0.482,4.251,0.721,8.436,3.387,11.781c2.665,3.347,6.473,5.455,10.724,5.936c4.249,0.484,8.435-0.721,11.782-3.385
			c3.346-2.666,5.453-6.475,5.934-10.725l0,0c0.483-4.252-0.72-8.436-3.385-11.782c-2.664-3.346-6.474-5.454-10.725-5.935
			C124.022,106.287,123.416,106.253,122.818,106.253z"/>
	</g>
	<g>
		<g>
			<polygon fill="#FFCB57" points="111.553,124.574 114.326,121.177 120.811,125.86 131.349,113.44 134.525,116.233 
				120.972,131.854 			"/>
		</g>
	</g>
</g>
<line fill="none" stroke="#FFFFFF" stroke-miterlimit="10" x1="123.071" y1="142.747" x2="64.955" y2="192.353"/>
<line fill="none" stroke="#FFFFFF" stroke-miterlimit="10" x1="123.071" y1="142.747" x2="181.32" y2="192.353"/>
</svg>
